<?xml version="1.0" encoding="UTF-8"?>
<svg width="198px" height="198px" viewBox="0 0 198 198" version="1.1" xmlns="http://www.w3.org/2000/svg" xmlns:xlink="http://www.w3.org/1999/xlink">
    <!-- Generator: Sketch 55.1 (78136) - https://sketchapp.com -->
    <title>undraw_docusaurus_react</title>
    <desc>Created with Sketch.</desc>
    <g id="Drip" stroke="none" stroke-width="1" fill="none" fill-rule="evenodd">
        <g id="Artboard-Copy-4" transform="translate(-1184.000000, -1670.000000)" fill-rule="nonzero">
            <g id="undraw_docusaurus_react" transform="translate(1184.000000, 1670.000000)">
                <circle id="Oval" fill="#282D48" cx="99" cy="99" r="98.9949494"></circle>
                <path d="M99,28.1567394 C97.3619435,28.1567394 95.7243797,28.2135527 94.0902618,28.327077 L99,99 L99,28.1567394 Z" id="Path" fill="#87738C"></path>
                <path d="M93.5446196,32.2931439 C92.0022061,32.4192846 90.4646316,32.5988836 88.9346688,32.8316168 L99,99 L93.5446196,32.2931439 Z" id="Path" fill="#87738C"></path>
                <path d="M88.5595387,35.5954061 C87.0934809,35.8368132 85.6362371,36.1289956 84.1904349,36.4714262 L99,99 L88.5595387,35.5954061 Z" id="Path" fill="#87738C"></path>
                <path d="M83.5669044,37.2205593 C82.1384239,37.5774074 80.7227498,37.9836927 79.3224351,38.4386825 L99,99 L83.5669044,37.2205593 Z" id="Path" fill="#87738C"></path>
                <path d="M78.0393605,37.07908 C76.6076087,37.5637374 75.1930972,38.097907 73.7983767,38.6806256 L99,99 L78.0393605,37.07908 Z" id="Path" fill="#87738C"></path>
                <path d="M71.7004825,35.8438535 C70.2401694,36.4750802 68.8021888,37.1567655 67.3891336,37.8876803 L99,99 L71.7004825,35.8438535 Z" id="Path" fill="#87738C"></path>
                <path d="M64.7253023,34.6794233 C63.238065,35.4719319 61.7787619,36.3157845 60.3500248,37.2094594 L99,99 L64.7253023,34.6794233 Z" id="Path" fill="#87738C"></path>
                <path d="M57.7414631,34.8004634 C56.2570245,35.7544542 54.8061201,36.7596433 53.3913663,37.8142181 L99,99 L57.7414631,34.8004634 Z" id="Path" fill="#87738C"></path>
                <path d="M51.6166617,37.0309886 C50.1837979,38.1265986 48.7893646,39.2715756 47.4358764,40.4638549 L99,99 L51.6166617,37.0309886 Z" id="Path" fill="#87738C"></path>
                <path d="M47.1122873,41.5302282 C45.7834561,42.7299895 44.4966364,43.9754784 43.2541489,45.2644486 L99,99 L47.1122873,41.5302282 Z" id="Path" fill="#87738C"></path>
                <path d="M44.5462962,47.7808864 C43.3619943,49.0399793 42.2217184,50.3397691 41.1275246,51.6779117 L99,99 L44.5462962,47.7808864 Z" id="Path" fill="#87738C"></path>
                <path d="M43.6125085,54.8299495 C42.591197,56.1106336 41.6146111,57.4263551 40.6845121,58.7747412 L99,99 L43.6125085,54.8299495 Z" id="Path" fill="#87738C"></path>
                <path d="M43.4451058,61.6741436 C42.5820475,62.9586985 41.7638016,64.2728008 40.9918435,65.6140807 L99,99 L43.4451058,61.6741436 Z" id="Path" fill="#87738C"></path>
                <path d="M42.9187712,67.6305637 C42.1934388,68.9272886 41.5132995,70.2487805 40.8795797,71.5926562 L99,99 L42.9187712,67.6305637 Z" id="Path" fill="#87738C"></path>
                <path d="M41.0765106,72.5472287 C40.4648626,73.8865509 39.8998509,75.2466842 39.3824943,76.6251759 L99,99 L41.0765106,72.5472287 Z" id="Path" fill="#87738C"></path>
                <path d="M37.5195303,76.7806257 C37.0057681,78.2021933 36.5414652,79.6411523 36.127459,81.0949077 L99,99 L37.5195303,76.7806257 Z" id="Path" fill="#87738C"></path>
                <path d="M32.6015656,80.966409 C32.1845882,82.5016911 31.820985,84.0509735 31.5114117,85.6114624 L99,99 L32.6015656,80.966409 Z" id="Path" fill="#87738C"></path>
                <path d="M27.3422237,85.6938141 C27.0345546,87.3507041 26.7844445,89.0177666 26.5923447,90.6919955 L99,99 L27.3422237,85.6938141 Z" id="Path" fill="#87738C"></path>
                <path d="M23.0825041,91.2294667 C22.9028318,92.9848511 22.7840962,94.745939 22.7265115,96.5095547 L99,99 L23.0825041,91.2294667 Z" id="Path" fill="#87738C"></path>
                <path d="M21.0076477,97.408739 C20.9708542,99.2120987 20.9966183,101.016192 21.0848937,102.817766 L99,99 L21.0076477,97.408739 Z" id="Path" fill="#87738C"></path>
                <path d="M21.7168634,103.735631 C21.8263619,105.522592 21.9978053,107.305217 22.2308845,109.080293 L99,99 L21.7168634,103.735631 Z" id="Path" fill="#87738C"></path>
                <path d="M25.0039555,109.639025 C25.2499538,111.349981 25.5552199,113.05189 25.9192033,114.741684 L99,99 L25.0039555,109.639025 Z" id="Path" fill="#87738C"></path>
                <path d="M29.9329278,114.764109 C30.2974297,116.361096 30.7172108,117.94496 31.1915142,119.512846 L99,99 L29.9329278,114.764109 Z" id="Path" fill="#87738C"></path>
                <path d="M35.1795604,119.162275 C35.6457578,120.637948 36.1629963,122.097007 36.7303432,123.536823 L99,99 L35.1795604,119.162275 Z" id="Path" fill="#87738C"></path>
                <path d="M39.5083129,123.287547 C40.0698959,124.663129 40.6790199,126.01882 41.3345864,127.352175 L99,99 L39.5083129,123.287547 Z" id="Path" fill="#87738C"></path>
                <path d="M42.2036857,127.793374 C42.8694536,129.106634 43.5805696,130.396407 44.3357513,131.660368 L99,99 L42.2036857,127.793374 Z" id="Path" fill="#87738C"></path>
                <path d="M43.2957478,133.213813 C44.0868486,134.501822 44.9223839,135.762005 45.800847,136.99209 L99,99 L43.2957478,133.213813 Z" id="Path" fill="#87738C"></path>
                <path d="M43.5020241,139.668626 C44.4423748,140.951865 45.4269497,142.202103 46.4539733,143.417086 L99,99 L43.5020241,139.668626 Z" id="Path" fill="#87738C"></path>
                <path d="M43.9189122,146.728034 C45.0224924,148.001634 46.1699133,149.236574 47.3591059,150.430628 L99,99 L43.9189122,146.728034 Z" id="Path" fill="#87738C"></path>
                <path d="M45.590968,153.50984 C46.8513589,154.744778 48.1542024,155.935629 49.4971492,157.080247 L99,99 L45.590968,153.50984 Z" id="Path" fill="#87738C"></path>
                <path d="M49.1284658,158.984741 C50.5154488,160.137884 51.9420094,161.242575 53.4055752,162.296821 L99,99 L49.1284658,158.984741 Z" id="Path" fill="#87738C"></path>
                <path d="M54.5172176,162.375007 C55.9825912,163.403549 57.4831974,164.380958 59.0163299,165.305471 L99,99 L54.5172176,162.375007 Z" id="Path" fill="#87738C"></path>
                <path d="M61.1821456,163.485761 C62.6732023,164.360195 64.1941389,165.182652 65.7422125,165.951647 L99,99 L61.1821456,163.485761 Z" id="Path" fill="#87738C"></path>
                <path d="M68.2622612,162.827572 C69.7380991,163.538298 71.2381435,164.197624 72.7596892,164.804359 L99,99 L68.2622612,162.827572 Z" id="Path" fill="#87738C"></path>
                <path d="M74.9721077,161.467801 C76.4165047,162.023381 77.8797365,162.528696 79.3591645,162.982837 L99,99 L74.9721077,161.467801 Z" id="Path" fill="#87738C"></path>
                <path d="M80.8963084,160.655512 C82.3219233,161.07411 83.7616279,161.443137 85.2128257,161.761928 L99,99 L80.8963084,160.655512 Z" id="Path" fill="#87738C"></path>
                <path d="M86.0996439,161.357522 C87.5414909,161.655807 88.9932498,161.903995 90.4523025,162.101637 L99,99 L86.0996439,161.357522 Z" id="Path" fill="#87738C"></path>
                <path d="M91.0184033,163.883302 C92.5186521,164.067854 94.0248505,164.200318 95.5342823,164.280453 L99,99 L91.0184033,163.883302 Z" id="Path" fill="#87738C"></path>
                <path d="M96.1935904,167.746538 C97.783166,167.811429 99.374514,167.821168 100.964765,167.775738 L99,99 L96.1935904,167.746538 Z" id="Path" fill="#87738C"></path>
                <path d="M101.972783,171.822071 C103.656594,171.753334 105.337515,171.626217 107.012514,171.440949 L99,99 L101.972783,171.822071 Z" id="Path" fill="#87738C"></path>
                <path d="M108.317522,174.743192 C110.068876,174.52775 111.812231,174.25163 113.544443,173.915329 L99,99 L108.317522,174.743192 Z" id="Path" fill="#87738C"></path>
                <path d="M114.803566,175.39101 C116.569899,175.025596 118.323027,174.599029 120.059789,174.112079 L99,99 L114.803566,175.39101 Z" id="Path" fill="#87738C"></path>
                <path d="M120.814014,173.29171 C122.531807,172.787321 124.231589,172.223504 125.910294,171.601277 L99,99 L120.814014,173.29171 Z" id="Path" fill="#87738C"></path>
                <path d="M125.837951,168.773403 C127.45127,168.152849 129.042581,167.476526 130.609014,166.745654 L99,99 L125.837951,168.773403 Z" id="Path" fill="#87738C"></path>
                <path d="M129.737739,162.827572 C131.213577,162.116846 132.66432,161.355147 134.087353,160.543848 L99,99 L129.737739,162.827572 Z" id="Path" fill="#87738C"></path>
                <path d="M132.858148,156.7338 C134.193084,155.950923 135.500466,155.121981 136.777936,154.24847 L99,99 L132.858148,156.7338 Z" id="Path" fill="#87738C"></path>
                <path d="M135.916753,151.595619 C137.132883,150.74202 138.319041,149.846498 139.473088,148.910669 L99,99 L135.916753,151.595619 Z" id="Path" fill="#87738C"></path>
                <path d="M139.709833,147.965184 C140.842019,147.02388 141.941217,146.043592 143.005444,145.026086 L99,99 L139.709833,147.965184 Z" id="Path" fill="#87738C"></path>
                <path d="M144.751364,145.694341 C145.831043,144.636466 146.873706,143.541462 147.877474,142.411304 L99,99 L144.751364,145.694341 Z" id="Path" fill="#87738C"></path>
                <path d="M150.99844,144.056905 C152.040258,142.854583 153.040062,141.61649 153.996048,140.344857 L99,99 L150.99844,144.056905 Z" id="Path" fill="#87738C"></path>
                <path d="M157.788088,142.079603 C158.784186,140.72029 159.732839,139.326837 160.632335,137.901758 L99,99 L157.788088,142.079603 Z" id="Path" fill="#87738C"></path>
                <path d="M164.027792,138.940376 C164.951304,137.436786 165.822389,135.901618 166.639475,134.33764 L99,99 L164.027792,138.940376 Z" id="Path" fill="#87738C"></path>
                <path d="M168.578259,134.27329 C169.393857,132.664483 170.153411,131.027873 170.855552,129.36641 L99,99 L168.578259,134.27329 Z" id="Path" fill="#87738C"></path>
                <path d="M170.684413,128.26524 C171.361092,126.607735 171.980079,124.927258 172.540258,123.226841 L99,99 L170.684413,128.26524 Z" id="Path" fill="#87738C"></path>
                <path d="M170.284232,121.52025 C170.804952,119.871997 171.268347,118.20618 171.673583,116.525802 L99,99 L170.284232,121.52025 Z" id="Path" fill="#87738C"></path>
                <path d="M168.067072,114.764109 C168.431574,113.167121 168.740577,111.557973 168.993525,109.939564 L99,99 L168.067072,114.764109 Z" id="Path" fill="#87738C"></path>
                <path d="M165.248312,108.525069 C165.468553,106.993258 165.6356,105.45427 165.749151,103.910878 L99,99 L165.248312,108.525069 Z" id="Path" fill="#87738C"></path>
                <path d="M163.13813,102.930152 C163.229004,101.447134 163.268414,99.9614091 163.25629,98.4756583 L99,99 L163.13813,102.930152 Z" id="Path" fill="#87738C"></path>
                <path d="M162.664688,97.7010632 C162.634654,96.2289915 162.553572,94.7584044 162.421589,93.2919537 L99,99 L162.664688,97.7010632 Z" id="Path" fill="#87738C"></path>
                <path d="M164.032614,92.3435885 C163.878703,90.8398873 163.672685,89.3419765 163.414931,87.8525575 L99,99 L164.032614,92.3435885 Z" id="Path" fill="#87738C"></path>
                <path d="M166.647404,86.4385031 C166.356954,84.874342 166.012341,83.3207252 165.614186,81.7804545 L99,99 L166.647404,86.4385031 Z" id="Path" fill="#87738C"></path>
                <path d="M169.334763,79.8973153 C168.893066,78.2710164 168.395096,76.6605263 167.841751,75.0687492 L99,99 L169.334763,79.8973153 Z" id="Path" fill="#87738C"></path>
                <path d="M170.770808,73.0616416 C170.171055,71.402138 169.513924,69.7639352 168.800602,68.1499873 L99,99 L170.770808,73.0616416 Z" id="Path" fill="#87738C"></path>
                <path d="M169.959104,66.5940632 C169.209805,64.9533281 168.403826,63.3390748 167.542619,61.7542143 L99,99 L169.959104,66.5940632 Z" id="Path" fill="#87738C"></path>
                <path d="M166.574987,61.2014479 C165.700999,59.6389612 164.773081,58.1072575 163.792908,56.6090988 L99,99 L166.574987,61.2014479 Z" id="Path" fill="#87738C"></path>
                <path d="M161.052032,57.3088892 C160.08804,55.8741057 159.074574,54.4731885 158.013462,53.1086637 L99,99 L161.052032,57.3088892 Z" id="Path" fill="#87738C"></path>
                <path d="M154.387491,54.8299495 C153.36618,53.5492653 152.300757,52.3043889 151.193144,51.0975653 L99,99 L154.387491,54.8299495 Z" id="Path" fill="#87738C"></path>
                <path d="M147.752146,53.1437674 C146.691846,52.0165074 145.592768,50.9263613 144.456894,49.8752951 L99,99 L147.752146,53.1437674 Z" id="Path" fill="#87738C"></path>
                <path d="M142.062186,51.305201 C140.959375,50.3095057 139.822361,49.3523593 138.653195,48.4354877 L99,99 L142.062186,51.305201 Z" id="Path" fill="#87738C"></path>
                <path d="M137.678734,48.4150687 C136.509096,47.5207289 135.308791,46.667225 134.079984,45.8560964 L99,99 L137.678734,48.4150687 Z" id="Path" fill="#87738C"></path>
                <path d="M134.34298,44.00525 C133.071377,43.1880403 131.771813,42.41518 130.446631,41.6880627 L99,99 L134.34298,44.00525 Z" id="Path" fill="#87738C"></path>
                <path d="M131.356493,38.2791645 C129.95249,37.5310092 128.52296,36.8317745 127.070483,36.1827214 L99,99 L131.356493,38.2791645 Z" id="Path" fill="#87738C"></path>
                <path d="M127.917927,32.0997387 C126.371042,31.4310907 124.801431,30.8162952 123.211925,30.2564607 L99,99 L127.917927,32.0997387 Z" id="Path" fill="#87738C"></path>
                <path d="M123.468942,26.7150206 C121.79755,26.1492432 120.107037,25.6416057 118.400453,25.1930233 L99,99 L123.468942,26.7150206 Z" id="Path" fill="#87738C"></path>
                <path d="M117.906296,23.3171677 C116.156337,22.8800114 114.391743,22.503681 112.615696,22.1888553 L99,99 L117.906296,23.3171677 Z" id="Path" fill="#87738C"></path>
                <path d="M111.580217,22.600736 C109.813693,22.3098529 108.037612,22.0803264 106.255176,21.9125703 L99,99 L111.580217,22.600736 Z" id="Path" fill="#87738C"></path>
                <path d="M105.093386,24.491785 C103.370588,24.3508922 101.643421,24.2697942 99.9150002,24.2486373 L99,99 L105.093386,24.491785 Z" id="Path" fill="#87738C"></path>
                <path d="M99,35.395745 C97.5293257,35.395745 96.0590937,35.446753 94.5919555,35.548677 L99,99 L99,35.395745 Z" id="Path" fill="#E7A59A"></path>
                <path d="M94.4536688,43.4087418 C93.1682731,43.5138633 91.88691,43.663535 90.6118903,43.8574871 L99,99 L94.4536688,43.4087418 Z" id="Path" fill="#E7A59A"></path>
                <path d="M90.8055823,49.2355584 C89.6549157,49.4250319 88.5111669,49.6543574 87.3763984,49.9231213 L99,99 L90.8055823,49.2355584 Z" id="Path" fill="#E7A59A"></path>
                <path d="M87.0579626,51.1954367 C85.9526128,51.4715636 84.8571727,51.7859447 83.7736175,52.1380132 L99,99 L87.0579626,51.1954367 Z" id="Path" fill="#E7A59A"></path>
                <path d="M82.1145864,49.1179176 C80.9611998,49.5083466 79.8217015,49.9386615 78.6981465,50.4080863 L99,99 L82.1145864,49.1179176 Z" id="Path" fill="#E7A59A"></path>
                <path d="M75.3819324,44.3607144 C74.1185485,44.9068175 72.8744853,45.4965749 71.6519863,46.1289229 L99,99 L75.3819324,44.3607144 Z" id="Path" fill="#E7A59A"></path>
                <path d="M67.1705009,39.2681314 C65.7893649,40.0041015 64.4341703,40.7877526 63.107361,41.6176717 L99,99 L67.1705009,39.2681314 Z" id="Path" fill="#E7A59A"></path>
                <path d="M58.6973864,36.2879092 C57.247341,37.2197968 55.8300527,38.2016966 54.4480775,39.2318379 L99,99 L58.6973864,36.2879092 Z" id="Path" fill="#E7A59A"></path>
                <path d="M51.6614174,37.0895211 C50.229907,38.1840963 48.8367908,39.3279918 47.4845811,40.5191449 L99,99 L51.6614174,37.0895211 Z" id="Path" fill="#E7A59A"></path>
                <path d="M47.5506762,42.0157788 C46.2330721,43.2054036 44.9571245,44.4403696 43.7251344,45.7184496 L99,99 L47.5506762,42.0157788 Z" id="Path" fill="#E7A59A"></path>
                <path d="M46.96848,50.0591907 C45.8368577,51.2622773 44.7473029,52.5042504 43.7017806,53.7828703 L99,99 L46.96848,50.0591907 Z" id="Path" fill="#E7A59A"></path>
                <path d="M49.272191,59.3433957 C48.3552406,60.4932152 47.4784456,61.6744917 46.6433873,62.8850951 L99,99 L49.272191,59.3433957 Z" id="Path" fill="#E7A59A"></path>
                <path d="M52.7024131,67.8938823 C51.9831692,68.9643873 51.3012705,70.0595161 50.6579465,71.1772937 L99,99 L52.7024131,67.8938823 Z" id="Path" fill="#E7A59A"></path>
                <path d="M54.9834569,74.3790319 C54.4141644,75.396794 53.8803426,76.433995 53.3829542,77.4887643 L99,99 L54.9834569,74.3790319 Z" id="Path" fill="#E7A59A"></path>
                <path d="M54.1791488,78.5310031 C53.7058593,79.5673626 53.2686566,80.6198257 52.8683291,81.6864943 L99,99 L54.1791488,78.5310031 Z" id="Path" fill="#E7A59A"></path>
                <path d="M49.4727344,81.1005783 C49.0588593,82.2457608 48.6848275,83.4049533 48.3513134,84.5760656 L99,99 L49.4727344,81.1005783 Z" id="Path" fill="#E7A59A"></path>
                <path d="M41.555662,83.3983114 C41.1949157,84.7265545 40.8803458,86.06691 40.6125197,87.4169607 L99,99 L41.555662,83.3983114 Z" id="Path" fill="#E7A59A"></path>
                <path d="M32.4543765,86.6430936 C32.1686569,88.181779 31.93639,89.7299113 31.7579948,91.2846986 L99,99 L32.4543765,86.6430936 Z" id="Path" fill="#E7A59A"></path>
                <path d="M24.8414445,91.409503 C24.6659351,93.1242167 24.5499505,94.8445018 24.4936999,96.5672561 L99,99 L24.8414445,91.409503 Z" id="Path" fill="#E7A59A"></path>
                <path d="M21.081315,97.410242 C21.0445562,99.2118984 21.070296,101.014288 21.158488,102.81416 L99,99 L21.081315,97.410242 Z" id="Path" fill="#E7A59A"></path>
                <path d="M22.3698132,103.69562 C22.4783866,105.467484 22.6483815,107.235048 22.8794915,108.995127 L99,99 L22.3698132,103.69562 Z" id="Path" fill="#E7A59A"></path>
                <path d="M28.2954124,109.165785 C28.5304684,110.800635 28.8221558,112.426841 29.1699486,114.04147 L99,99 L28.2954124,109.165785 Z" id="Path" fill="#E7A59A"></path>
                <path d="M36.9904365,113.153278 C37.3176923,114.58708 37.6945788,116.009099 38.1204163,117.416773 L99,99 L36.9904365,113.153278 Z" id="Path" fill="#E7A59A"></path>
                <path d="M45.8141846,115.802564 C46.2026979,117.03234 46.6337471,118.248272 47.106555,119.448166 L99,99 L45.8141846,115.802564 Z" id="Path" fill="#E7A59A"></path>
                <path d="M52.3066863,118.062597 C52.7474567,119.142252 53.2255406,120.206295 53.7400758,121.252806 L99,99 L52.3066863,118.062597 Z" id="Path" fill="#E7A59A"></path>
                <path d="M55.0513502,121.280142 C55.5665175,122.296334 56.1167748,123.294353 56.7011299,124.272398 L99,99 L55.0513502,121.280142 Z" id="Path" fill="#E7A59A"></path>
                <path d="M54.1259236,126.561869 C54.7632164,127.599459 55.4363046,128.614633 56.1439744,129.605562 L99,99 L54.1259236,126.561869 Z" id="Path" fill="#E7A59A"></path>
                <path d="M50.9861498,134.184298 C51.7996904,135.294487 52.6514914,136.376126 53.5400167,137.427263 L99,99 L50.9861498,134.184298 Z" id="Path" fill="#E7A59A"></path>
                <path d="M47.8484639,143.323058 C48.8733133,144.505798 49.9388759,145.652636 51.04323,146.761505 L99,99 L47.8484639,143.323058 Z" id="Path" fill="#E7A59A"></path>
                <path d="M46.8284075,152.246896 C48.0595962,153.453221 49.332254,154.616482 50.6440859,155.73458 L99,99 L46.8284075,152.246896 Z" id="Path" fill="#E7A59A"></path>
                <path d="M49.1755717,158.928083 C50.5612446,160.080137 51.9864578,161.183784 53.4486412,162.237034 L99,99 L49.1755717,158.928083 Z" id="Path" fill="#E7A59A"></path>
                <path d="M54.8930438,161.839564 C56.3460367,162.859417 57.8339645,163.828568 59.354144,164.74527 L99,99 L54.8930438,161.839564 Z" id="Path" fill="#E7A59A"></path>
                <path d="M62.8643414,160.617336 C64.2890737,161.452874 65.7423567,162.238746 67.2215696,162.973536 L99,99 L62.8643414,160.617336 Z" id="Path" fill="#E7A59A"></path>
                <path d="M71.403148,156.305454 C72.7281798,156.943555 74.0749445,157.535508 75.4410135,158.080245 L99,99 L71.403148,156.305454 Z" id="Path" fill="#E7A59A"></path>
                <path d="M78.9759599,151.058572 C80.1796719,151.521573 81.3990803,151.942686 82.631986,152.321152 L99,99 L78.9759599,151.058572 Z" id="Path" fill="#E7A59A"></path>
                <path d="M84.7909333,147.391637 C85.9098575,147.720183 87.0398401,148.009822 88.1788435,148.260032 L99,99 L84.7909333,147.391637 Z" id="Path" fill="#E7A59A"></path>
                <path d="M89.0177813,147.251879 C90.1334739,147.482691 91.2568363,147.674737 92.3858426,147.827671 L99,99 L89.0177813,147.251879 Z" id="Path" fill="#E7A59A"></path>
                <path d="M92.5702075,151.26851 C93.7787738,151.417181 94.9921329,151.52389 96.2080968,151.588446 L99,99 L92.5702075,151.26851 Z" id="Path" fill="#E7A59A"></path>
                <path d="M96.572046,158.475791 C97.9472609,158.531931 99.3240093,158.540356 100.699808,158.501053 L99,99 L96.572046,158.475791 Z" id="Path" fill="#E7A59A"></path>
                <path d="M101.760701,166.626856 C103.324387,166.563022 104.885389,166.444974 106.440891,166.272924 L99,99 L101.760701,166.626856 Z" id="Path" fill="#E7A59A"></path>
                <path d="M108.101644,172.98829 C109.81242,172.77784 111.515383,172.508117 113.207462,172.179608 L99,99 L108.101644,172.98829 Z" id="Path" fill="#E7A59A"></path>
                <path d="M114.788639,175.318855 C116.553304,174.953786 118.304776,174.527622 120.039897,174.041132 L99,99 L114.788639,175.318855 Z" id="Path" fill="#E7A59A"></path>
                <path d="M120.629712,172.664034 C122.332991,172.163906 124.018412,171.604853 125.682935,170.987884 L99,99 L120.629712,172.664034 Z" id="Path" fill="#E7A59A"></path>
                <path d="M124.644158,165.669776 C126.185715,165.076825 127.706241,164.430586 129.202997,163.732224 L99,99 L124.644158,165.669776 Z" id="Path" fill="#E7A59A"></path>
                <path d="M126.596852,156.305454 C127.921884,155.667352 129.224385,154.983486 130.502008,154.255088 L99,99 L126.596852,156.305454 Z" id="Path" fill="#E7A59A"></path>
                <path d="M127.216246,147.113414 C128.328737,146.46099 129.418265,145.770178 130.482865,145.042223 L99,99 L127.216246,147.113414 Z" id="Path" fill="#E7A59A"></path>
                <path d="M127.974897,140.280788 C128.929403,139.610823 129.860384,138.907954 130.766163,138.173448 L99,99 L127.974897,140.280788 Z" id="Path" fill="#E7A59A"></path>
                <path d="M130.501027,136.888967 C131.377105,136.160592 132.227658,135.402051 133.051151,134.614711 L99,99 L130.501027,136.888967 Z" id="Path" fill="#E7A59A"></path>
                <path d="M135.856256,136.615897 C136.726021,135.763697 137.565967,134.881587 138.374579,133.971157 L99,99 L135.856256,136.615897 Z" id="Path" fill="#E7A59A"></path>
                <path d="M143.986241,137.9808 C144.887565,136.940616 145.752542,135.869484 146.57961,134.769336 L99,99 L143.986241,137.9808 Z" id="Path" fill="#E7A59A"></path>
                <path d="M153.594074,139.006252 C154.519109,137.743913 155.400084,136.449871 156.23541,135.126459 L99,99 L153.594074,139.006252 Z" id="Path" fill="#E7A59A"></path>
                <path d="M162.521157,138.014993 C163.423271,136.54624 164.274174,135.04664 165.072329,133.518899 L99,99 L162.521157,138.014993 Z" id="Path" fill="#E7A59A"></path>
                <path d="M168.512539,134.239973 C169.327367,132.632686 170.086204,130.997621 170.787681,129.337727 L99,99 L168.512539,134.239973 Z" id="Path" fill="#E7A59A"></path>
                <path d="M170.078766,128.017984 C170.749727,126.374482 171.363485,124.708204 171.918931,123.022153 L99,99 L170.078766,128.017984 Z" id="Path" fill="#E7A59A"></path>
                <path d="M167.113401,120.518515 C167.610958,118.943579 168.053741,117.35186 168.440951,115.746228 L99,99 L167.113401,120.518515 Z" id="Path" fill="#E7A59A"></path>
                <path d="M161.009564,113.153278 C161.336819,111.719477 161.614248,110.274756 161.841348,108.821722 L99,99 L161.009564,113.153278 Z" id="Path" fill="#E7A59A"></path>
                <path d="M154.209123,106.937874 C154.392665,105.661314 154.531876,104.378772 154.626505,103.092561 L99,99 L154.209123,106.937874 Z" id="Path" fill="#E7A59A"></path>
                <path d="M149.340173,102.084663 C149.411497,100.920685 149.442429,99.7545824 149.432914,98.5884593 L99,99 L149.340173,102.084663 Z" id="Path" fill="#E7A59A"></path>
                <path d="M148.263356,97.9948904 C148.240116,96.8558101 148.177375,95.7178786 148.075248,94.5831478 L99,99 L148.263356,97.9948904 Z" id="Path" fill="#E7A59A"></path>
                <path d="M151.388792,93.6377465 C151.264805,92.4263991 151.098841,91.2197163 150.8912,90.0198743 L99,99 L151.388792,93.6377465 Z" id="Path" fill="#E7A59A"></path>
                <path d="M157.524879,88.1324716 C157.273597,86.7792439 156.975456,85.4351386 156.630994,84.1025796 L99,99 L157.524879,88.1324716 Z" id="Path" fill="#E7A59A"></path>
                <path d="M164.316996,81.2601241 C163.90681,79.7498473 163.444366,78.2542515 162.930497,76.7760337 L99,99 L164.316996,81.2601241 Z" id="Path" fill="#E7A59A"></path>
                <path d="M169.107943,73.6626101 C168.522085,72.0415558 167.88018,70.4413087 167.183385,68.8647545 L99,99 L169.107943,73.6626101 Z" id="Path" fill="#E7A59A"></path>
                <path d="M169.89208,66.6246721 C169.143489,64.9854867 168.338271,63.3727582 167.477877,61.7893947 L99,99 L169.89208,66.6246721 Z" id="Path" fill="#E7A59A"></path>
                <path d="M166.004059,61.5208003 C165.137455,59.9715148 164.217378,58.4527521 163.245485,56.9672511 L99,99 L166.004059,61.5208003 Z" id="Path" fill="#E7A59A"></path>
                <path d="M158.291863,59.1633734 C157.37075,57.7924113 156.402365,56.453809 155.388453,55.1499803 L99,99 L158.291863,59.1633734 Z" id="Path" fill="#E7A59A"></path>
                <path d="M148.727809,59.3433957 C147.810859,58.1935762 146.854304,57.0759055 145.859871,55.9923992 L99,99 L148.727809,59.3433957 Z" id="Path" fill="#E7A59A"></path>
                <path d="M139.628405,60.7849526 C138.744786,59.8455319 137.828851,58.9370407 136.882252,58.0611173 L99,99 L139.628405,60.7849526 Z" id="Path" fill="#E7A59A"></path>
                <path d="M132.798271,61.5657244 C131.932706,60.7842318 131.040296,60.0329951 130.122652,59.313369 L99,99 L132.798271,61.5657244 Z" id="Path" fill="#E7A59A"></path>
                <path d="M128.929374,59.8576814 C128.024315,59.1656466 127.095526,58.5052104 126.144682,57.8775639 L99,99 L128.929374,59.8576814 Z" id="Path" fill="#E7A59A"></path>
                <path d="M127.471499,54.6974824 C126.447125,54.0391569 125.400225,53.4165582 124.332689,52.8308091 L99,99 L127.471499,54.6974824 Z" id="Path" fill="#E7A59A"></path>
                <path d="M126.993089,46.4676138 C125.778422,45.8203503 124.54167,45.2154102 123.285065,44.6538845 L99,99 L126.993089,46.4676138 Z" id="Path" fill="#E7A59A"></path>
                <path d="M125.854887,36.8724846 C124.418359,36.2515388 122.960725,35.6806035 121.484616,35.1607083 L99,99 L125.854887,36.8724846 Z" id="Path" fill="#E7A59A"></path>
                <path d="M122.902018,28.3897988 C121.269351,27.8371301 119.618006,27.341254 117.950961,26.9030649 L99,99 L122.902018,28.3897988 Z" id="Path" fill="#E7A59A"></path>
                <path d="M117.888438,23.3886536 C116.140133,22.9519101 114.377205,22.5759352 112.602835,22.2614069 L99,99 L117.888438,23.3886536 Z" id="Path" fill="#E7A59A"></path>
                <path d="M111.473929,23.2462182 C109.722331,22.9577927 107.961255,22.7302053 106.193879,22.5638666 L99,99 L111.473929,23.2462182 Z" id="Path" fill="#E7A59A"></path>
                <path d="M104.822343,27.8060241 C103.176177,27.6713983 101.525838,27.5939077 99.8742996,27.5736919 L99,99 L104.822343,27.8060241 Z" id="Path" fill="#E7A59A"></path>
                <path d="M99,49.8737564 C97.8640901,49.8737564 96.7285218,49.9131536 95.5953431,49.991877 L99,99 L99,49.8737564 Z" id="Path" fill="#FFBC95"></path>
                <path d="M94.9957551,50.0372199 C93.8636248,50.1298071 92.7350463,50.2616326 91.6120548,50.4324586 L99,99 L94.9957551,50.0372199 Z" id="Path" fill="#FFBC95"></path>
                <path d="M91.0181577,50.5265226 C89.8973412,50.7110809 88.783263,50.9344574 87.6779321,51.1962492 L99,99 L91.0181577,50.5265226 Z" id="Path" fill="#FFBC95"></path>
                <path d="M87.0936783,51.3384084 C85.9916344,51.6137095 84.8994704,51.9271504 83.8191559,52.2781659 L99,99 L87.0936783,51.3384084 Z" id="Path" fill="#FFBC95"></path>
                <path d="M83.2484334,52.4674742 C82.1724961,52.831686 81.1095145,53.2331055 80.0614056,53.6710087 L99,99 L83.2484334,52.4674742 Z" id="Path" fill="#FFBC95"></path>
                <path d="M79.5080126,53.9062062 C78.465342,54.3569051 77.4386168,54.8436317 76.4296886,55.3655084 L99,99 L79.5080126,53.9062062 Z" id="Path" fill="#FFBC95"></path>
                <path d="M75.8973077,55.64503 C74.8948427,56.1792166 73.9112066,56.7480113 72.9481733,57.3503885 L99,99 L75.8973077,55.64503 Z" id="Path" fill="#FFBC95"></path>
                <path d="M72.4403475,57.672374 C71.4847592,58.2864933 70.5507582,58.9335709 69.6400286,59.6124399 L99,99 L72.4403475,57.672374 Z" id="Path" fill="#FFBC95"></path>
                <path d="M69.1601374,59.9747465 C68.2577852,60.6647117 67.3796348,61.3857659 66.5272697,62.1366089 L99,99 L69.1601374,59.9747465 Z" id="Path" fill="#FFBC95"></path>
                <path d="M66.0785066,62.5368256 C65.2353955,63.2980451 64.4189396,64.0882775 63.6306115,64.9060978 L99,99 L66.0785066,62.5368256 Z" id="Path" fill="#FFBC95"></path>
                <path d="M63.2159629,65.3415612 C62.4377036,66.1689691 61.6883758,67.0231208 60.9693306,67.902476 L99,99 L63.2159629,65.3415612 Z" id="Path" fill="#FFBC95"></path>
                <path d="M60.5915561,68.3702881 C59.8833279,69.2583783 59.2061146,70.170765 58.5611376,71.105803 L99,99 L60.5915561,68.3702881 Z" id="Path" fill="#FFBC95"></path>
                <path d="M58.2227512,71.6028507 C57.5892671,72.545713 56.9886752,73.510263 56.4220586,74.4947614 L99,99 L58.2227512,71.6028507 Z" id="Path" fill="#FFBC95"></path>
                <path d="M56.1253121,75.0177368 C55.5707879,76.0090966 55.0508142,77.019391 54.5663288,78.046798 L99,99 L56.1253121,75.0177368 Z" id="Path" fill="#FFBC95"></path>
                <path d="M54.313197,78.5922209 C53.8413229,79.6254809 53.4054278,80.6747963 53.0062977,81.7382748 L99,99 L54.313197,78.5922209 Z" id="Path" fill="#FFBC95"></path>
                <path d="M52.7984652,82.3025154 C52.4123815,83.3707994 52.0634658,84.4521528 51.7523471,85.5446255 L99,99 L52.7984652,82.3025154 Z" id="Path" fill="#FFBC95"></path>
                <path d="M51.591197,86.1239289 C51.2934731,87.2201277 51.0338586,88.3263228 50.8128218,89.4405195 L99,99 L51.591197,86.1239289 Z" id="Path" fill="#FFBC95"></path>
                <path d="M50.6994265,90.0310305 C50.4920436,91.1478491 50.3234582,92.2715244 50.1939742,93.4000302 L99,99 L50.6994265,90.0310305 Z" id="Path" fill="#FFBC95"></path>
                <path d="M50.1290884,93.9978191 C50.0134267,95.1278252 49.9369922,96.2615029 49.8999227,97.3968079 L99,99 L50.1290884,93.9978191 Z" id="Path" fill="#FFBC95"></path>
                <path d="M49.8839782,97.9978965 C49.8608073,99.1335701 49.8770323,100.269706 49.9326241,101.404254 L99,99 L49.8839782,97.9978965 Z" id="Path" fill="#FFBC95"></path>
                <path d="M49.9657269,102.004643 C50.0352011,103.138426 50.1439778,104.269459 50.2918609,105.395701 L99,99 L49.9657269,102.004643 Z" id="Path" fill="#FFBC95"></path>
                <path d="M50.3737907,105.991393 C50.5354475,107.115741 50.736052,108.234144 50.9752422,109.344586 L99,99 L50.3737907,105.991393 Z" id="Path" fill="#FFBC95"></path>
                <path d="M51.1054539,109.931618 C51.3582176,111.039048 51.6493148,112.137378 51.9782204,113.224628 L99,99 L51.1054539,109.931618 Z" id="Path" fill="#FFBC95"></path>
                <path d="M52.1558473,113.799094 C52.4980359,114.882237 52.8776886,115.953185 53.2941207,117.010009 L99,99 L52.1558473,113.799094 Z" id="Path" fill="#FFBC95"></path>
                <path d="M53.5179809,117.568084 C53.9473171,118.619731 54.4129987,119.656172 54.9141862,120.675535 L99,99 L53.5179809,117.568084 Z" id="Path" fill="#FFBC95"></path>
                <path d="M55.1827898,121.213507 C55.6964164,122.22666 56.245028,123.221694 56.8276354,124.196815 L99,99 L55.1827898,121.213507 Z" id="Path" fill="#FFBC95"></path>
                <path d="M57.139195,124.711103 C57.7336939,125.67902 58.3615846,126.626026 59.0217348,127.550414 L99,99 L57.139195,124.711103 Z" id="Path" fill="#FFBC95"></path>
                <path d="M59.374177,128.037596 C60.0455919,128.953834 60.7485832,129.846511 61.481883,130.714014 L99,99 L59.374177,128.037596 Z" id="Path" fill="#FFBC95"></path>
                <path d="M61.8728623,131.170848 C62.6167251,132.029311 63.3901386,132.861717 64.191708,133.666563 L99,99 L61.8728623,131.170848 Z" id="Path" fill="#FFBC95"></path>
                <path d="M64.6186225,134.090009 C65.429983,134.884984 66.2686717,135.651579 67.1331765,136.388412 L99,99 L64.6186225,134.090009 Z" id="Path" fill="#FFBC95"></path>
                <path d="M67.5931852,136.775651 C68.4666437,137.501847 69.3650265,138.197531 70.2867134,138.861447 L99,99 L67.5931852,136.775651 Z" id="Path" fill="#FFBC95"></path>
                <path d="M70.776755,139.209902 C71.706499,139.862488 72.6585971,140.48263 73.6313325,141.069211 L99,99 L70.776755,139.209902 Z" id="Path" fill="#FFBC95"></path>
                <path d="M74.1481459,141.376564 C75.1279879,141.951195 76.1274654,142.491669 77.1447759,142.997011 L99,99 L74.1481459,141.376564 Z" id="Path" fill="#FFBC95"></path>
                <path d="M77.6849217,143.261216 C78.7083412,143.754069 79.7485467,144.211278 80.8036622,144.632018 L99,99 L77.6849217,143.261216 Z" id="Path" fill="#FFBC95"></path>
                <path d="M81.3635459,144.851317 C82.4237321,145.259112 83.4977432,145.630013 84.5836422,145.963352 L99,99 L81.3635459,144.851317 Z" id="Path" fill="#FFBC95"></path>
                <path d="M85.1595378,146.136286 C86.2494354,146.456308 87.3501046,146.738434 88.4595606,146.982152 L99,99 L85.1595378,146.136286 Z" id="Path" fill="#FFBC95"></path>
                <path d="M89.0476356,147.10757 C90.1599915,147.337691 91.2799942,147.529163 92.4056239,147.681639 L99,99 L89.0476356,147.10757 Z" id="Path" fill="#FFBC95"></path>
                <path d="M93.0019648,147.758706 C94.1293765,147.897394 95.2612591,147.996938 96.3955717,148.057158 L99,99 L93.0019648,147.758706 Z" id="Path" fill="#FFBC95"></path>
                <path d="M96.99621,148.085361 C98.1311746,148.131693 99.2674048,148.138647 100.402852,148.10621 L99,99 L96.99621,148.085361 Z" id="Path" fill="#FFBC95"></path>
                <path d="M101.00379,148.085361 C102.138755,148.039029 103.271771,147.953346 104.400796,147.828467 L99,99 L101.00379,148.085361 Z" id="Path" fill="#FFBC95"></path>
                <path d="M104.998035,147.758706 C106.125447,147.620018 107.247709,147.442269 108.362798,147.22578 L99,99 L104.998035,147.758706 Z" id="Path" fill="#FFBC95"></path>
                <path d="M108.952364,147.10757 C110.06472,146.877448 111.16876,146.608816 112.262493,146.302157 L99,99 L108.952364,147.10757 Z" id="Path" fill="#FFBC95"></path>
                <path d="M112.840462,146.136286 C113.93036,145.816263 115.00883,145.458535 116.073928,145.063747 L99,99 L112.840462,146.136286 Z" id="Path" fill="#FFBC95"></path>
                <path d="M116.636454,144.851317 C117.69664,144.443523 118.742364,143.99908 119.771739,143.51879 L99,99 L116.636454,144.851317 Z" id="Path" fill="#FFBC95"></path>
                <path d="M120.315078,143.261216 C121.338498,142.768363 122.344516,142.240163 123.331318,141.677568 L99,99 L120.315078,143.261216 Z" id="Path" fill="#FFBC95"></path>
                <path d="M123.851854,141.376564 C124.831696,140.801933 125.791313,140.19349 126.728975,139.552334 L99,99 L123.851854,141.376564 Z" id="Path" fill="#FFBC95"></path>
                <path d="M127.223245,139.209902 C128.152989,138.557317 129.059819,137.872681 129.942101,137.15723 L99,99 L127.223245,139.209902 Z" id="Path" fill="#FFBC95"></path>
                <path d="M130.406815,136.775651 C131.280273,136.049454 132.128282,135.293182 132.949312,134.508197 L99,99 L130.406815,136.775651 Z" id="Path" fill="#FFBC95"></path>
                <path d="M133.381377,134.090009 C134.192738,133.295033 134.976282,132.472156 135.730596,131.622862 L99,99 L133.381377,134.090009 Z" id="Path" fill="#FFBC95"></path>
                <path d="M136.127138,131.170848 C136.871001,130.312384 137.584865,129.42838 138.267444,128.520427 L99,99 L136.127138,131.170848 Z" id="Path" fill="#FFBC95"></path>
                <path d="M138.625823,128.037596 C139.297238,127.121357 139.936673,126.182107 140.542974,125.221539 L99,99 L138.625823,128.037596 Z" id="Path" fill="#FFBC95"></path>
                <path d="M140.860805,124.711103 C141.455304,123.743187 142.016053,122.754942 142.542042,121.748151 L99,99 L140.860805,124.711103 Z" id="Path" fill="#FFBC95"></path>
                <path d="M142.81721,121.213507 C143.330837,120.200354 143.809169,119.169692 144.251345,118.123378 L99,99 L142.81721,121.213507 Z" id="Path" fill="#FFBC95"></path>
                <path d="M144.482019,117.568084 C144.911355,116.516437 145.304088,115.450215 145.659508,114.371342 L99,99 L144.482019,117.568084 Z" id="Path" fill="#FFBC95"></path>
                <path d="M145.844153,113.799094 C146.186341,112.715951 146.49086,111.621266 146.757159,110.517012 L99,99 L145.844153,113.799094 Z" id="Path" fill="#FFBC95"></path>
                <path d="M146.894546,109.931618 C147.14731,108.824187 147.361588,107.708323 147.536995,106.586038 L99,99 L146.894546,109.931618 Z" id="Path" fill="#FFBC95"></path>
                <path d="M147.626209,105.991393 C147.787866,104.867045 147.910478,103.737429 147.993824,102.604581 L99,99 L147.626209,105.991393 Z" id="Path" fill="#FFBC95"></path>
                <path d="M148.034273,102.004643 C148.103747,100.870859 148.133877,99.7350074 148.124608,98.5991352 L99,99 L148.034273,102.004643 Z" id="Path" fill="#FFBC95"></path>
                <path d="M148.116022,97.9978965 C148.092851,96.8622229 148.030298,95.7276946 147.928476,94.5963575 L99,99 L148.116022,97.9978965 Z" id="Path" fill="#FFBC95"></path>
                <path d="M147.870912,93.9978191 C147.75525,92.8678131 147.60043,91.7421584 147.406733,90.6228852 L99,99 L147.870912,93.9978191 Z" id="Path" fill="#FFBC95"></path>
                <path d="M147.300573,90.0310305 C147.093191,88.9142119 146.847135,87.804922 146.562851,86.7051613 L99,99 L147.300573,90.0310305 Z" id="Path" fill="#FFBC95"></path>
                <path d="M146.408803,86.1239289 C146.111079,85.02773 145.775425,83.942187 145.402446,82.8692575 L99,99 L146.408803,86.1239289 Z" id="Path" fill="#FFBC95"></path>
                <path d="M145.201535,82.3025154 C144.815451,81.2342313 144.392432,80.1796593 143.93324,79.1407011 L99,99 L145.201535,82.3025154 Z" id="Path" fill="#FFBC95"></path>
                <path d="M143.686803,78.5922209 C143.214929,77.5589608 142.70736,76.5423778 142.165011,75.5443051 L99,99 L143.686803,78.5922209 Z" id="Path" fill="#FFBC95"></path>
                <path d="M141.874688,75.0177368 C141.320164,74.0263769 140.731423,73.0545481 140.109526,72.1040028 L99,99 L141.874688,75.0177368 Z" id="Path" fill="#FFBC95"></path>
                <path d="M139.777249,71.6028507 C139.143765,70.6599884 138.47777,69.7393811 137.780464,68.842689 L99,99 L139.777249,71.6028507 Z" id="Path" fill="#FFBC95"></path>
                <path d="M137.408444,68.3702881 C136.700216,67.4821979 135.961398,66.6189387 135.193325,65.7820671 L99,99 L137.408444,68.3702881 Z" id="Path" fill="#FFBC95"></path>
                <path d="M134.784037,65.3415612 C134.005778,64.5141533 133.199055,63.7139869 132.365324,62.9425051 L99,99 L134.784037,65.3415612 Z" id="Path" fill="#FFBC95"></path>
                <path d="M131.921493,62.5368256 C131.078382,61.7756062 130.209123,61.0438577 129.315283,60.3428997 L99,99 L131.921493,62.5368256 Z" id="Path" fill="#FFBC95"></path>
                <path d="M128.839863,59.9747465 C127.93751,59.2847813 127.011499,58.6263204 126.063499,58.000551 L99,99 L128.839863,59.9747465 Z" id="Path" fill="#FFBC95"></path>
                <path d="M125.559653,57.672374 C124.604064,57.0582547 123.627464,56.4774632 122.631612,55.9310469 L99,99 L125.559653,57.672374 Z" id="Path" fill="#FFBC95"></path>
                <path d="M122.102692,55.64503 C121.100227,55.1108435 120.079536,54.6115865 119.04246,54.1481595 L99,99 L122.102692,55.64503 Z" id="Path" fill="#FFBC95"></path>
                <path d="M118.491987,53.9062062 C117.449317,53.4555073 116.391328,53.0411074 115.319929,52.6637537 L99,99 L118.491987,53.9062062 Z" id="Path" fill="#FFBC95"></path>
                <path d="M114.751567,52.4674742 C113.675629,52.1032623 112.587384,51.7764771 111.488792,51.487708 L99,99 L114.751567,52.4674742 Z" id="Path" fill="#FFBC95"></path>
                <path d="M110.906322,51.3384084 C109.804278,51.0631073 108.693017,50.8261116 107.574544,50.6278488 L99,99 L110.906322,51.3384084 Z" id="Path" fill="#FFBC95"></path>
                <path d="M106.981842,50.5265226 C105.861026,50.3419644 104.734145,50.1963354 103.603233,50.0898982 L99,99 L106.981842,50.5265226 Z" id="Path" fill="#FFBC95"></path>
                <path d="M103.004245,50.0372199 C101.872115,49.9446327 100.737114,49.8913395 99.6012888,49.8774363 L99,99 L103.004245,50.0372199 Z" id="Path" fill="#FFBC95"></path>
                <circle id="Oval" fill="#111C27" cx="99" cy="99" r="34.6482323"></circle>
            </g>
        </g>
    </g>
</svg>