<?xml version="1.0" encoding="UTF-8"?>
<svg width="198px" height="198px" viewBox="0 0 198 198" version="1.1" xmlns="http://www.w3.org/2000/svg" xmlns:xlink="http://www.w3.org/1999/xlink">
    <!-- Generator: Sketch 55.1 (78136) - https://sketchapp.com -->
    <title>undraw_docusaurus_mountain</title>
    <desc>Created with Sketch.</desc>
    <g id="Drip" stroke="none" stroke-width="1" fill="none" fill-rule="evenodd">
        <g id="Artboard-Copy-4" transform="translate(-890.000000, -1659.000000)" fill-rule="nonzero">
            <g id="undraw_docusaurus_mountain" transform="translate(890.000000, 1659.000000)">
                <circle id="Oval" fill="#282D48" cx="99" cy="99" r="98.9949494"></circle>
                <path d="M99,6.43972234 C97.1997643,6.43972234 95.3999117,6.49224242 93.6027391,6.59721555 L99,99 L99,6.43972234 Z" id="Path" fill="#87738C"></path>
                <path d="M90.8512806,8.46031162 C89.0903439,8.61879879 87.3344058,8.82862579 85.5857069,9.08952485 L99,99 L90.8512806,8.46031162 Z" id="Path" fill="#87738C"></path>
                <path d="M83.0636154,11.1832827 C81.3556387,11.4932347 79.6570681,11.8529493 77.9700712,12.2619674 L99,99 L83.0636154,11.1832827 Z" id="Path" fill="#87738C"></path>
                <path d="M75.6961332,14.5603352 C74.053838,15.0135799 72.4251153,15.5146404 70.8120435,16.0628774 L99,99 L75.6961332,14.5603352 Z" id="Path" fill="#87738C"></path>
                <path d="M68.8022298,18.5383291 C67.2373039,19.1256557 65.6898458,19.7585123 64.1618301,20.4360915 L99,99 L68.8022298,18.5383291 Z" id="Path" fill="#87738C"></path>
                <path d="M62.4291856,23.0599214 C60.9522017,23.7711994 59.4962829,24.5254155 58.0632872,25.3216073 L99,99 L62.4291856,23.0599214 Z" id="Path" fill="#87738C"></path>
                <path d="M56.6178513,28.0642314 C55.2381978,28.888536 53.8828863,29.7529151 52.5536462,30.6562657 L99,99 L56.6178513,28.0642314 Z" id="Path" fill="#87738C"></path>
                <path d="M51.4024031,33.4875281 C50.1282292,34.4132697 48.881334,35.375987 47.6633088,36.3744514 L99,99 L51.4024031,33.4875281 Z" id="Path" fill="#87738C"></path>
                <path d="M46.8101694,39.2639323 C45.6483427,40.2789898 44.5163765,41.3277263 43.4157154,42.4088036 L99,99 L46.8101694,39.2639323 Z" id="Path" fill="#87738C"></path>
                <path d="M42.8615284,45.3261254 C41.8176073,46.4179813 40.8057622,47.5400602 39.8272843,48.6909301 L99,99 L42.8615284,45.3261254 Z" id="Path" fill="#87738C"></path>
                <path d="M39.5698781,51.6060593 C38.6480976,52.7619356 37.7602347,53.9444579 36.9074226,55.1521172 L99,99 L39.5698781,51.6060593 Z" id="Path" fill="#87738C"></path>
                <path d="M36.9416761,58.035659 C36.1449469,59.2426521 35.3836002,60.472632 34.6586074,61.7240293 L99,99 L36.9416761,58.035659 Z" id="Path" fill="#87738C"></path>
                <path d="M34.9765491,64.5475119 C34.3064711,65.7927254 33.6728637,67.0572227 33.0765352,68.3393902 L99,99 L34.9765491,64.5475119 Z" id="Path" fill="#87738C"></path>
                <path d="M33.6674696,71.0755364 C33.1243574,72.3462106 32.6184314,73.6324591 32.1503373,74.9326405 L99,99 L33.6674696,71.0755364 Z" id="Path" fill="#87738C"></path>
                <path d="M33.000996,77.5556237 C32.5839172,78.8392603 32.2043759,80.1347917 31.8628566,81.4405644 L99,99 L33.000996,77.5556237 Z" id="Path" fill="#87738C"></path>
                <path d="M32.9575744,83.9262473 C32.6643999,85.2107285 32.4087613,86.5034894 32.1909848,87.8028802 L99,99 L32.9575744,83.9262473 Z" id="Path" fill="#87738C"></path>
                <path d="M33.5118961,90.1290336 C33.3393617,91.4027336 33.204023,92.681196 33.1060526,93.9627894 L99,99 L33.5118961,90.1290336 Z" id="Path" fill="#87738C"></path>
                <path d="M34.6333084,96.1092885 C34.577086,97.3611778 34.5573982,98.6144409 34.57427,99.8674784 L99,99 L34.6333084,96.1092885 Z" id="Path" fill="#87738C"></path>
                <path d="M36.2862722,101.816477 C36.3410508,103.036217 36.4314024,104.2541 36.5572118,105.46857 L99,99 L36.2862722,101.816477 Z" id="Path" fill="#87738C"></path>
                <path d="M38.4308613,107.204647 C38.5904362,108.382677 38.784345,109.5558 39.0123402,110.72252 L99,99 L38.4308613,107.204647 Z" id="Path" fill="#87738C"></path>
                <path d="M41.0232986,112.232804 C41.2806678,113.360412 41.5708791,114.480272 41.8935621,115.590954 L99,99 L41.0232986,112.232804 Z" id="Path" fill="#87738C"></path>
                <path d="M44.0165217,116.865215 C44.3639882,117.934607 44.7425792,118.993635 45.1518116,120.040946 L99,99 L44.0165217,116.865215 Z" id="Path" fill="#87738C"></path>
                <path d="M47.3607726,121.071665 C47.7900518,122.076014 48.2485405,123.067625 48.7356536,124.045233 L99,99 L47.3607726,121.071665 Z" id="Path" fill="#87738C"></path>
                <path d="M51.0042054,124.827638 C51.5065358,125.761125 52.0359928,126.679757 52.5919007,127.582364 L99,99 L51.0042054,124.827638 Z" id="Path" fill="#87738C"></path>
                <path d="M54.8935039,128.114443 C55.4597604,128.972285 56.0509231,129.813425 56.6662376,130.636788 L99,99 L54.8935039,128.114443 Z" id="Path" fill="#87738C"></path>
                <path d="M58.974504,130.919268 C59.5953125,131.697737 60.2386999,132.457929 60.9038452,133.198874 L99,99 L58.974504,130.919268 Z" id="Path" fill="#87738C"></path>
                <path d="M63.1928139,133.235175 C63.8586653,133.931601 64.5446925,134.608453 65.25002,135.264868 L99,99 L63.1928139,133.235175 Z" id="Path" fill="#87738C"></path>
                <path d="M67.4944257,135.061031 C68.1957887,135.673794 68.9148792,136.265964 69.6507795,136.836787 L99,99 L67.4944257,135.061031 Z" id="Path" fill="#87738C"></path>
                <path d="M71.8263108,136.401375 C72.5537426,136.929885 73.2964384,137.43706 74.0534503,137.922254 L99,99 L71.8263108,136.401375 Z" id="Path" fill="#87738C"></path>
                <path d="M76.1369959,137.266223 C76.8812485,137.710893 77.6383154,138.133756 78.4072307,138.534272 L99,99 L76.1369959,137.266223 Z" id="Path" fill="#87738C"></path>
                <path d="M80.3771105,137.670829 C81.1292323,138.033031 81.891761,138.373215 82.6637234,138.690944 L99,99 L80.3771105,137.670829 Z" id="Path" fill="#87738C"></path>
                <path d="M84.4999024,137.635372 C85.2513346,137.917389 86.0108345,138.177424 86.7774328,138.415145 L99,99 L84.4999024,137.635372 Z" id="Path" fill="#87738C"></path>
                <path d="M88.461716,137.184614 C89.2043814,137.389577 89.9528682,137.572829 90.7062214,137.734138 L99,99 L88.461716,137.184614 Z" id="Path" fill="#87738C"></path>
                <path d="M92.2224281,136.3475 C92.9488121,136.479319 93.6788872,136.589918 94.4117217,136.679157 L99,99 L92.2224281,136.3475 Z" id="Path" fill="#87738C"></path>
                <path d="M95.7458365,135.156717 C96.4490606,135.220009 97.1539815,135.262771 97.8596995,135.284949 L99,99 L95.7458365,135.156717 Z" id="Path" fill="#87738C"></path>
                <path d="M99,191.560278 C100.800236,191.560278 102.600088,191.507758 104.397261,191.402784 L99,99 L99,191.560278 Z" id="Path" fill="#87738C"></path>
                <path d="M107.148719,189.539688 C108.909656,189.381201 110.665594,189.171374 112.414293,188.910475 L99,99 L107.148719,189.539688 Z" id="Path" fill="#87738C"></path>
                <path d="M114.936385,186.816717 C116.644361,186.506765 118.342932,186.147051 120.029929,185.738033 L99,99 L114.936385,186.816717 Z" id="Path" fill="#87738C"></path>
                <path d="M122.303867,183.439665 C123.946162,182.98642 125.574885,182.48536 127.187957,181.937123 L99,99 L122.303867,183.439665 Z" id="Path" fill="#87738C"></path>
                <path d="M129.19777,179.461671 C130.762696,178.874344 132.310154,178.241488 133.83817,177.563908 L99,99 L129.19777,179.461671 Z" id="Path" fill="#87738C"></path>
                <path d="M135.570814,174.940079 C137.047798,174.228801 138.503717,173.474584 139.936713,172.678393 L99,99 L135.570814,174.940079 Z" id="Path" fill="#87738C"></path>
                <path d="M141.382149,169.935769 C142.761802,169.111464 144.117114,168.247085 145.446354,167.343734 L99,99 L141.382149,169.935769 Z" id="Path" fill="#87738C"></path>
                <path d="M146.597597,164.512472 C147.871771,163.58673 149.118666,162.624013 150.336691,161.625549 L99,99 L146.597597,164.512472 Z" id="Path" fill="#87738C"></path>
                <path d="M151.189831,158.736068 C152.351657,157.72101 153.483624,156.672274 154.584285,155.591196 L99,99 L151.189831,158.736068 Z" id="Path" fill="#87738C"></path>
                <path d="M155.138472,152.673875 C156.182393,151.582019 157.194238,150.45994 158.172716,149.30907 L99,99 L155.138472,152.673875 Z" id="Path" fill="#87738C"></path>
                <path d="M158.430122,146.393941 C159.351902,145.238064 160.239765,144.055542 161.092577,142.847883 L99,99 L158.430122,146.393941 Z" id="Path" fill="#87738C"></path>
                <path d="M161.058324,139.964341 C161.855053,138.757348 162.6164,137.527368 163.341393,136.275971 L99,99 L161.058324,139.964341 Z" id="Path" fill="#87738C"></path>
                <path d="M163.023451,133.452488 C163.693529,132.207275 164.327136,130.942777 164.923465,129.66061 L99,99 L163.023451,133.452488 Z" id="Path" fill="#87738C"></path>
                <path d="M164.33253,126.924464 C164.875643,125.653789 165.381569,124.367541 165.849663,123.06736 L99,99 L164.33253,126.924464 Z" id="Path" fill="#87738C"></path>
                <path d="M164.999004,120.444376 C165.416083,119.16074 165.795624,117.865208 166.137143,116.559436 L99,99 L164.999004,120.444376 Z" id="Path" fill="#87738C"></path>
                <path d="M165.042426,114.073753 C165.3356,112.789271 165.591239,111.496511 165.809015,110.19712 L99,99 L165.042426,114.073753 Z" id="Path" fill="#87738C"></path>
                <path d="M164.488104,107.870966 C164.660638,106.597266 164.795977,105.318804 164.893947,104.037211 L99,99 L164.488104,107.870966 Z" id="Path" fill="#87738C"></path>
                <path d="M163.366692,101.890711 C163.422914,100.638822 163.442602,99.3855591 163.42573,98.1325216 L99,99 L163.366692,101.890711 Z" id="Path" fill="#87738C"></path>
                <path d="M161.713728,96.1835232 C161.658949,94.963783 161.568598,93.7459005 161.442788,92.5314298 L99,99 L161.713728,96.1835232 Z" id="Path" fill="#87738C"></path>
                <path d="M159.569139,90.7953527 C159.409564,89.6173233 159.215655,88.4442 158.98766,87.27748 L99,99 L159.569139,90.7953527 Z" id="Path" fill="#87738C"></path>
                <path d="M156.976701,85.7671962 C156.719332,84.639588 156.429121,83.5197283 156.106438,82.4090461 L99,99 L156.976701,85.7671962 Z" id="Path" fill="#87738C"></path>
                <path d="M153.983478,81.1347849 C153.636012,80.0653929 153.257421,79.0063655 152.848188,77.9590541 L99,99 L153.983478,81.1347849 Z" id="Path" fill="#87738C"></path>
                <path d="M150.639227,76.928335 C150.209948,75.9239864 149.75146,74.9323754 149.264346,73.9547673 L99,99 L150.639227,76.928335 Z" id="Path" fill="#87738C"></path>
                <path d="M146.995795,73.1723616 C146.493464,72.2388754 145.964007,71.3202428 145.408099,70.4176362 L99,99 L146.995795,73.1723616 Z" id="Path" fill="#87738C"></path>
                <path d="M143.106496,69.8855568 C142.54024,69.0277149 141.949077,68.1865754 141.333762,67.363212 L99,99 L143.106496,69.8855568 Z" id="Path" fill="#87738C"></path>
                <path d="M139.025496,67.080732 C138.404688,66.3022628 137.7613,65.5420707 137.096155,64.8011259 L99,99 L139.025496,67.080732 Z" id="Path" fill="#87738C"></path>
                <path d="M134.807186,64.7648247 C134.141335,64.0683988 133.455308,63.3915467 132.74998,62.735132 L99,99 L134.807186,64.7648247 Z" id="Path" fill="#87738C"></path>
                <path d="M130.505574,62.9389686 C129.804211,62.3262062 129.085121,61.7340357 128.34922,61.1632129 L99,99 L130.505574,62.9389686 Z" id="Path" fill="#87738C"></path>
                <path d="M126.173689,61.5986255 C125.446257,61.0701153 124.703562,60.5629398 123.94655,60.077746 L99,99 L126.173689,61.5986255 Z" id="Path" fill="#87738C"></path>
                <path d="M121.863004,60.7337767 C121.118752,60.2891065 120.361685,59.8662438 119.592769,59.4657281 L99,99 L121.863004,60.7337767 Z" id="Path" fill="#87738C"></path>
                <path d="M117.62289,60.3291714 C116.870768,59.9669686 116.108239,59.6267853 115.336277,59.3090556 L99,99 L117.62289,60.3291714 Z" id="Path" fill="#87738C"></path>
                <path d="M113.500098,60.364628 C112.748665,60.0826108 111.989165,59.8225758 111.222567,59.584855 L99,99 L113.500098,60.364628 Z" id="Path" fill="#87738C"></path>
                <path d="M109.538284,60.8153857 C108.795619,60.6104231 108.047132,60.4271706 107.293779,60.2658621 L99,99 L109.538284,60.8153857 Z" id="Path" fill="#87738C"></path>
                <path d="M105.777572,61.6525005 C105.051188,61.5206812 104.321113,61.4100816 103.588278,61.3208426 L99,99 L105.777572,61.6525005 Z" id="Path" fill="#87738C"></path>
                <path d="M102.254163,62.8432825 C101.550939,62.7799912 100.846019,62.7372292 100.1403,62.7150511 L99,99 L102.254163,62.8432825 Z" id="Path" fill="#87738C"></path>
                <path d="M99,25.7437375 C97.5752145,25.7437375 96.1507322,25.7853042 94.728371,25.8683845 L99,99 L99,25.7437375 Z" id="Path" fill="#E7A59A"></path>
                <path d="M92.5322392,27.1372915 C91.1345574,27.2630852 89.7408429,27.429628 88.3528744,27.6367075 L99,99 L92.5322392,27.1372915 Z" id="Path" fill="#E7A59A"></path>
                <path d="M86.3135167,29.0917148 C84.9538471,29.3384584 83.6016654,29.6248166 82.2586971,29.9504238 L99,99 L86.3135167,29.0917148 Z" id="Path" fill="#E7A59A"></path>
                <path d="M80.39152,31.5736871 C79.0801232,31.9356096 77.7795641,32.3357138 76.4915026,32.7734891 L99,99 L80.39152,31.5736871 Z" id="Path" fill="#E7A59A"></path>
                <path d="M74.8099811,34.545925 C73.5563922,35.0164048 72.316796,35.5233566 71.0927742,36.0661335 L99,99 L74.8099811,34.545925 Z" id="Path" fill="#E7A59A"></path>
                <path d="M69.6083555,37.9676214 C68.4213164,38.5392693 67.2512072,39.1454262 66.0995211,39.7853186 L99,99 L69.6083555,37.9676214 Z" id="Path" fill="#E7A59A"></path>
                <path d="M64.8215497,41.7949099 C63.7089488,42.459658 62.6159781,43.1567236 61.5440323,43.8852172 L99,99 L64.8215497,41.7949099 Z" id="Path" fill="#E7A59A"></path>
                <path d="M60.4796954,45.9813492 C59.448518,46.7305434 58.439417,47.5096618 57.4536802,48.3177101 L99,99 L60.4796954,45.9813492 Z" id="Path" fill="#E7A59A"></path>
                <path d="M56.607975,50.4784232 C55.6642626,51.3029198 54.744805,52.1547729 53.8507754,53.0328952 L99,99 L56.607975,50.4784232 Z" id="Path" fill="#E7A59A"></path>
                <path d="M53.2264975,55.2360506 C52.3753179,56.1263147 51.5502919,57.0412217 50.7524725,57.9796039 L99,99 L53.2264975,55.2360506 Z" id="Path" fill="#E7A59A"></path>
                <path d="M50.3502258,60.2030997 C49.595652,61.1493054 48.8688433,62.1173237 48.1707273,63.1059192 L99,99 L50.3502258,60.2030997 Z" id="Path" fill="#E7A59A"></path>
                <path d="M47.9889547,65.3279038 C47.3340549,66.3200347 46.7082389,67.3310604 46.1123053,68.3596909 L99,99 L47.9889547,65.3279038 Z" id="Path" fill="#E7A59A"></path>
                <path d="M46.1473399,70.5587708 C45.5941769,71.5867198 45.0711211,72.6305881 44.5788398,73.6890434 L99,99 L46.1473399,70.5587708 Z" id="Path" fill="#E7A59A"></path>
                <path d="M44.8249758,75.8444834 C44.3746164,76.8981515 43.9550926,77.9647342 43.5669397,79.0428703 L99,99 L44.8249758,75.8444834 Z" id="Path" fill="#E7A59A"></path>
                <path d="M44.0165217,81.1347849 C43.6690551,82.2041769 43.352861,83.2834784 43.0683428,84.3713118 L99,99 L44.0165217,81.1347849 Z" id="Path" fill="#E7A59A"></path>
                <path d="M43.7118733,86.3808459 C43.4664392,87.4561631 43.2524286,88.5384118 43.0701146,89.6262108 L99,99 L43.7118733,86.3808459 Z" id="Path" fill="#E7A59A"></path>
                <path d="M43.8963782,91.5357073 C43.7512027,92.607436 43.6373247,93.683172 43.5548895,94.7615425 L99,99 L43.8963782,91.5357073 Z" id="Path" fill="#E7A59A"></path>
                <path d="M44.551091,96.5546967 C44.5035315,97.6136917 44.4868772,98.6738488 44.5011494,99.7338152 L99,99 L44.551091,96.5546967 Z" id="Path" fill="#E7A59A"></path>
                <path d="M45.6530668,101.395814 C45.6996638,102.433376 45.7765207,103.469358 45.8835395,104.502438 L99,99 L45.6530668,101.395814 Z" id="Path" fill="#E7A59A"></path>
                <path d="M47.1756884,106.02008 C47.3122242,107.028028 47.4781369,108.031779 47.6732147,109.030051 L99,99 L47.1756884,106.02008 Z" id="Path" fill="#E7A59A"></path>
                <path d="M49.0890228,110.391855 C49.3105868,111.36259 49.5604239,112.326655 49.8382152,113.282819 L99,99 L49.0890228,110.391855 Z" id="Path" fill="#E7A59A"></path>
                <path d="M51.3602054,114.479108 C51.6612637,115.40567 51.9892895,116.323252 52.3438642,117.230683 L99,99 L51.3602054,114.479108 Z" id="Path" fill="#E7A59A"></path>
                <path d="M53.9538445,118.253651 C54.3283152,119.129769 54.728266,119.994775 55.1531866,120.847566 L99,99 L53.9538445,118.253651 Z" id="Path" fill="#E7A59A"></path>
                <path d="M56.8324441,121.691329 C57.2737754,122.51146 57.7389392,123.318541 58.2273419,124.111542 L99,99 L56.8324441,121.691329 Z" id="Path" fill="#E7A59A"></path>
                <path d="M59.9568399,124.772164 C60.4580914,125.531528 60.9813898,126.276106 61.5260674,127.004949 L99,99 L59.9568399,124.772164 Z" id="Path" fill="#E7A59A"></path>
                <path d="M63.286643,127.480452 C63.8405689,128.175053 64.4146411,128.853346 65.0081271,129.514465 L99,99 L63.286643,127.480452 Z" id="Path" fill="#E7A59A"></path>
                <path d="M66.7806878,129.804817 C67.379821,130.431461 67.9971084,131.040492 68.6317622,131.631134 L99,99 L66.7806878,129.804817 Z" id="Path" fill="#E7A59A"></path>
                <path d="M70.3974792,131.738219 C71.0342157,132.294519 71.6870463,132.832125 72.3551377,133.35035 L99,99 L70.3974792,131.738219 Z" id="Path" fill="#E7A59A"></path>
                <path d="M74.0956339,133.277919 C74.7623166,133.762293 75.4429885,134.227113 76.136781,134.671787 L99,99 L74.0956339,133.277919 Z" id="Path" fill="#E7A59A"></path>
                <path d="M77.8343128,134.425393 C78.5233131,134.837052 79.2241765,135.228522 79.9360086,135.599304 L99,99 L77.8343128,134.425393 Z" id="Path" fill="#E7A59A"></path>
                <path d="M81.5736388,135.186212 C82.2774365,135.525143 82.9909724,135.843469 83.7133359,136.140785 L99,99 L81.5736388,135.186212 Z" id="Path" fill="#E7A59A"></path>
                <path d="M85.2750961,135.569876 C85.9863558,135.836816 86.7052519,136.082949 87.4308668,136.307961 L99,99 L85.2750961,135.569876 Z" id="Path" fill="#E7A59A"></path>
                <path d="M88.9019086,135.589613 C89.6135521,135.786014 90.3307741,135.961612 91.0526591,136.116182 L99,99 L88.9019086,135.589613 Z" id="Path" fill="#E7A59A"></path>
                <path d="M92.4193918,135.26214 C93.1246663,135.390128 93.8335246,135.497514 94.5450621,135.58416 L99,99 L92.4193918,135.26214 Z" id="Path" fill="#E7A59A"></path>
                <path d="M95.7952765,134.607395 C96.4878166,134.669724 97.1820277,134.711837 97.8770239,134.733678 L99,99 L95.7952765,134.607395 Z" id="Path" fill="#E7A59A"></path>
                <path d="M99,172.256263 C100.424786,172.256263 101.849268,172.214696 103.271629,172.131616 L99,99 L99,172.256263 Z" id="Path" fill="#E7A59A"></path>
                <path d="M105.467761,170.862708 C106.865443,170.736915 108.259157,170.570372 109.647126,170.363293 L99,99 L105.467761,170.862708 Z" id="Path" fill="#E7A59A"></path>
                <path d="M111.686483,168.908285 C113.046153,168.661542 114.398335,168.375183 115.741303,168.049576 L99,99 L111.686483,168.908285 Z" id="Path" fill="#E7A59A"></path>
                <path d="M117.60848,166.426313 C118.919877,166.06439 120.220436,165.664286 121.508497,165.226511 L99,99 L117.60848,166.426313 Z" id="Path" fill="#E7A59A"></path>
                <path d="M123.190019,163.454075 C124.443608,162.983595 125.683204,162.476643 126.907226,161.933866 L99,99 L123.190019,163.454075 Z" id="Path" fill="#E7A59A"></path>
                <path d="M128.391644,160.032379 C129.578684,159.460731 130.748793,158.854574 131.900479,158.214681 L99,99 L128.391644,160.032379 Z" id="Path" fill="#E7A59A"></path>
                <path d="M133.17845,156.20509 C134.291051,155.540342 135.384022,154.843276 136.455968,154.114783 L99,99 L133.17845,156.20509 Z" id="Path" fill="#E7A59A"></path>
                <path d="M137.520305,152.018651 C138.551482,151.269457 139.560583,150.490338 140.54632,149.68229 L99,99 L137.520305,152.018651 Z" id="Path" fill="#E7A59A"></path>
                <path d="M141.392025,147.521577 C142.335737,146.69708 143.255195,145.845227 144.149225,144.967105 L99,99 L141.392025,147.521577 Z" id="Path" fill="#E7A59A"></path>
                <path d="M144.773502,142.763949 C145.624682,141.873685 146.449708,140.958778 147.247527,140.020396 L99,99 L144.773502,142.763949 Z" id="Path" fill="#E7A59A"></path>
                <path d="M147.649774,137.7969 C148.404348,136.850695 149.131157,135.882676 149.829273,134.894081 L99,99 L147.649774,137.7969 Z" id="Path" fill="#E7A59A"></path>
                <path d="M150.011045,132.672096 C150.665945,131.679965 151.291761,130.66894 151.887695,129.640309 L99,99 L150.011045,132.672096 Z" id="Path" fill="#E7A59A"></path>
                <path d="M151.85266,127.441229 C152.405823,126.41328 152.928879,125.369412 153.42116,124.310957 L99,99 L151.85266,127.441229 Z" id="Path" fill="#E7A59A"></path>
                <path d="M153.175024,122.155517 C153.625384,121.101848 154.044907,120.035266 154.43306,118.95713 L99,99 L153.175024,122.155517 Z" id="Path" fill="#E7A59A"></path>
                <path d="M153.983478,116.865215 C154.330945,115.795823 154.647139,114.716522 154.931657,113.628688 L99,99 L153.983478,116.865215 Z" id="Path" fill="#E7A59A"></path>
                <path d="M154.288127,111.619154 C154.533561,110.543837 154.747571,109.461588 154.929885,108.373789 L99,99 L154.288127,111.619154 Z" id="Path" fill="#E7A59A"></path>
                <path d="M154.103622,106.464293 C154.248797,105.392564 154.362675,104.316828 154.44511,103.238458 L99,99 L154.103622,106.464293 Z" id="Path" fill="#E7A59A"></path>
                <path d="M153.448909,101.445303 C153.496469,100.386308 153.513123,99.3261512 153.498851,98.2661848 L99,99 L153.448909,101.445303 Z" id="Path" fill="#E7A59A"></path>
                <path d="M152.346933,96.6041865 C152.300336,95.5666242 152.223479,94.5306421 152.116461,93.4975623 L99,99 L152.346933,96.6041865 Z" id="Path" fill="#E7A59A"></path>
                <path d="M150.824312,91.97992 C150.687776,90.9719717 150.521863,89.9682211 150.326785,88.9699494 L99,99 L150.824312,91.97992 Z" id="Path" fill="#E7A59A"></path>
                <path d="M148.910977,87.6081452 C148.689413,86.6374099 148.439576,85.6733451 148.161785,84.7171812 L99,99 L148.910977,87.6081452 Z" id="Path" fill="#E7A59A"></path>
                <path d="M146.639795,83.5208924 C146.338736,82.5943301 146.01071,81.6767481 145.656136,80.7693174 L99,99 L146.639795,83.5208924 Z" id="Path" fill="#E7A59A"></path>
                <path d="M144.046156,79.7463491 C143.671685,78.8702314 143.271734,78.005225 142.846813,77.1524336 L99,99 L144.046156,79.7463491 Z" id="Path" fill="#E7A59A"></path>
                <path d="M141.167556,76.3086706 C140.726225,75.4885397 140.261061,74.6814588 139.772658,73.8884577 L99,99 L141.167556,76.3086706 Z" id="Path" fill="#E7A59A"></path>
                <path d="M138.04316,73.2278357 C137.541909,72.4684722 137.01861,71.7238939 136.473933,70.9950509 L99,99 L138.04316,73.2278357 Z" id="Path" fill="#E7A59A"></path>
                <path d="M134.713357,70.5195482 C134.159431,69.8249472 133.585359,69.1466543 132.991873,68.485535 L99,99 L134.713357,70.5195482 Z" id="Path" fill="#E7A59A"></path>
                <path d="M131.219312,68.1951834 C130.620179,67.5685393 130.002892,66.9595076 129.368238,66.3688656 L99,99 L131.219312,68.1951834 Z" id="Path" fill="#E7A59A"></path>
                <path d="M127.602521,66.2617807 C126.965784,65.7054807 126.312954,65.1678753 125.644862,64.6496505 L99,99 L127.602521,66.2617807 Z" id="Path" fill="#E7A59A"></path>
                <path d="M123.904366,64.7220807 C123.237683,64.2377074 122.557012,63.772887 121.863219,63.3282126 L99,99 L123.904366,64.7220807 Z" id="Path" fill="#E7A59A"></path>
                <path d="M120.165687,63.5746067 C119.476687,63.1629482 118.775823,62.7714782 118.063991,62.4006963 L99,99 L120.165687,63.5746067 Z" id="Path" fill="#E7A59A"></path>
                <path d="M116.426361,62.8137881 C115.722564,62.4748569 115.009028,62.1565306 114.286664,61.8592151 L99,99 L116.426361,62.8137881 Z" id="Path" fill="#E7A59A"></path>
                <path d="M112.724904,62.4301243 C112.013644,62.163184 111.294748,61.9170509 110.569133,61.6920389 L99,99 L112.724904,62.4301243 Z" id="Path" fill="#E7A59A"></path>
                <path d="M109.098091,62.4103874 C108.386448,62.2139863 107.669226,62.0383884 106.947341,61.8838179 L99,99 L109.098091,62.4103874 Z" id="Path" fill="#E7A59A"></path>
                <path d="M105.580608,62.73786 C104.875334,62.6098716 104.166475,62.502486 103.454938,62.4158405 L99,99 L105.580608,62.73786 Z" id="Path" fill="#E7A59A"></path>
                <path d="M102.204724,63.3926054 C101.512183,63.3302757 100.817972,63.2881634 100.122976,63.2663223 L99,99 L102.204724,63.3926054 Z" id="Path" fill="#E7A59A"></path>
                <path d="M99,45.0477526 C97.9506647,45.0477526 96.9015528,45.0783659 95.854003,45.1395534 L99,99 L99,45.0477526 Z" id="Path" fill="#FFBC95"></path>
                <path d="M94.2131978,45.8142714 C93.1787708,45.9073715 92.1472801,46.0306302 91.1200419,46.1838901 L99,99 L94.2131978,45.8142714 Z" id="Path" fill="#FFBC95"></path>
                <path d="M89.563418,47.0001469 C88.5520554,47.1836822 87.5462626,47.3966838 86.5473231,47.6388801 L99,99 L89.563418,47.0001469 Z" id="Path" fill="#FFBC95"></path>
                <path d="M85.0869068,48.587039 C84.1064083,48.8576394 83.134013,49.1567873 82.1709617,49.4841008 L99,99 L85.0869068,48.587039 Z" id="Path" fill="#FFBC95"></path>
                <path d="M80.8177323,50.5535209 C79.8754805,50.9071539 78.9437462,51.2882009 78.0237183,51.6961756 L99,99 L80.8177323,50.5535209 Z" id="Path" fill="#FFBC95"></path>
                <path d="M76.7875255,52.8753214 C75.8904312,53.3073392 75.0061316,53.7654369 74.135755,54.2490299 L99,99 L76.7875255,52.8753214 Z" id="Path" fill="#FFBC95"></path>
                <path d="M73.0252482,55.5255883 C72.1796999,56.0307799 71.3490699,56.5605321 70.5344184,57.1141687 L99,99 L73.0252482,55.5255883 Z" id="Path" fill="#FFBC95"></path>
                <path d="M69.5569877,58.4751702 C68.7688068,59.0478172 67.9975,59.6433367 67.2440516,60.2609687 L99,99 L69.5569877,58.4751702 Z" id="Path" fill="#FFBC95"></path>
                <path d="M66.4057806,61.6929141 C65.6801826,62.3268499 64.9732335,62.9818194 64.2858355,63.6569868 L99,99 L66.4057806,61.6929141 Z" id="Path" fill="#FFBC95"></path>
                <path d="M63.5914666,65.1459757 C62.9330284,65.8346481 62.2948216,66.5423832 61.6776608,67.2682778 L99,99 L63.5914666,65.1459757 Z" id="Path" fill="#FFBC95"></path>
                <path d="M61.1305735,68.8001401 C60.5432063,69.5366752 59.9774519,70.2901894 59.4340321,71.0597212 L99,99 L61.1305735,68.8001401 Z" id="Path" fill="#FFBC95"></path>
                <path d="M59.0362334,72.6201486 C58.5231629,73.3974173 58.0328775,74.1894888 57.5660031,74.9953524 L99,99 L59.0362334,72.6201486 Z" id="Path" fill="#FFBC95"></path>
                <path d="M57.3181307,76.5700297 C56.8818827,77.3807142 56.4693785,78.2039534 56.0811444,79.0386966 L99,99 L57.3181307,76.5700297 Z" id="Path" fill="#FFBC95"></path>
                <path d="M55.982482,80.6134304 C55.6248754,81.4500925 55.2917538,82.2970093 54.9835421,83.1531001 L99,99 L55.982482,80.6134304 Z" id="Path" fill="#FFBC95"></path>
                <path d="M55.0320473,84.7139462 C54.7541931,85.5690936 54.501346,86.4321651 54.2738289,87.3020593 L99,99 L55.0320473,84.7139462 Z" id="Path" fill="#FFBC95"></path>
                <path d="M54.4661723,88.8354444 C54.2684785,89.7015977 54.0960959,90.5733342 53.9492445,91.4495414 L99,99 L54.4661723,88.8354444 Z" id="Path" fill="#FFBC95"></path>
                <path d="M54.2808603,92.9423809 C54.1630437,93.8121384 54.0706264,94.685148 54.0037265,95.5602955 L99,99 L54.2808603,92.9423809 Z" id="Path" fill="#FFBC95"></path>
                <path d="M54.4688736,97.0001048 C54.429977,97.8662056 54.4163562,98.7332567 54.4280288,99.6001519 L99,99 L54.4688736,97.0001048 Z" id="Path" fill="#FFBC95"></path>
                <path d="M55.0198615,100.97515 C55.0582769,101.830535 55.121639,102.684616 55.2098672,103.536305 L99,99 L55.0198615,100.97515 Z" id="Path" fill="#FFBC95"></path>
                <path d="M55.9205154,104.835513 C56.0340123,105.67338 56.1719289,106.507758 56.3340893,107.337581 L99,99 L55.9205154,104.835513 Z" id="Path" fill="#FFBC95"></path>
                <path d="M57.154747,108.550906 C57.3405058,109.364768 57.5499686,110.173038 57.7828683,110.974684 L99,99 L57.154747,108.550906 Z" id="Path" fill="#FFBC95"></path>
                <path d="M58.7038892,112.093 C58.9585393,112.876733 59.2359998,113.652869 59.5359167,114.420419 L99,99 L58.7038892,112.093 Z" id="Path" fill="#FFBC95"></path>
                <path d="M60.5469163,115.435637 C60.8665785,116.183524 61.2079915,116.921925 61.5707196,117.6499 L99,99 L60.5469163,115.435637 Z" id="Path" fill="#FFBC95"></path>
                <path d="M62.6606828,118.55502 C63.0410149,119.261796 63.4418856,119.957325 63.8627832,120.640721 L99,99 L62.6606828,118.55502 Z" id="Path" fill="#FFBC95"></path>
                <path d="M65.020176,121.429885 C65.4564223,122.09077 65.9118565,122.738788 66.3858972,123.37311 L99,99 L65.020176,121.429885 Z" id="Path" fill="#FFBC95"></path>
                <path d="M67.5987821,124.041636 C68.0858252,124.652368 68.5905822,125.248762 69.112409,125.830056 L99,99 L67.5987821,124.041636 Z" id="Path" fill="#FFBC95"></path>
                <path d="M70.3685618,126.374458 C70.9009767,126.93132 71.4495243,127.472531 72.0135044,127.997401 L99,99 L70.3685618,126.374458 Z" id="Path" fill="#FFBC95"></path>
                <path d="M73.3005327,128.415407 C73.8726428,128.915245 74.4592133,129.398285 75.0594959,129.863912 L99,99 L73.3005327,128.415407 Z" id="Path" fill="#FFBC95"></path>
                <path d="M76.364957,130.154464 C76.9708905,130.594701 77.5895386,131.017166 78.2201117,131.421321 L99,99 L76.364957,130.154464 Z" id="Path" fill="#FFBC95"></path>
                <path d="M79.5316298,131.584563 C80.1653778,131.96321 80.8100376,132.323287 81.4647865,132.664336 L99,99 L79.5316298,131.584563 Z" id="Path" fill="#FFBC95"></path>
                <path d="M82.7701671,132.701595 C83.4256407,133.017255 84.0901838,133.313724 84.7629484,133.590625 L99,99 L82.7701671,132.701595 Z" id="Path" fill="#FFBC95"></path>
                <path d="M86.0502898,133.50438 C86.721377,133.756243 87.3996692,133.988474 88.0843009,134.200777 L99,99 L86.0502898,133.50438 Z" id="Path" fill="#FFBC95"></path>
                <path d="M89.3421011,133.994611 C90.0227229,134.182451 90.70868,134.350394 91.3990968,134.498226 L99,99 L89.3421011,133.994611 Z" id="Path" fill="#FFBC95"></path>
                <path d="M92.6163555,134.17678 C93.3005205,134.300938 93.988162,134.405109 94.6784025,134.489162 L99,99 L92.6163555,134.17678 Z" id="Path" fill="#FFBC95"></path>
                <path d="M95.8447164,134.058072 C96.5265726,134.11944 97.210074,134.160902 97.8943483,134.182407 L99,99 L95.8447164,134.058072 Z" id="Path" fill="#FFBC95"></path>
                <path d="M99,152.952247 C100.049335,152.952247 101.098447,152.921634 102.145997,152.860447 L99,99 L99,152.952247 Z" id="Path" fill="#FFBC95"></path>
                <path d="M103.786802,152.185729 C104.821229,152.092628 105.85272,151.96937 106.879958,151.81611 L99,99 L103.786802,152.185729 Z" id="Path" fill="#FFBC95"></path>
                <path d="M108.436582,150.999853 C109.447945,150.816318 110.453737,150.603316 111.452677,150.36112 L99,99 L108.436582,150.999853 Z" id="Path" fill="#FFBC95"></path>
                <path d="M112.913093,149.412961 C113.893592,149.142361 114.865987,148.843213 115.829038,148.515899 L99,99 L112.913093,149.412961 Z" id="Path" fill="#FFBC95"></path>
                <path d="M117.182268,147.446479 C118.124519,147.092846 119.056254,146.711799 119.976282,146.303824 L99,99 L117.182268,147.446479 Z" id="Path" fill="#FFBC95"></path>
                <path d="M121.212475,145.124679 C122.109569,144.692661 122.993868,144.234563 123.864245,143.75097 L99,99 L121.212475,145.124679 Z" id="Path" fill="#FFBC95"></path>
                <path d="M124.974752,142.474412 C125.8203,141.96922 126.65093,141.439468 127.465582,140.885831 L99,99 L124.974752,142.474412 Z" id="Path" fill="#FFBC95"></path>
                <path d="M128.443012,139.52483 C129.231193,138.952183 130.0025,138.356663 130.755948,137.739031 L99,99 L128.443012,139.52483 Z" id="Path" fill="#FFBC95"></path>
                <path d="M131.594219,136.307086 C132.319817,135.67315 133.026766,135.018181 133.714165,134.343013 L99,99 L131.594219,136.307086 Z" id="Path" fill="#FFBC95"></path>
                <path d="M134.408533,132.854024 C135.066972,132.165352 135.705178,131.457617 136.322339,130.731722 L99,99 L134.408533,132.854024 Z" id="Path" fill="#FFBC95"></path>
                <path d="M136.869426,129.19986 C137.456794,128.463325 138.022548,127.709811 138.565968,126.940279 L99,99 L136.869426,129.19986 Z" id="Path" fill="#FFBC95"></path>
                <path d="M138.963767,125.379851 C139.476837,124.602583 139.967122,123.810511 140.433997,123.004648 L99,99 L138.963767,125.379851 Z" id="Path" fill="#FFBC95"></path>
                <path d="M140.681869,121.42997 C141.118117,120.619286 141.530622,119.796047 141.918856,118.961303 L99,99 L140.681869,121.42997 Z" id="Path" fill="#FFBC95"></path>
                <path d="M142.017518,117.38657 C142.375125,116.549908 142.708246,115.702991 143.016458,114.8469 L99,99 L142.017518,117.38657 Z" id="Path" fill="#FFBC95"></path>
                <path d="M142.967953,113.286054 C143.245807,112.430906 143.498654,111.567835 143.726171,110.697941 L99,99 L142.967953,113.286054 Z" id="Path" fill="#FFBC95"></path>
                <path d="M143.533828,109.164556 C143.731522,108.298402 143.903904,107.426666 144.050756,106.550459 L99,99 L143.533828,109.164556 Z" id="Path" fill="#FFBC95"></path>
                <path d="M143.71914,105.057619 C143.836956,104.187862 143.929374,103.314852 143.996274,102.439704 L99,99 L143.71914,105.057619 Z" id="Path" fill="#FFBC95"></path>
                <path d="M143.531126,100.999895 C143.570023,100.133794 143.583644,99.2667433 143.571971,98.3998481 L99,99 L143.531126,100.999895 Z" id="Path" fill="#FFBC95"></path>
                <path d="M142.980138,97.0248497 C142.941723,96.1694653 142.878361,95.3153837 142.790133,94.4636948 L99,99 L142.980138,97.0248497 Z" id="Path" fill="#FFBC95"></path>
                <path d="M142.079485,93.1644873 C141.965988,92.32662 141.828071,91.4922422 141.665911,90.6624187 L99,99 L142.079485,93.1644873 Z" id="Path" fill="#FFBC95"></path>
                <path d="M140.845253,89.4490941 C140.659494,88.6352318 140.450031,87.826962 140.217132,87.0253163 L99,99 L140.845253,89.4490941 Z" id="Path" fill="#FFBC95"></path>
                <path d="M139.296111,85.9069999 C139.041461,85.1232674 138.764,84.3471308 138.464083,83.5795807 L99,99 L139.296111,85.9069999 Z" id="Path" fill="#FFBC95"></path>
                <path d="M137.453084,82.5643633 C137.133422,81.8164764 136.792009,81.0780745 136.42928,80.3501 L99,99 L137.453084,82.5643633 Z" id="Path" fill="#FFBC95"></path>
                <path d="M135.339317,79.4449795 C134.958985,78.738204 134.558114,78.0426748 134.137217,77.3592793 L99,99 L135.339317,79.4449795 Z" id="Path" fill="#FFBC95"></path>
                <path d="M132.979824,76.5701146 C132.543578,75.9092296 132.088144,75.2612124 131.614103,74.6268898 L99,99 L132.979824,76.5701146 Z" id="Path" fill="#FFBC95"></path>
                <path d="M130.401218,73.9583644 C129.914175,73.3476316 129.409418,72.7512378 128.887591,72.1699441 L99,99 L130.401218,73.9583644 Z" id="Path" fill="#FFBC95"></path>
                <path d="M127.631438,71.6255421 C127.099023,71.0686797 126.550476,70.5274685 125.986496,70.0025991 L99,99 L127.631438,71.6255421 Z" id="Path" fill="#FFBC95"></path>
                <path d="M124.699467,69.5845928 C124.127357,69.0847553 123.540787,68.6017149 122.940504,68.136088 L99,99 L124.699467,69.5845928 Z" id="Path" fill="#FFBC95"></path>
                <path d="M121.635043,67.845536 C121.029109,67.4052995 120.410461,66.9828342 119.779888,66.5786792 L99,99 L121.635043,67.845536 Z" id="Path" fill="#FFBC95"></path>
                <path d="M118.46837,66.4154368 C117.834622,66.0367899 117.189962,65.6767127 116.535213,65.3356644 L99,99 L118.46837,66.4154368 Z" id="Path" fill="#FFBC95"></path>
                <path d="M115.229833,65.2984047 C114.574359,64.9827453 113.909816,64.6862758 113.237052,64.4093746 L99,99 L115.229833,65.2984047 Z" id="Path" fill="#FFBC95"></path>
                <path d="M111.94971,64.4956205 C111.278623,64.2437573 110.600331,64.0115259 109.915699,63.7992228 L99,99 L111.94971,64.4956205 Z" id="Path" fill="#FFBC95"></path>
                <path d="M108.657899,64.0053892 C107.977277,63.8175495 107.29132,63.6496062 106.600903,63.5017737 L99,99 L108.657899,64.0053892 Z" id="Path" fill="#FFBC95"></path>
                <path d="M105.383644,63.8232195 C104.69948,63.6990619 104.011838,63.5948905 103.321597,63.5108383 L99,99 L105.383644,63.8232195 Z" id="Path" fill="#FFBC95"></path>
                <path d="M102.155284,63.9419284 C101.473427,63.8805602 100.789926,63.8390976 100.105652,63.8175934 L99,99 L102.155284,63.9419284 Z" id="Path" fill="#FFBC95"></path>
                <circle id="Oval" fill="#111C27" cx="99" cy="99" r="34.6482323"></circle>
            </g>
        </g>
    </g>
</svg>