<?xml version="1.0" encoding="UTF-8"?>
<svg width="198px" height="198px" viewBox="0 0 198 198" version="1.1" xmlns="http://www.w3.org/2000/svg" xmlns:xlink="http://www.w3.org/1999/xlink">
    <!-- Generator: Sketch 55.1 (78136) - https://sketchapp.com -->
    <title>transparent</title>
    <desc>Created with Sketch.</desc>
    <g id="Drip" stroke="none" stroke-width="1" fill="none" fill-rule="evenodd">
        <g id="transparent" fill-rule="nonzero">
            <circle id="Oval" fill="#282D48" cx="99" cy="99" r="98.9949494"></circle>
            <path d="M99,6.43972234 C98.3538015,6.43972234 97.7076206,6.44648938 97.0615638,6.46002234 L99,99 L99,6.43972234 Z" id="Path" fill="#87738C"></path>
            <path d="M91.0904081,23.7452597 C90.5650261,23.8004796 90.0402367,23.8611998 89.5161264,23.9274103 L99,99 L91.0904081,23.7452597 Z" id="Path" fill="#87738C"></path>
            <path d="M80.7590188,13.1829305 C80.1598971,13.3102777 79.5621255,13.4438955 78.9658022,13.5837619 L99,99 L80.7590188,13.1829305 Z" id="Path" fill="#87738C"></path>
            <path d="M74.1255942,22.4444506 C73.5911307,22.6181083 73.0585005,22.7973582 72.5277911,22.9821708 L99,99 L74.1255942,22.4444506 Z" id="Path" fill="#87738C"></path>
            <path d="M61.3523434,14.4419788 C60.7620116,14.7048114 60.1744485,14.9738188 59.5897506,15.2489568 L99,99 L61.3523434,14.4419788 Z" id="Path" fill="#87738C"></path>
            <path d="M61.1653678,33.4684947 C60.7078674,33.7326327 60.2531456,34.0015544 59.8012773,34.2752156 L99,99 L61.1653678,33.4684947 Z" id="Path" fill="#87738C"></path>
            <path d="M47.4310877,28.0214814 C46.9355596,28.3815037 46.4438153,28.7467052 45.9559357,29.117026 L99,99 L47.4310877,28.0214814 Z" id="Path" fill="#87738C"></path>
            <path d="M45.1381524,39.180358 C44.7205287,39.556388 44.3068542,39.9367812 43.8971971,40.3214748 L99,99 L45.1381524,39.180358 Z" id="Path" fill="#87738C"></path>
            <path d="M30.2143086,37.0650853 C29.7819174,37.5453044 29.3545669,38.0300384 28.9323275,38.5192075 L99,99 L30.2143086,37.0650853 Z" id="Path" fill="#87738C"></path>
            <path d="M37.7822791,54.5227223 C37.4717663,54.9501065 37.1657376,55.3807308 36.8642434,55.8145241 L99,99 L37.7822791,54.5227223 Z" id="Path" fill="#87738C"></path>
            <path d="M23.01989,55.1328631 C22.7136369,55.6633091 22.4129469,56.1969478 22.1178697,56.7336912 L99,99 L23.01989,55.1328631 Z" id="Path" fill="#87738C"></path>
            <path d="M25.4639134,66.2596248 C25.2353403,66.7730083 25.0121498,67.2887712 24.7943784,67.8068289 L99,99 L25.4639134,66.2596248 Z" id="Path" fill="#87738C"></path>
            <path d="M10.9699448,70.3973012 C10.7702585,71.0118725 10.5770134,71.6285182 10.3902415,72.2471366 L99,99 L10.9699448,70.3973012 Z" id="Path" fill="#87738C"></path>
            <path d="M24.9842906,83.2674753 C24.8744558,83.7842071 24.7700353,84.302075 24.6710463,84.8209938 L99,99 L24.9842906,83.2674753 Z" id="Path" fill="#87738C"></path>
            <path d="M11.7463437,89.8292712 C11.6823193,90.4384222 11.6246758,91.0482269 11.5734226,91.6585852 L99,99 L11.7463437,89.8292712 Z" id="Path" fill="#87738C"></path>
            <path d="M18.5047318,99 C18.5047318,99.5619681 18.5106168,100.123921 18.5223857,100.685766 L99,99 L18.5047318,99 Z" id="Path" fill="#87738C"></path>
            <path d="M6.94677723,108.675184 C7.01432337,109.317842 7.08859763,109.959776 7.16958778,110.600879 L99,99 L6.94677723,108.675184 Z" id="Path" fill="#87738C"></path>
            <path d="M24.9842906,114.732525 C25.0941253,115.249257 25.2093683,115.764824 25.3300006,116.279142 L99,99 L24.9842906,114.732525 Z" id="Path" fill="#87738C"></path>
            <path d="M15.5597471,126.111382 C15.749022,126.69391 15.944392,127.27444 16.1458249,127.852876 L99,99 L15.5597471,126.111382 Z" id="Path" fill="#87738C"></path>
            <path d="M25.4639134,131.740375 C25.6924864,132.253759 25.9264293,132.764734 26.1657037,133.273218 L99,99 L25.4639134,131.740375 Z" id="Path" fill="#87738C"></path>
            <path d="M18.8404482,145.280139 C19.1635474,145.839763 19.4924983,146.395989 19.8272466,146.948724 L99,99 L18.8404482,145.280139 Z" id="Path" fill="#87738C"></path>
            <path d="M37.7822791,143.477278 C38.0927919,143.904662 38.4077718,144.328783 38.727167,144.74957 L99,99 L37.7822791,143.477278 Z" id="Path" fill="#87738C"></path>
            <path d="M33.8007284,157.705688 C34.2105751,158.160869 34.6251773,158.611745 35.0444668,159.058243 L99,99 L33.8007284,157.705688 Z" id="Path" fill="#87738C"></path>
            <path d="M45.1381524,158.819642 C45.5557761,159.195672 45.9773261,159.567318 46.4027332,159.93452 L99,99 L45.1381524,158.819642 Z" id="Path" fill="#87738C"></path>
            <path d="M44.5944338,173.882838 C45.1172195,174.262664 45.6439683,174.637005 46.1745937,175.005799 L99,99 L44.5944338,173.882838 Z" id="Path" fill="#87738C"></path>
            <path d="M61.1653678,164.531505 C61.6228682,164.795643 62.0831221,165.054983 62.5460538,165.309482 L99,99 L61.1653678,164.531505 Z" id="Path" fill="#87738C"></path>
            <path d="M63.315256,179.149247 C63.8748084,179.398376 64.4369543,179.641638 65.0016014,179.878994 L99,99 L63.315256,179.149247 Z" id="Path" fill="#87738C"></path>
            <path d="M74.1255942,175.555549 C74.6600576,175.729207 75.1963249,175.897263 75.734308,176.05969 L99,99 L74.1255942,175.555549 Z" id="Path" fill="#87738C"></path>
            <path d="M79.7556362,189.537614 C80.3877137,189.671966 81.0211809,189.799695 81.6559335,189.920781 L99,99 L79.7556362,189.537614 Z" id="Path" fill="#87738C"></path>
            <path d="M91.0904081,174.25474 C91.6157901,174.30996 92.1417359,174.359677 92.6681591,174.403882 L99,99 L91.0904081,174.25474 Z" id="Path" fill="#87738C"></path>
            <path d="M99,186.734274 C99.6125064,186.734274 100.224996,186.72786 100.837368,186.715032 L99,99 L99,186.734274 Z" id="Path" fill="#87738C"></path>
            <path d="M107.414047,179.054307 C107.972936,178.995565 108.531195,178.930972 109.088732,178.860539 L99,99 L107.414047,179.054307 Z" id="Path" fill="#87738C"></path>
            <path d="M118.244364,189.537614 C118.876441,189.403261 119.507095,189.262294 120.13622,189.114734 L99,99 L118.244364,189.537614 Z" id="Path" fill="#87738C"></path>
            <path d="M122.383089,170.965747 C122.885509,170.802501 123.386206,170.633998 123.885097,170.460265 L99,99 L122.383089,170.965747 Z" id="Path" fill="#87738C"></path>
            <path d="M134.684744,179.149247 C135.244296,178.900119 135.801225,178.645137 136.355437,178.384344 L99,99 L134.684744,179.149247 Z" id="Path" fill="#87738C"></path>
            <path d="M139.247634,168.710947 C139.734313,168.429963 140.218036,168.14389 140.698723,167.852776 L99,99 L139.247634,168.710947 Z" id="Path" fill="#87738C"></path>
            <path d="M153.405566,173.882838 C153.928352,173.503012 154.447145,173.117721 154.961862,172.72703 L99,99 L153.405566,173.882838 Z" id="Path" fill="#87738C"></path>
            <path d="M149.632621,155.233222 C150.025206,154.879737 150.414079,154.52215 150.799176,154.16052 L99,99 L149.632621,155.233222 Z" id="Path" fill="#87738C"></path>
            <path d="M164.199272,157.705688 C164.609118,157.250507 165.014187,156.791047 165.414412,156.327382 L99,99 L164.199272,157.705688 Z" id="Path" fill="#87738C"></path>
            <path d="M164.12204,146.313932 C164.452357,145.85929 164.777903,145.401201 165.098626,144.939742 L99,99 L164.12204,146.313932 Z" id="Path" fill="#87738C"></path>
            <path d="M179.159552,145.280139 C179.482651,144.720514 179.799881,144.157522 180.11119,143.591254 L99,99 L179.159552,145.280139 Z" id="Path" fill="#87738C"></path>
            <path d="M168.127313,129.777463 C168.342182,129.294859 168.551991,128.810018 168.756707,128.323019 L99,99 L168.127313,129.777463 Z" id="Path" fill="#87738C"></path>
            <path d="M182.440253,126.111382 C182.629528,125.528853 182.812697,124.944359 182.989731,124.357995 L99,99 L182.440253,126.111382 Z" id="Path" fill="#87738C"></path>
            <path d="M177.736253,115.735907 C177.853093,115.18622 177.964173,114.635323 178.069476,114.083309 L99,99 L177.736253,115.735907 Z" id="Path" fill="#87738C"></path>
            <path d="M191.053223,108.675184 C191.120769,108.032525 191.181583,107.389177 191.235656,106.745244 L99,99 L191.053223,108.675184 Z" id="Path" fill="#87738C"></path>
            <path d="M174.669264,99 C174.669264,98.471724 174.663732,97.9434626 174.652669,97.4153025 L99,99 L174.669264,99 Z" id="Path" fill="#87738C"></path>
            <path d="M186.253656,89.8292712 C186.189632,89.2201202 186.11923,88.6116563 186.042463,88.0039798 L99,99 L186.253656,89.8292712 Z" id="Path" fill="#87738C"></path>
            <path d="M177.736253,82.2640927 C177.619414,81.7144049 177.496821,81.1659558 177.368495,80.6188355 L99,99 L177.736253,82.2640927 Z" id="Path" fill="#87738C"></path>
            <path d="M187.030055,70.3973012 C186.830369,69.7827299 186.624252,69.1702665 186.411739,68.5600119 L99,99 L187.030055,70.3973012 Z" id="Path" fill="#87738C"></path>
            <path d="M168.127313,68.2225374 C167.912444,67.7399333 167.692526,67.2595926 167.467597,66.7815942 L99,99 L168.127313,68.2225374 Z" id="Path" fill="#87738C"></path>
            <path d="M174.98011,55.1328631 C174.673857,54.602417 174.362057,54.0751925 174.044762,53.5512765 L99,99 L174.98011,55.1328631 Z" id="Path" fill="#87738C"></path>
            <path d="M164.12204,51.6860685 C163.791723,51.2314267 163.456655,50.7802565 163.116889,50.3326321 L99,99 L164.12204,51.6860685 Z" id="Path" fill="#87738C"></path>
            <path d="M167.785691,37.0650853 C167.3533,36.5848662 166.915892,36.1091883 166.473539,35.6381298 L99,99 L167.785691,37.0650853 Z" id="Path" fill="#87738C"></path>
            <path d="M149.632621,42.7667777 C149.240035,42.4132921 148.843759,42.0639274 148.443856,41.718741 L99,99 L149.632621,42.7667777 Z" id="Path" fill="#87738C"></path>
            <path d="M150.568912,28.0214814 C150.073384,27.6614592 149.5741,27.3066361 149.07114,26.9570704 L99,99 L150.568912,28.0214814 Z" id="Path" fill="#87738C"></path>
            <path d="M139.247634,29.2890529 C138.760955,29.0080688 138.271348,28.732189 137.778891,28.4614588 L99,99 L139.247634,29.2890529 Z" id="Path" fill="#87738C"></path>
            <path d="M136.647657,14.4419788 C136.057325,14.1791462 135.464257,13.9225027 134.86855,13.6720907 L99,99 L136.647657,14.4419788 Z" id="Path" fill="#87738C"></path>
            <path d="M122.383089,27.034253 C121.880668,26.8710067 121.376552,26.7130264 120.870823,26.5603378 L99,99 L122.383089,27.034253 Z" id="Path" fill="#87738C"></path>
            <path d="M117.240981,13.1829305 C116.64186,13.0555833 116.041421,12.9345136 115.439764,12.8197413 L99,99 L117.240981,13.1829305 Z" id="Path" fill="#87738C"></path>
            <path d="M107.414047,18.9456933 C106.855157,18.8869516 106.295668,18.8340643 105.73567,18.78704 L99,99 L107.414047,18.9456933 Z" id="Path" fill="#87738C"></path>
            <path d="M99,25.7437375 C98.4885701,25.7437375 97.9771543,25.7490932 97.4658366,25.7598038 L99,99 L99,25.7437375 Z" id="Path" fill="#E7A59A"></path>
            <path d="M92.6037724,38.143959 C92.1789132,38.1886135 91.7545332,38.2377159 91.3307024,38.2912582 L99,99 L92.6037724,38.143959 Z" id="Path" fill="#E7A59A"></path>
            <path d="M84.7725492,32.0651066 C84.3052512,32.1644338 83.8390062,32.2686519 83.3738909,32.3777438 L99,99 L84.7725492,32.0651066 Z" id="Path" fill="#E7A59A"></path>
            <path d="M78.5995457,36.2138577 C78.1612117,36.356281 77.7243813,36.5032907 77.2891261,36.6548626 L99,99 L78.5995457,36.2138577 Z" id="Path" fill="#E7A59A"></path>
            <path d="M69.2039937,32.0770741 C68.7367793,32.2850914 68.271756,32.4979957 67.8090004,32.7157519 L99,99 L69.2039937,32.0770741 Z" id="Path" fill="#E7A59A"></path>
            <path d="M68.4043735,46.0068203 C68.0344079,46.2204201 67.6666893,46.4378882 67.3012782,46.6591891 L99,99 L68.4043735,46.0068203 Z" id="Path" fill="#E7A59A"></path>
            <path d="M58.7777031,43.6387577 C58.3912052,43.9195649 58.0076585,44.2044118 57.6271261,44.4932516 L99,99 L58.7777031,43.6387577 Z" id="Path" fill="#E7A59A"></path>
            <path d="M54.8258329,49.9396172 C54.4833237,50.2480139 54.1440534,50.5599889 53.8080779,50.8754909 L99,99 L54.8258329,49.9396172 Z" id="Path" fill="#E7A59A"></path>
            <path d="M44.5599876,49.9819926 C44.2177742,50.3620591 43.8795503,50.7456988 43.5453715,51.1328487 L99,99 L44.5599876,49.9819926 Z" id="Path" fill="#E7A59A"></path>
            <path d="M49.4952364,63.0326839 C49.2441348,63.3782955 48.9966594,63.7265272 48.7528509,64.0773216 L99,99 L49.4952364,63.0326839 Z" id="Path" fill="#E7A59A"></path>
            <path d="M39.7376575,64.7848706 C39.4987887,65.1986036 39.264259,65.6148267 39.0341071,66.0334714 L99,99 L39.7376575,64.7848706 Z" id="Path" fill="#E7A59A"></path>
            <path d="M38.6902349,72.1483626 C38.5027734,72.569408 38.3197262,72.992405 38.1411235,73.417284 L99,99 L38.6902349,72.1483626 Z" id="Path" fill="#E7A59A"></path>
            <path d="M29.3291542,76.3625699 C29.1711136,76.8489686 29.0181711,77.337009 28.8703516,77.8266108 L99,99 L29.3291542,76.3625699 Z" id="Path" fill="#E7A59A"></path>
            <path d="M39.1459226,86.2776231 C39.0571029,86.6954872 38.9726614,87.11427 38.8926122,87.5339026 L99,99 L39.1459226,86.2776231 Z" id="Path" fill="#E7A59A"></path>
            <path d="M30.9446094,91.8470902 C30.8946722,92.3222108 30.8497119,92.7978413 30.8097358,93.2739035 L99,99 L30.9446094,91.8470902 Z" id="Path" fill="#E7A59A"></path>
            <path d="M32.9827431,99 C32.9827431,99.4608916 32.9875696,99.9217706 32.9972218,100.382561 L99,99 L32.9827431,99 Z" id="Path" fill="#E7A59A"></path>
            <path d="M26.1450429,106.657365 C26.1985019,107.165993 26.2572858,107.674047 26.321385,108.181444 L99,99 L26.1450429,106.657365 Z" id="Path" fill="#E7A59A"></path>
            <path d="M39.1459226,111.722377 C39.2347424,112.140241 39.3279356,112.557164 39.425487,112.973076 L99,99 L39.1459226,111.722377 Z" id="Path" fill="#E7A59A"></path>
            <path d="M33.9189565,120.146113 C34.0665856,120.600468 34.2189686,121.053266 34.3760806,121.50443 L99,99 L33.9189565,120.146113 Z" id="Path" fill="#E7A59A"></path>
            <path d="M38.6902349,125.851637 C38.8776964,126.272683 39.069562,126.691754 39.2658001,127.108781 L99,99 L38.6902349,125.851637 Z" id="Path" fill="#E7A59A"></path>
            <path d="M35.5582157,135.628131 C35.8139306,136.071043 36.0742767,136.511264 36.3392112,136.948723 L99,99 L35.5582157,135.628131 Z" id="Path" fill="#E7A59A"></path>
            <path d="M49.4952364,134.967316 C49.7463379,135.312928 50.0010518,135.6559 50.2593362,135.996177 L99,99 L49.4952364,134.967316 Z" id="Path" fill="#E7A59A"></path>
            <path d="M48.1464073,144.788781 C48.4660762,145.143809 48.7894542,145.49548 49.1164882,145.843736 L99,99 L48.1464073,144.788781 Z" id="Path" fill="#E7A59A"></path>
            <path d="M54.8258329,148.060383 C55.1683421,148.36878 55.5140715,148.673581 55.8629641,148.974737 L99,99 L54.8258329,148.060383 Z" id="Path" fill="#E7A59A"></path>
            <path d="M55.9410492,158.265561 C56.3548047,158.566172 56.7716968,158.862442 57.1916571,159.154322 L99,99 L55.9410492,158.265561 Z" id="Path" fill="#E7A59A"></path>
            <path d="M68.4043735,151.99318 C68.774339,152.206779 69.1465313,152.416499 69.520889,152.622304 L99,99 L68.4043735,151.99318 Z" id="Path" fill="#E7A59A"></path>
            <path d="M71.1669063,161.514152 C71.6033414,161.708465 72.0417994,161.898203 72.4822081,162.083334 L99,99 L71.1669063,161.514152 Z" id="Path" fill="#E7A59A"></path>
            <path d="M78.5995457,161.786142 C79.0378797,161.928566 79.4776931,162.066395 79.9189136,162.199607 L99,99 L78.5995457,161.786142 Z" id="Path" fill="#E7A59A"></path>
            <path d="M83.7691666,170.655437 C84.2694205,170.76177 84.7707742,170.86286 85.2731452,170.958693 L99,99 L83.7691666,170.655437 Z" id="Path" fill="#E7A59A"></path>
            <path d="M92.6037724,159.856041 C93.0286315,159.900695 93.4539467,159.9409 93.8796479,159.976647 L99,99 L92.6037724,159.856041 Z" id="Path" fill="#E7A59A"></path>
            <path d="M99,167.430259 C99.4777377,167.430259 99.9554623,167.425256 100.433095,167.415251 L99,99 L99,167.430259 Z" id="Path" fill="#E7A59A"></path>
            <path d="M105.900682,164.655607 C106.359049,164.607431 106.816899,164.554456 107.274156,164.496691 L99,99 L105.900682,164.655607 Z" id="Path" fill="#E7A59A"></path>
            <path d="M114.230833,170.655437 C114.731087,170.549105 115.230214,170.437537 115.728131,170.320752 L99,99 L114.230833,170.655437 Z" id="Path" fill="#E7A59A"></path>
            <path d="M117.909137,157.19634 C118.315428,157.064328 118.720325,156.928065 119.123762,156.787573 L99,99 L117.909137,157.19634 Z" id="Path" fill="#E7A59A"></path>
            <path d="M126.833094,161.514152 C127.269529,161.319839 127.703917,161.12096 128.136187,160.917549 L99,99 L126.833094,161.514152 Z" id="Path" fill="#E7A59A"></path>
            <path d="M132.008628,156.172622 C132.407772,155.942176 132.804492,155.707556 133.198722,155.468802 L99,99 L132.008628,156.172622 Z" id="Path" fill="#E7A59A"></path>
            <path d="M142.058951,158.265561 C142.472706,157.96495 142.883302,157.660015 143.290671,157.350805 L99,99 L142.058951,158.265561 Z" id="Path" fill="#E7A59A"></path>
            <path d="M139.94494,144.473963 C140.262411,144.188111 140.57688,143.898942 140.888295,143.606504 L99,99 L139.94494,144.473963 Z" id="Path" fill="#E7A59A"></path>
            <path d="M149.853593,144.788781 C150.173262,144.433752 150.489204,144.075386 150.801368,143.713741 L99,99 L149.853593,144.788781 Z" id="Path" fill="#E7A59A"></path>
            <path d="M152.409083,137.80397 C152.679988,137.431101 152.946981,137.055405 153.210018,136.676944 L99,99 L152.409083,137.80397 Z" id="Path" fill="#E7A59A"></path>
            <path d="M162.441784,135.628131 C162.697499,135.18522 162.948569,134.739643 163.194952,134.291474 L99,99 L162.441784,135.628131 Z" id="Path" fill="#E7A59A"></path>
            <path d="M154.900991,123.888725 C155.074749,123.498459 155.244415,123.106384 155.409961,122.712564 L99,99 L154.900991,123.888725 Z" id="Path" fill="#E7A59A"></path>
            <path d="M164.081043,120.146113 C164.228673,119.691757 164.37154,119.235868 164.509621,118.778521 L99,99 L164.081043,120.146113 Z" id="Path" fill="#E7A59A"></path>
            <path d="M163.574621,112.725759 C163.670446,112.274939 163.761547,111.823128 163.84791,111.3704 L99,99 L163.574621,112.725759 Z" id="Path" fill="#E7A59A"></path>
            <path d="M171.854957,106.657365 C171.908416,106.148736 171.956547,105.639562 171.999343,105.129926 L99,99 L171.854957,106.657365 Z" id="Path" fill="#E7A59A"></path>
            <path d="M160.191253,99 C160.191253,98.5728006 160.186779,98.1456128 160.177833,97.7185071 L99,99 L160.191253,99 Z" id="Path" fill="#E7A59A"></path>
            <path d="M167.055391,91.8470902 C167.005453,91.3719696 166.950542,90.897385 166.890666,90.4234144 L99,99 L167.055391,91.8470902 Z" id="Path" fill="#E7A59A"></path>
            <path d="M163.574621,85.2742405 C163.478797,84.8234205 163.378254,84.3736163 163.273009,83.924902 L99,99 L163.574621,85.2742405 Z" id="Path" fill="#E7A59A"></path>
            <path d="M168.670846,76.3625699 C168.512805,75.8761712 168.349676,75.3914409 168.181483,74.9084586 L99,99 L168.670846,76.3625699 Z" id="Path" fill="#E7A59A"></path>
            <path d="M154.900991,74.1112751 C154.727234,73.721009 154.549394,73.3325732 154.367501,72.9460316 L99,99 L154.900991,74.1112751 Z" id="Path" fill="#E7A59A"></path>
            <path d="M158.262342,64.7848706 C158.023474,64.3711376 157.780279,63.9599175 157.532798,63.5512777 L99,99 L158.262342,64.7848706 Z" id="Path" fill="#E7A59A"></path>
            <path d="M152.409083,60.19603 C152.138177,59.8231609 151.863375,59.4531389 151.58472,59.0860249 L99,99 L152.409083,60.19603 Z" id="Path" fill="#E7A59A"></path>
            <path d="M153.440012,49.9819926 C153.097799,49.6019262 152.751615,49.2254538 152.401517,48.8526375 L99,99 L153.440012,49.9819926 Z" id="Path" fill="#E7A59A"></path>
            <path d="M139.94494,53.5260369 C139.627469,53.2401847 139.307013,52.9576649 138.983626,52.678524 L99,99 L139.94494,53.5260369 Z" id="Path" fill="#E7A59A"></path>
            <path d="M139.222297,43.6387577 C138.835799,43.3579506 138.446371,43.0811985 138.054077,42.8085471 L99,99 L139.222297,43.6387577 Z" id="Path" fill="#E7A59A"></path>
            <path d="M132.008628,41.8273785 C131.609485,41.5969327 131.207938,41.370673 130.804056,41.1486368 L99,99 L132.008628,41.8273785 Z" id="Path" fill="#E7A59A"></path>
            <path d="M128.796006,32.0770741 C128.328792,31.8690569 127.859412,31.665938 127.387944,31.4677509 L99,99 L128.796006,32.0770741 Z" id="Path" fill="#E7A59A"></path>
            <path d="M117.909137,40.80366 C117.502846,40.6716481 117.095184,40.5438946 116.686218,40.4204204 L99,99 L117.909137,40.80366 Z" id="Path" fill="#E7A59A"></path>
            <path d="M113.227451,32.0651066 C112.760153,31.9657793 112.291827,31.8713484 111.822552,31.7818293 L99,99 L113.227451,32.0651066 Z" id="Path" fill="#E7A59A"></path>
            <path d="M105.900682,33.3443926 C105.442316,33.2962163 104.983457,33.2528414 104.524182,33.214275 L99,99 L105.900682,33.3443926 Z" id="Path" fill="#E7A59A"></path>
            <path d="M99,45.0477526 C98.6233388,45.0477526 98.246688,45.051697 97.8701094,45.0595852 L99,99 L99,45.0477526 Z" id="Path" fill="#FFBC95"></path>
            <path d="M93.8649092,50.1428751 C93.5238191,50.1787251 93.1831136,50.2181461 92.842849,50.2611315 L99,99 L93.8649092,50.1428751 Z" id="Path" fill="#FFBC95"></path>
            <path d="M87.782697,46.2267386 C87.4142668,46.3050509 87.0466667,46.3872193 86.6799574,46.4732302 L99,99 L87.782697,46.2267386 Z" id="Path" fill="#FFBC95"></path>
            <path d="M83.8191559,52.2781659 C83.4929729,52.3841491 83.1679088,52.4935453 82.844017,52.6063364 L99,99 L83.8191559,52.2781659 Z" id="Path" fill="#FFBC95"></path>
            <path d="M77.055644,49.7121695 C76.7115469,49.8653714 76.3690636,50.0221725 76.0282503,50.182547 L99,99 L77.055644,49.7121695 Z" id="Path" fill="#FFBC95"></path>
            <path d="M74.4368782,56.455425 C74.1398583,56.6269095 73.8446424,56.8014998 73.5512789,56.979167 L99,99 L74.4368782,56.455425 Z" id="Path" fill="#FFBC95"></path>
            <path d="M67.2876646,55.351715 C66.9829393,55.5731109 66.6805409,55.7976918 66.380519,56.0254208 L99,99 L67.2876646,55.351715 Z" id="Path" fill="#FFBC95"></path>
            <path d="M66.1281268,62.4920863 C65.8732512,62.7215773 65.6207858,62.9537312 65.3707721,63.1885096 L99,99 L66.1281268,62.4920863 Z" id="Path" fill="#FFBC95"></path>
            <path d="M58.9056665,62.8989 C58.653631,63.1788138 58.4045337,63.4613593 58.1584155,63.7464899 L99,99 L58.9056665,62.8989 Z" id="Path" fill="#FFBC95"></path>
            <path d="M59.256034,70.1243185 C59.0544419,70.4017863 58.855761,70.6813575 58.6600239,70.9629862 L99,99 L59.256034,70.1243185 Z" id="Path" fill="#FFBC95"></path>
            <path d="M52.2759832,72.0238763 C52.0876526,72.3500745 51.9027431,72.6782359 51.7212852,73.0083066 L99,99 L52.2759832,72.0238763 Z" id="Path" fill="#FFBC95"></path>
            <path d="M54.1209433,79.0185566 C53.9814452,79.3318744 53.8452321,79.6466444 53.7123262,79.9628149 L99,99 L54.1209433,79.0185566 Z" id="Path" fill="#FFBC95"></path>
            <path d="M47.6883635,82.3278387 C47.5719688,82.6860647 47.4593287,83.0454999 47.3504616,83.406085 L99,99 L47.6883635,82.3278387 Z" id="Path" fill="#FFBC95"></path>
            <path d="M50.9472827,88.7860796 C50.8759754,89.1215539 50.8081832,89.4577658 50.7439172,89.7946599 L99,99 L50.9472827,88.7860796 Z" id="Path" fill="#FFBC95"></path>
            <path d="M45.3433087,93.3604545 C45.3039368,93.7350523 45.2684889,94.1100521 45.2369707,94.4853923 L99,99 L45.3433087,93.3604545 Z" id="Path" fill="#FFBC95"></path>
            <path d="M49.8737564,99 C49.8737564,99.342969 49.877348,99.6859286 49.8845306,100.028822 L99,99 L49.8737564,99 Z" id="Path" fill="#FFBC95"></path>
            <path d="M45.3433087,104.639546 C45.3826805,105.014143 45.425974,105.388319 45.4731822,105.76201 L99,99 L45.3433087,104.639546 Z" id="Path" fill="#FFBC95"></path>
            <path d="M50.9472827,109.21392 C51.0185899,109.549395 51.0934084,109.884113 51.1717256,110.21802 L99,99 L50.9472827,109.21392 Z" id="Path" fill="#FFBC95"></path>
            <path d="M47.6883635,115.672161 C47.8047582,116.030387 47.9249011,116.387385 48.0487724,116.743095 L99,99 L47.6883635,115.672161 Z" id="Path" fill="#FFBC95"></path>
            <path d="M54.1209433,118.981443 C54.2604414,119.294761 54.4032167,119.60661 54.5492458,119.916937 L99,99 L54.1209433,118.981443 Z" id="Path" fill="#FFBC95"></path>
            <path d="M52.2759832,125.976124 C52.4643137,126.302322 52.6560551,126.626539 52.8511758,126.948721 L99,99 L52.2759832,125.976124 Z" id="Path" fill="#FFBC95"></path>
            <path d="M59.256034,127.875682 C59.4576262,128.153149 59.6621184,128.428498 59.8694772,128.701683 L99,99 L59.256034,127.875682 Z" id="Path" fill="#FFBC95"></path>
            <path d="M58.9056665,135.1011 C59.157702,135.381014 59.4126619,135.658281 59.6705043,135.932855 L99,99 L58.9056665,135.1011 Z" id="Path" fill="#FFBC95"></path>
            <path d="M66.1281268,135.507914 C66.3830025,135.737405 66.6402744,135.964221 66.8999002,136.188324 L99,99 L66.1281268,135.507914 Z" id="Path" fill="#FFBC95"></path>
            <path d="M67.2876646,142.648285 C67.5923899,142.869681 67.8994254,143.08788 68.2087204,143.302845 L99,99 L67.2876646,142.648285 Z" id="Path" fill="#FFBC95"></path>
            <path d="M74.4368782,141.544575 C74.7338981,141.716059 75.0327056,141.884429 75.3332516,142.049655 L99,99 L74.4368782,141.544575 Z" id="Path" fill="#FFBC95"></path>
            <path d="M77.055644,148.287831 C77.3997411,148.441032 77.7454331,148.590627 78.0926632,148.736589 L99,99 L77.055644,148.287831 Z" id="Path" fill="#FFBC95"></path>
            <path d="M83.8191559,145.721834 C84.1453388,145.827817 84.4726226,145.930382 84.8009535,146.029511 L99,99 L83.8191559,145.721834 Z" id="Path" fill="#FFBC95"></path>
            <path d="M87.782697,151.773261 C88.1511273,151.851574 88.5203675,151.926026 88.890357,151.996605 L99,99 L87.782697,151.773261 Z" id="Path" fill="#FFBC95"></path>
            <path d="M93.8649092,147.857125 C94.2059994,147.892975 94.5474557,147.925252 94.8892219,147.953951 L99,99 L93.8649092,147.857125 Z" id="Path" fill="#FFBC95"></path>
            <path d="M99,152.952247 C99.3766612,152.952247 99.753312,152.948303 100.129891,152.940415 L99,99 L99,152.952247 Z" id="Path" fill="#FFBC95"></path>
            <path d="M104.135091,147.857125 C104.476181,147.821275 104.816886,147.781854 105.157151,147.738869 L99,99 L104.135091,147.857125 Z" id="Path" fill="#FFBC95"></path>
            <path d="M110.217303,151.773261 C110.585733,151.694949 110.953333,151.612781 111.320043,151.52677 L99,99 L110.217303,151.773261 Z" id="Path" fill="#FFBC95"></path>
            <path d="M114.180844,145.721834 C114.507027,145.615851 114.832091,145.506455 115.155983,145.393664 L99,99 L114.180844,145.721834 Z" id="Path" fill="#FFBC95"></path>
            <path d="M120.944356,148.287831 C121.288453,148.134629 121.630936,147.977828 121.97175,147.817453 L99,99 L120.944356,148.287831 Z" id="Path" fill="#FFBC95"></path>
            <path d="M123.563122,141.544575 C123.860142,141.37309 124.155358,141.1985 124.448721,141.020833 L99,99 L123.563122,141.544575 Z" id="Path" fill="#FFBC95"></path>
            <path d="M130.712335,142.648285 C131.017061,142.426889 131.319459,142.202308 131.619481,141.974579 L99,99 L130.712335,142.648285 Z" id="Path" fill="#FFBC95"></path>
            <path d="M131.871873,135.507914 C132.126749,135.278423 132.379214,135.046269 132.629228,134.81149 L99,99 L131.871873,135.507914 Z" id="Path" fill="#FFBC95"></path>
            <path d="M139.094333,135.1011 C139.346369,134.821186 139.595466,134.538641 139.841585,134.25351 L99,99 L139.094333,135.1011 Z" id="Path" fill="#FFBC95"></path>
            <path d="M138.743966,127.875682 C138.945558,127.598214 139.144239,127.318642 139.339976,127.037014 L99,99 L138.743966,127.875682 Z" id="Path" fill="#FFBC95"></path>
            <path d="M145.724017,125.976124 C145.912347,125.649926 146.097257,125.321764 146.278715,124.991693 L99,99 L145.724017,125.976124 Z" id="Path" fill="#FFBC95"></path>
            <path d="M143.879057,118.981443 C144.018555,118.668126 144.154768,118.353356 144.287674,118.037185 L99,99 L143.879057,118.981443 Z" id="Path" fill="#FFBC95"></path>
            <path d="M150.311636,115.672161 C150.428031,115.313935 150.540671,114.9545 150.649538,114.593915 L99,99 L150.311636,115.672161 Z" id="Path" fill="#FFBC95"></path>
            <path d="M147.052717,109.21392 C147.124025,108.878446 147.191817,108.542234 147.256083,108.20534 L99,99 L147.052717,109.21392 Z" id="Path" fill="#FFBC95"></path>
            <path d="M152.656691,104.639546 C152.696063,104.264948 152.731511,103.889948 152.763029,103.514608 L99,99 L152.656691,104.639546 Z" id="Path" fill="#FFBC95"></path>
            <path d="M148.126244,99 C148.126244,98.657031 148.122652,98.3140714 148.115469,97.9711776 L99,99 L148.126244,99 Z" id="Path" fill="#FFBC95"></path>
            <path d="M152.656691,93.3604545 C152.61732,92.9858567 152.574026,92.6116815 152.526818,92.2379904 L99,99 L152.656691,93.3604545 Z" id="Path" fill="#FFBC95"></path>
            <path d="M147.052717,88.7860796 C146.98141,88.4506053 146.906592,88.1158869 146.828274,87.7819795 L99,99 L147.052717,88.7860796 Z" id="Path" fill="#FFBC95"></path>
            <path d="M150.311636,82.3278387 C150.195242,81.9696126 150.075099,81.6126152 149.951228,81.2569053 L99,99 L150.311636,82.3278387 Z" id="Path" fill="#FFBC95"></path>
            <path d="M143.879057,79.0185566 C143.739559,78.7052388 143.596783,78.3933904 143.450754,78.0830628 L99,99 L143.879057,79.0185566 Z" id="Path" fill="#FFBC95"></path>
            <path d="M145.724017,72.0238763 C145.535686,71.6976781 145.343945,71.3734611 145.148824,71.0512786 L99,99 L145.724017,72.0238763 Z" id="Path" fill="#FFBC95"></path>
            <path d="M138.743966,70.1243185 C138.542374,69.8468507 138.337882,69.5715017 138.130523,69.2983166 L99,99 L138.743966,70.1243185 Z" id="Path" fill="#FFBC95"></path>
            <path d="M139.094333,62.8989 C138.842298,62.6189862 138.587338,62.3417194 138.329496,62.0671452 L99,99 L139.094333,62.8989 Z" id="Path" fill="#FFBC95"></path>
            <path d="M131.871873,62.4920863 C131.616998,62.2625952 131.359726,62.0357795 131.1001,61.8116765 L99,99 L131.871873,62.4920863 Z" id="Path" fill="#FFBC95"></path>
            <path d="M130.712335,55.351715 C130.40761,55.1303191 130.100575,54.9121204 129.79128,54.6971547 L99,99 L130.712335,55.351715 Z" id="Path" fill="#FFBC95"></path>
            <path d="M123.563122,56.455425 C123.266102,56.2839405 122.967294,56.1155711 122.666748,55.9503445 L99,99 L123.563122,56.455425 Z" id="Path" fill="#FFBC95"></path>
            <path d="M120.944356,49.7121695 C120.600259,49.5589675 120.254567,49.4093733 119.907337,49.2634112 L99,99 L120.944356,49.7121695 Z" id="Path" fill="#FFBC95"></path>
            <path d="M114.180844,52.2781659 C113.854661,52.1721826 113.527377,52.0696181 113.199046,51.9704891 L99,99 L114.180844,52.2781659 Z" id="Path" fill="#FFBC95"></path>
            <path d="M110.217303,46.2267386 C109.848873,46.1484264 109.479633,46.0739745 109.109643,46.0033952 L99,99 L110.217303,46.2267386 Z" id="Path" fill="#FFBC95"></path>
            <path d="M104.135091,50.1428751 C103.794001,50.1070251 103.452544,50.0747479 103.110778,50.046049 L99,99 L104.135091,50.1428751 Z" id="Path" fill="#FFBC95"></path>
            <circle id="Oval" fill="#111C27" cx="99" cy="99" r="34.6482323"></circle>
        </g>
    </g>
</svg>