<?xml version="1.0" encoding="UTF-8"?>
<svg width="198px" height="198px" viewBox="0 0 198 198" version="1.1" xmlns="http://www.w3.org/2000/svg" xmlns:xlink="http://www.w3.org/1999/xlink">
    <!-- Generator: Sketch 55.1 (78136) - https://sketchapp.com -->
    <title>extensible</title>
    <desc>Created with Sketch.</desc>
    <g id="Drip" stroke="none" stroke-width="1" fill="none" fill-rule="evenodd">
        <g id="Artboard-Copy-4" transform="translate(-1431.000000, -1607.000000)" fill-rule="nonzero">
            <g id="extensible" transform="translate(1431.000000, 1607.000000)">
                <circle id="Oval" fill="#282D48" cx="99" cy="99" r="98.9949494"></circle>
                <path d="M99,6.43972234 C97.7883499,6.43972234 96.5768165,6.4635138 95.3661006,6.51108296 L99,99 L99,6.43972234 Z" id="Path" fill="#87738C"></path>
                <path d="M91.9296708,9.16294986 C90.7536688,9.25550323 89.5795975,9.37113916 88.4081357,9.50979079 L99,99 L91.9296708,9.16294986 Z" id="Path" fill="#87738C"></path>
                <path d="M85.951697,16.6162571 C84.8732617,16.7870645 83.7982842,16.9790311 82.7273862,17.192046 L99,99 L85.951697,16.6162571 Z" id="Path" fill="#87738C"></path>
                <path d="M81.6941766,26.9160577 C80.7505697,27.1425976 79.811502,27.3876441 78.8775164,27.6510552 L99,99 L81.6941766,26.9160577 Z" id="Path" fill="#87738C"></path>
                <path d="M79.0811651,37.6961298 C78.2786736,37.9568751 77.4813792,38.2333527 76.6897432,38.5254027 L99,99 L79.0811651,37.6961298 Z" id="Path" fill="#87738C"></path>
                <path d="M77.4299529,46.9252998 C76.7482748,47.2076602 76.0722067,47.5033784 75.4021395,47.8122836 L99,99 L77.4299529,46.9252998 Z" id="Path" fill="#87738C"></path>
                <path d="M75.8297554,53.5258345 C75.2344808,53.8291421 74.6452193,54.1441089 74.0623115,54.470553 L99,99 L75.8297554,53.5258345 Z" id="Path" fill="#87738C"></path>
                <path d="M73.6053487,57.5596955 C73.062879,57.8921214 72.5269889,58.2351669 71.9979884,58.5886338 L99,99 L73.6053487,57.5596955 Z" id="Path" fill="#87738C"></path>
                <path d="M70.6265509,59.9472976 C70.1153357,60.3187171 69.611463,60.7001388 69.1152238,61.0913422 L99,99 L70.6265509,59.9472976 Z" id="Path" fill="#87738C"></path>
                <path d="M67.3026339,61.8871527 C66.8168123,62.3020836 66.3391849,62.7265138 65.8700279,63.1601981 L99,99 L67.3026339,61.8871527 Z" id="Path" fill="#87738C"></path>
                <path d="M64.2625,64.2625 C63.8077726,64.7172274 63.3620178,65.1808398 62.9254935,65.6530692 L99,99 L64.2625,64.2625 Z" id="Path" fill="#87738C"></path>
                <path d="M61.8871527,67.3026339 C61.4722218,67.7884556 61.0668703,68.2823778 60.6713326,68.784115 L99,99 L61.8871527,67.3026339 Z" id="Path" fill="#87738C"></path>
                <path d="M59.9472976,70.6265509 C59.5758781,71.137766 59.2145324,71.6562248 58.8634694,72.1816277 L99,99 L59.9472976,70.6265509 Z" id="Path" fill="#87738C"></path>
                <path d="M57.5596955,73.6053487 C57.2272696,74.1478185 56.9055275,74.6967633 56.5946551,75.2518658 L99,99 L57.5596955,73.6053487 Z" id="Path" fill="#87738C"></path>
                <path d="M53.5258345,75.8297554 C53.222527,76.42503 52.9309373,77.0262028 52.6512339,77.6329262 L99,99 L53.5258345,75.8297554 Z" id="Path" fill="#87738C"></path>
                <path d="M46.9252998,77.4299529 C46.6429395,78.1116311 46.3739915,78.7987878 46.1186115,79.4910258 L99,99 L46.9252998,77.4299529 Z" id="Path" fill="#87738C"></path>
                <path d="M37.6961298,79.0811651 C37.4353845,79.8836567 37.1904217,80.6911908 36.9613831,81.5033005 L99,99 L37.6961298,79.0811651 Z" id="Path" fill="#87738C"></path>
                <path d="M26.9160577,81.6941766 C26.6895177,82.6377835 26.4815278,83.5857477 26.2922083,84.537521 L99,99 L26.9160577,81.6941766 Z" id="Path" fill="#87738C"></path>
                <path d="M16.6162571,85.951697 C16.4454498,87.0301323 16.2958346,88.1118176 16.167498,89.1961273 L99,99 L16.6162571,85.951697 Z" id="Path" fill="#87738C"></path>
                <path d="M9.16294986,91.9296708 C9.0703965,93.1056728 9.00094354,94.2833788 8.95463115,95.4621078 L99,99 L9.16294986,91.9296708 Z" id="Path" fill="#87738C"></path>
                <path d="M6.43972234,99 C6.43972234,100.21165 6.4635138,101.423183 6.51108296,102.633899 L99,99 L6.43972234,99 Z" id="Path" fill="#87738C"></path>
                <path d="M9.16294986,106.070329 C9.25550323,107.246331 9.37113916,108.420403 9.50979079,109.591864 L99,99 L9.16294986,106.070329 Z" id="Path" fill="#87738C"></path>
                <path d="M16.6162571,112.048303 C16.7870645,113.126738 16.9790311,114.201716 17.192046,115.272614 L99,99 L16.6162571,112.048303 Z" id="Path" fill="#87738C"></path>
                <path d="M26.9160577,116.305823 C27.1425976,117.24943 27.3876441,118.188498 27.6510552,119.122484 L99,99 L26.9160577,116.305823 Z" id="Path" fill="#87738C"></path>
                <path d="M37.6961298,118.918835 C37.9568751,119.721326 38.2333527,120.518621 38.5254027,121.310257 L99,99 L37.6961298,118.918835 Z" id="Path" fill="#87738C"></path>
                <path d="M46.9252998,120.570047 C47.2076602,121.251725 47.5033784,121.927793 47.8122836,122.59786 L99,99 L46.9252998,120.570047 Z" id="Path" fill="#87738C"></path>
                <path d="M53.5258345,122.170245 C53.8291421,122.765519 54.1441089,123.354781 54.470553,123.937689 L99,99 L53.5258345,122.170245 Z" id="Path" fill="#87738C"></path>
                <path d="M57.5596955,124.394651 C57.8921214,124.937121 58.2351669,125.473011 58.5886338,126.002012 L99,99 L57.5596955,124.394651 Z" id="Path" fill="#87738C"></path>
                <path d="M59.9472976,127.373449 C60.3187171,127.884664 60.7001388,128.388537 61.0913422,128.884776 L99,99 L59.9472976,127.373449 Z" id="Path" fill="#87738C"></path>
                <path d="M61.8871527,130.697366 C62.3020836,131.183188 62.7265138,131.660815 63.1601981,132.129972 L99,99 L61.8871527,130.697366 Z" id="Path" fill="#87738C"></path>
                <path d="M64.2625,133.7375 C64.7172274,134.192227 65.1808398,134.637982 65.6530692,135.074506 L99,99 L64.2625,133.7375 Z" id="Path" fill="#87738C"></path>
                <path d="M67.3026339,136.112847 C67.7884556,136.527778 68.2823778,136.93313 68.784115,137.328667 L99,99 L67.3026339,136.112847 Z" id="Path" fill="#87738C"></path>
                <path d="M70.6265509,138.052702 C71.137766,138.424122 71.6562248,138.785468 72.1816277,139.136531 L99,99 L70.6265509,138.052702 Z" id="Path" fill="#87738C"></path>
                <path d="M73.6053487,140.440304 C74.1478185,140.77273 74.6967633,141.094473 75.2518658,141.405345 L99,99 L73.6053487,140.440304 Z" id="Path" fill="#87738C"></path>
                <path d="M75.8297554,144.474165 C76.42503,144.777473 77.0262028,145.069063 77.6329262,145.348766 L99,99 L75.8297554,144.474165 Z" id="Path" fill="#87738C"></path>
                <path d="M77.4299529,151.0747 C78.1116311,151.35706 78.7987878,151.626008 79.4910258,151.881389 L99,99 L77.4299529,151.0747 Z" id="Path" fill="#87738C"></path>
                <path d="M79.0811651,160.30387 C79.8836567,160.564615 80.6911908,160.809578 81.5033005,161.038617 L99,99 L79.0811651,160.30387 Z" id="Path" fill="#87738C"></path>
                <path d="M81.6941766,171.083942 C82.6377835,171.310482 83.5857477,171.518472 84.537521,171.707792 L99,99 L81.6941766,171.083942 Z" id="Path" fill="#87738C"></path>
                <path d="M85.951697,181.383743 C87.0301323,181.55455 88.1118176,181.704165 89.1961273,181.832502 L99,99 L85.951697,181.383743 Z" id="Path" fill="#87738C"></path>
                <path d="M91.9296708,188.83705 C93.1056728,188.929604 94.2833788,188.999056 95.4621078,189.045369 L99,99 L91.9296708,188.83705 Z" id="Path" fill="#87738C"></path>
                <path d="M99,191.560278 C100.21165,191.560278 101.423183,191.536486 102.633899,191.488917 L99,99 L99,191.560278 Z" id="Path" fill="#87738C"></path>
                <path d="M106.070329,188.83705 C107.246331,188.744497 108.420403,188.628861 109.591864,188.490209 L99,99 L106.070329,188.83705 Z" id="Path" fill="#87738C"></path>
                <path d="M112.048303,181.383743 C113.126738,181.212935 114.201716,181.020969 115.272614,180.807954 L99,99 L112.048303,181.383743 Z" id="Path" fill="#87738C"></path>
                <path d="M116.305823,171.083942 C117.24943,170.857402 118.188498,170.612356 119.122484,170.348945 L99,99 L116.305823,171.083942 Z" id="Path" fill="#87738C"></path>
                <path d="M118.918835,160.30387 C119.721326,160.043125 120.518621,159.766647 121.310257,159.474597 L99,99 L118.918835,160.30387 Z" id="Path" fill="#87738C"></path>
                <path d="M120.570047,151.0747 C121.251725,150.79234 121.927793,150.496622 122.59786,150.187716 L99,99 L120.570047,151.0747 Z" id="Path" fill="#87738C"></path>
                <path d="M122.170245,144.474165 C122.765519,144.170858 123.354781,143.855891 123.937689,143.529447 L99,99 L122.170245,144.474165 Z" id="Path" fill="#87738C"></path>
                <path d="M124.394651,140.440304 C124.937121,140.107879 125.473011,139.764833 126.002012,139.411366 L99,99 L124.394651,140.440304 Z" id="Path" fill="#87738C"></path>
                <path d="M127.373449,138.052702 C127.884664,137.681283 128.388537,137.299861 128.884776,136.908658 L99,99 L127.373449,138.052702 Z" id="Path" fill="#87738C"></path>
                <path d="M130.697366,136.112847 C131.183188,135.697916 131.660815,135.273486 132.129972,134.839802 L99,99 L130.697366,136.112847 Z" id="Path" fill="#87738C"></path>
                <path d="M133.7375,133.7375 C134.192227,133.282773 134.637982,132.81916 135.074506,132.346931 L99,99 L133.7375,133.7375 Z" id="Path" fill="#87738C"></path>
                <path d="M136.112847,130.697366 C136.527778,130.211544 136.93313,129.717622 137.328667,129.215885 L99,99 L136.112847,130.697366 Z" id="Path" fill="#87738C"></path>
                <path d="M138.052702,127.373449 C138.424122,126.862234 138.785468,126.343775 139.136531,125.818372 L99,99 L138.052702,127.373449 Z" id="Path" fill="#87738C"></path>
                <path d="M140.440304,124.394651 C140.77273,123.852182 141.094473,123.303237 141.405345,122.748134 L99,99 L140.440304,124.394651 Z" id="Path" fill="#87738C"></path>
                <path d="M144.474165,122.170245 C144.777473,121.57497 145.069063,120.973797 145.348766,120.367074 L99,99 L144.474165,122.170245 Z" id="Path" fill="#87738C"></path>
                <path d="M151.0747,120.570047 C151.35706,119.888369 151.626008,119.201212 151.881389,118.508974 L99,99 L151.0747,120.570047 Z" id="Path" fill="#87738C"></path>
                <path d="M160.30387,118.918835 C160.564615,118.116343 160.809578,117.308809 161.038617,116.4967 L99,99 L160.30387,118.918835 Z" id="Path" fill="#87738C"></path>
                <path d="M171.083942,116.305823 C171.310482,115.362217 171.518472,114.414252 171.707792,113.462479 L99,99 L171.083942,116.305823 Z" id="Path" fill="#87738C"></path>
                <path d="M181.383743,112.048303 C181.55455,110.969868 181.704165,109.888182 181.832502,108.803873 L99,99 L181.383743,112.048303 Z" id="Path" fill="#87738C"></path>
                <path d="M188.83705,106.070329 C188.929604,104.894327 188.999056,103.716621 189.045369,102.537892 L99,99 L188.83705,106.070329 Z" id="Path" fill="#87738C"></path>
                <path d="M191.560278,99 C191.560278,97.7883499 191.536486,96.5768165 191.488917,95.3661006 L99,99 L191.560278,99 Z" id="Path" fill="#87738C"></path>
                <path d="M188.83705,91.9296708 C188.744497,90.7536688 188.628861,89.5795975 188.490209,88.4081357 L99,99 L188.83705,91.9296708 Z" id="Path" fill="#87738C"></path>
                <path d="M181.383743,85.951697 C181.212935,84.8732617 181.020969,83.7982842 180.807954,82.7273862 L99,99 L181.383743,85.951697 Z" id="Path" fill="#87738C"></path>
                <path d="M171.083942,81.6941766 C170.857402,80.7505697 170.612356,79.811502 170.348945,78.8775164 L99,99 L171.083942,81.6941766 Z" id="Path" fill="#87738C"></path>
                <path d="M160.30387,79.0811651 C160.043125,78.2786736 159.766647,77.4813792 159.474597,76.6897432 L99,99 L160.30387,79.0811651 Z" id="Path" fill="#87738C"></path>
                <path d="M151.0747,77.4299529 C150.79234,76.7482748 150.496622,76.0722067 150.187716,75.4021395 L99,99 L151.0747,77.4299529 Z" id="Path" fill="#87738C"></path>
                <path d="M144.474165,75.8297554 C144.170858,75.2344808 143.855891,74.6452193 143.529447,74.0623115 L99,99 L144.474165,75.8297554 Z" id="Path" fill="#87738C"></path>
                <path d="M140.440304,73.6053487 C140.107879,73.062879 139.764833,72.5269889 139.411366,71.9979884 L99,99 L140.440304,73.6053487 Z" id="Path" fill="#87738C"></path>
                <path d="M138.052702,70.6265509 C137.681283,70.1153357 137.299861,69.611463 136.908658,69.1152238 L99,99 L138.052702,70.6265509 Z" id="Path" fill="#87738C"></path>
                <path d="M136.112847,67.3026339 C135.697916,66.8168123 135.273486,66.3391849 134.839802,65.8700279 L99,99 L136.112847,67.3026339 Z" id="Path" fill="#87738C"></path>
                <path d="M133.7375,64.2625 C133.282773,63.8077726 132.81916,63.3620178 132.346931,62.9254935 L99,99 L133.7375,64.2625 Z" id="Path" fill="#87738C"></path>
                <path d="M130.697366,61.8871527 C130.211544,61.4722218 129.717622,61.0668703 129.215885,60.6713326 L99,99 L130.697366,61.8871527 Z" id="Path" fill="#87738C"></path>
                <path d="M127.373449,59.9472976 C126.862234,59.5758781 126.343775,59.2145324 125.818372,58.8634694 L99,99 L127.373449,59.9472976 Z" id="Path" fill="#87738C"></path>
                <path d="M124.394651,57.5596955 C123.852182,57.2272696 123.303237,56.9055275 122.748134,56.5946551 L99,99 L124.394651,57.5596955 Z" id="Path" fill="#87738C"></path>
                <path d="M122.170245,53.5258345 C121.57497,53.222527 120.973797,52.9309373 120.367074,52.6512339 L99,99 L122.170245,53.5258345 Z" id="Path" fill="#87738C"></path>
                <path d="M120.570047,46.9252998 C119.888369,46.6429395 119.201212,46.3739915 118.508974,46.1186115 L99,99 L120.570047,46.9252998 Z" id="Path" fill="#87738C"></path>
                <path d="M118.918835,37.6961298 C118.116343,37.4353845 117.308809,37.1904217 116.4967,36.9613831 L99,99 L118.918835,37.6961298 Z" id="Path" fill="#87738C"></path>
                <path d="M116.305823,26.9160577 C115.362217,26.6895177 114.414252,26.4815278 113.462479,26.2922083 L99,99 L116.305823,26.9160577 Z" id="Path" fill="#87738C"></path>
                <path d="M112.048303,16.6162571 C110.969868,16.4454498 109.888182,16.2958346 108.803873,16.167498 L99,99 L112.048303,16.6162571 Z" id="Path" fill="#87738C"></path>
                <path d="M106.070329,9.16294986 C104.894327,9.0703965 103.716621,9.00094354 102.537892,8.95463115 L99,99 L106.070329,9.16294986 Z" id="Path" fill="#87738C"></path>
                <path d="M99,35.395745 C98.1673955,35.395745 97.3348713,35.4120937 96.5029087,35.4447816 L99,99 L99,35.395745 Z" id="Path" fill="#E7A59A"></path>
                <path d="M94.1459377,37.3232909 C93.3385655,37.3868324 92.5325189,37.4662211 91.7282638,37.561411 L99,99 L94.1459377,37.3232909 Z" id="Path" fill="#E7A59A"></path>
                <path d="M90.0488672,42.4847714 C89.3090608,42.6019452 88.5716265,42.7336343 87.8369907,42.8797624 L99,99 L90.0488672,42.4847714 Z" id="Path" fill="#E7A59A"></path>
                <path d="M87.0606123,49.268871 C86.4096124,49.4251623 85.7617442,49.5942212 85.1173821,49.7759501 L99,99 L87.0606123,49.268871 Z" id="Path" fill="#E7A59A"></path>
                <path d="M84.9376437,55.7205176 C84.3710984,55.9045994 83.8082223,56.0997878 83.2493408,56.3059701 L99,99 L84.9376437,55.7205176 Z" id="Path" fill="#E7A59A"></path>
                <path d="M82.970448,60.3012382 C82.4638661,60.5110713 81.9614533,60.7308312 81.4635,60.9603908 L99,99 L82.970448,60.3012382 Z" id="Path" fill="#E7A59A"></path>
                <path d="M80.3715035,62.4395171 C79.8929125,62.6833714 79.4191559,62.9365996 78.9505076,63.1990552 L99,99 L80.3715035,62.4395171 Z" id="Path" fill="#E7A59A"></path>
                <path d="M76.7236462,62.6482945 C76.2477882,62.9399006 75.7777019,63.2408224 75.3136592,63.5508859 L99,99 L76.7236462,62.6482945 Z" id="Path" fill="#E7A59A"></path>
                <path d="M72.2518089,62.1842733 C71.7698767,62.5344176 71.2948662,62.8939911 70.8270521,63.262786 L99,99 L72.2518089,62.1842733 Z" id="Path" fill="#E7A59A"></path>
                <path d="M67.7628356,62.4259796 C67.2840674,62.8348863 66.8133745,63.2531544 66.351029,63.6805422 L99,99 L67.7628356,62.4259796 Z" id="Path" fill="#E7A59A"></path>
                <path d="M64.2625,64.2625 C63.8077726,64.7172274 63.3620178,65.1808398 62.9254935,65.6530692 L99,99 L64.2625,64.2625 Z" id="Path" fill="#E7A59A"></path>
                <path d="M62.4259796,67.7628356 C62.017073,68.2416038 61.6176066,68.728355 61.2278116,69.2228076 L99,99 L62.4259796,67.7628356 Z" id="Path" fill="#E7A59A"></path>
                <path d="M62.1842733,72.2518089 C61.8341291,72.7337411 61.4934816,73.2225022 61.1625279,73.7178094 L99,99 L62.1842733,72.2518089 Z" id="Path" fill="#E7A59A"></path>
                <path d="M62.6482945,76.7236462 C62.3566883,77.1995042 62.074454,77.6810422 61.8017548,78.1679817 L99,99 L62.6482945,76.7236462 Z" id="Path" fill="#E7A59A"></path>
                <path d="M62.4395171,80.3715035 C62.1956628,80.8500945 61.9612294,81.3334276 61.7363526,81.8212232 L99,99 L62.4395171,80.3715035 Z" id="Path" fill="#E7A59A"></path>
                <path d="M60.3012382,82.970448 C60.0914051,83.4770299 59.8915393,83.9876831 59.7017563,84.5021125 L99,99 L60.3012382,82.970448 Z" id="Path" fill="#E7A59A"></path>
                <path d="M55.7205176,84.9376437 C55.5364359,85.504189 55.3634964,86.0742943 55.201799,86.6476298 L99,99 L55.7205176,84.9376437 Z" id="Path" fill="#E7A59A"></path>
                <path d="M49.268871,87.0606123 C49.1125798,87.7116121 48.9690864,88.3656181 48.8384738,89.0222521 L99,99 L49.268871,87.0606123 Z" id="Path" fill="#E7A59A"></path>
                <path d="M42.4847714,90.0488672 C42.3675976,90.7886735 42.2649616,91.5307094 42.1769228,92.2745456 L99,99 L42.4847714,90.0488672 Z" id="Path" fill="#E7A59A"></path>
                <path d="M37.3232909,94.1459377 C37.2597493,94.9533099 37.2120671,95.7618519 37.1802718,96.5710963 L99,99 L37.3232909,94.1459377 Z" id="Path" fill="#E7A59A"></path>
                <path d="M35.395745,99 C35.395745,99.8326045 35.4120937,100.665129 35.4447816,101.497091 L99,99 L35.395745,99 Z" id="Path" fill="#E7A59A"></path>
                <path d="M37.3232909,103.854062 C37.3868324,104.661434 37.4662211,105.467481 37.561411,106.271736 L99,99 L37.3232909,103.854062 Z" id="Path" fill="#E7A59A"></path>
                <path d="M42.4847714,107.951133 C42.6019452,108.690939 42.7336343,109.428374 42.8797624,110.163009 L99,99 L42.4847714,107.951133 Z" id="Path" fill="#E7A59A"></path>
                <path d="M49.268871,110.939388 C49.4251623,111.590388 49.5942212,112.238256 49.7759501,112.882618 L99,99 L49.268871,110.939388 Z" id="Path" fill="#E7A59A"></path>
                <path d="M55.7205176,113.062356 C55.9045994,113.628902 56.0997878,114.191778 56.3059701,114.750659 L99,99 L55.7205176,113.062356 Z" id="Path" fill="#E7A59A"></path>
                <path d="M60.3012382,115.029552 C60.5110713,115.536134 60.7308312,116.038547 60.9603908,116.5365 L99,99 L60.3012382,115.029552 Z" id="Path" fill="#E7A59A"></path>
                <path d="M62.4395171,117.628496 C62.6833714,118.107087 62.9365996,118.580844 63.1990552,119.049492 L99,99 L62.4395171,117.628496 Z" id="Path" fill="#E7A59A"></path>
                <path d="M62.6482945,121.276354 C62.9399006,121.752212 63.2408224,122.222298 63.5508859,122.686341 L99,99 L62.6482945,121.276354 Z" id="Path" fill="#E7A59A"></path>
                <path d="M62.1842733,125.748191 C62.5344176,126.230123 62.8939911,126.705134 63.262786,127.172948 L99,99 L62.1842733,125.748191 Z" id="Path" fill="#E7A59A"></path>
                <path d="M62.4259796,130.237164 C62.8348863,130.715933 63.2531544,131.186625 63.6805422,131.648971 L99,99 L62.4259796,130.237164 Z" id="Path" fill="#E7A59A"></path>
                <path d="M64.2625,133.7375 C64.7172274,134.192227 65.1808398,134.637982 65.6530692,135.074506 L99,99 L64.2625,133.7375 Z" id="Path" fill="#E7A59A"></path>
                <path d="M67.7628356,135.57402 C68.2416038,135.982927 68.728355,136.382393 69.2228076,136.772188 L99,99 L67.7628356,135.57402 Z" id="Path" fill="#E7A59A"></path>
                <path d="M72.2518089,135.815727 C72.7337411,136.165871 73.2225022,136.506518 73.7178094,136.837472 L99,99 L72.2518089,135.815727 Z" id="Path" fill="#E7A59A"></path>
                <path d="M76.7236462,135.351706 C77.1995042,135.643312 77.6810422,135.925546 78.1679817,136.198245 L99,99 L76.7236462,135.351706 Z" id="Path" fill="#E7A59A"></path>
                <path d="M80.3715035,135.560483 C80.8500945,135.804337 81.3334276,136.038771 81.8212232,136.263647 L99,99 L80.3715035,135.560483 Z" id="Path" fill="#E7A59A"></path>
                <path d="M82.970448,137.698762 C83.4770299,137.908595 83.9876831,138.108461 84.5021125,138.298244 L99,99 L82.970448,137.698762 Z" id="Path" fill="#E7A59A"></path>
                <path d="M84.9376437,142.279482 C85.504189,142.463564 86.0742943,142.636504 86.6476298,142.798201 L99,99 L84.9376437,142.279482 Z" id="Path" fill="#E7A59A"></path>
                <path d="M87.0606123,148.731129 C87.7116121,148.88742 88.3656181,149.030914 89.0222521,149.161526 L99,99 L87.0606123,148.731129 Z" id="Path" fill="#E7A59A"></path>
                <path d="M90.0488672,155.515229 C90.7886735,155.632402 91.5307094,155.735038 92.2745456,155.823077 L99,99 L90.0488672,155.515229 Z" id="Path" fill="#E7A59A"></path>
                <path d="M94.1459377,160.676709 C94.9533099,160.740251 95.7618519,160.787933 96.5710963,160.819728 L99,99 L94.1459377,160.676709 Z" id="Path" fill="#E7A59A"></path>
                <path d="M99,162.604255 C99.8326045,162.604255 100.665129,162.587906 101.497091,162.555218 L99,99 L99,162.604255 Z" id="Path" fill="#E7A59A"></path>
                <path d="M103.854062,160.676709 C104.661434,160.613168 105.467481,160.533779 106.271736,160.438589 L99,99 L103.854062,160.676709 Z" id="Path" fill="#E7A59A"></path>
                <path d="M107.951133,155.515229 C108.690939,155.398055 109.428374,155.266366 110.163009,155.120238 L99,99 L107.951133,155.515229 Z" id="Path" fill="#E7A59A"></path>
                <path d="M110.939388,148.731129 C111.590388,148.574838 112.238256,148.405779 112.882618,148.22405 L99,99 L110.939388,148.731129 Z" id="Path" fill="#E7A59A"></path>
                <path d="M113.062356,142.279482 C113.628902,142.095401 114.191778,141.900212 114.750659,141.69403 L99,99 L113.062356,142.279482 Z" id="Path" fill="#E7A59A"></path>
                <path d="M115.029552,137.698762 C115.536134,137.488929 116.038547,137.269169 116.5365,137.039609 L99,99 L115.029552,137.698762 Z" id="Path" fill="#E7A59A"></path>
                <path d="M117.628496,135.560483 C118.107087,135.316629 118.580844,135.0634 119.049492,134.800945 L99,99 L117.628496,135.560483 Z" id="Path" fill="#E7A59A"></path>
                <path d="M121.276354,135.351706 C121.752212,135.060099 122.222298,134.759178 122.686341,134.449114 L99,99 L121.276354,135.351706 Z" id="Path" fill="#E7A59A"></path>
                <path d="M125.748191,135.815727 C126.230123,135.465582 126.705134,135.106009 127.172948,134.737214 L99,99 L125.748191,135.815727 Z" id="Path" fill="#E7A59A"></path>
                <path d="M130.237164,135.57402 C130.715933,135.165114 131.186625,134.746846 131.648971,134.319458 L99,99 L130.237164,135.57402 Z" id="Path" fill="#E7A59A"></path>
                <path d="M133.7375,133.7375 C134.192227,133.282773 134.637982,132.81916 135.074506,132.346931 L99,99 L133.7375,133.7375 Z" id="Path" fill="#E7A59A"></path>
                <path d="M135.57402,130.237164 C135.982927,129.758396 136.382393,129.271645 136.772188,128.777192 L99,99 L135.57402,130.237164 Z" id="Path" fill="#E7A59A"></path>
                <path d="M135.815727,125.748191 C136.165871,125.266259 136.506518,124.777498 136.837472,124.282191 L99,99 L135.815727,125.748191 Z" id="Path" fill="#E7A59A"></path>
                <path d="M135.351706,121.276354 C135.643312,120.800496 135.925546,120.318958 136.198245,119.832018 L99,99 L135.351706,121.276354 Z" id="Path" fill="#E7A59A"></path>
                <path d="M135.560483,117.628496 C135.804337,117.149906 136.038771,116.666572 136.263647,116.178777 L99,99 L135.560483,117.628496 Z" id="Path" fill="#E7A59A"></path>
                <path d="M137.698762,115.029552 C137.908595,114.52297 138.108461,114.012317 138.298244,113.497888 L99,99 L137.698762,115.029552 Z" id="Path" fill="#E7A59A"></path>
                <path d="M142.279482,113.062356 C142.463564,112.495811 142.636504,111.925706 142.798201,111.35237 L99,99 L142.279482,113.062356 Z" id="Path" fill="#E7A59A"></path>
                <path d="M148.731129,110.939388 C148.88742,110.288388 149.030914,109.634382 149.161526,108.977748 L99,99 L148.731129,110.939388 Z" id="Path" fill="#E7A59A"></path>
                <path d="M155.515229,107.951133 C155.632402,107.211326 155.735038,106.469291 155.823077,105.725454 L99,99 L155.515229,107.951133 Z" id="Path" fill="#E7A59A"></path>
                <path d="M160.676709,103.854062 C160.740251,103.04669 160.787933,102.238148 160.819728,101.428904 L99,99 L160.676709,103.854062 Z" id="Path" fill="#E7A59A"></path>
                <path d="M162.604255,99 C162.604255,98.1673955 162.587906,97.3348713 162.555218,96.5029087 L99,99 L162.604255,99 Z" id="Path" fill="#E7A59A"></path>
                <path d="M160.676709,94.1459377 C160.613168,93.3385655 160.533779,92.5325189 160.438589,91.7282638 L99,99 L160.676709,94.1459377 Z" id="Path" fill="#E7A59A"></path>
                <path d="M155.515229,90.0488672 C155.398055,89.3090608 155.266366,88.5716265 155.120238,87.8369907 L99,99 L155.515229,90.0488672 Z" id="Path" fill="#E7A59A"></path>
                <path d="M148.731129,87.0606123 C148.574838,86.4096124 148.405779,85.7617442 148.22405,85.1173821 L99,99 L148.731129,87.0606123 Z" id="Path" fill="#E7A59A"></path>
                <path d="M142.279482,84.9376437 C142.095401,84.3710984 141.900212,83.8082223 141.69403,83.2493408 L99,99 L142.279482,84.9376437 Z" id="Path" fill="#E7A59A"></path>
                <path d="M137.698762,82.970448 C137.488929,82.4638661 137.269169,81.9614533 137.039609,81.4635 L99,99 L137.698762,82.970448 Z" id="Path" fill="#E7A59A"></path>
                <path d="M135.560483,80.3715035 C135.316629,79.8929125 135.0634,79.4191559 134.800945,78.9505076 L99,99 L135.560483,80.3715035 Z" id="Path" fill="#E7A59A"></path>
                <path d="M135.351706,76.7236462 C135.060099,76.2477882 134.759178,75.7777019 134.449114,75.3136592 L99,99 L135.351706,76.7236462 Z" id="Path" fill="#E7A59A"></path>
                <path d="M135.815727,72.2518089 C135.465582,71.7698767 135.106009,71.2948662 134.737214,70.8270521 L99,99 L135.815727,72.2518089 Z" id="Path" fill="#E7A59A"></path>
                <path d="M135.57402,67.7628356 C135.165114,67.2840674 134.746846,66.8133745 134.319458,66.351029 L99,99 L135.57402,67.7628356 Z" id="Path" fill="#E7A59A"></path>
                <path d="M133.7375,64.2625 C133.282773,63.8077726 132.81916,63.3620178 132.346931,62.9254935 L99,99 L133.7375,64.2625 Z" id="Path" fill="#E7A59A"></path>
                <path d="M130.237164,62.4259796 C129.758396,62.017073 129.271645,61.6176066 128.777192,61.2278116 L99,99 L130.237164,62.4259796 Z" id="Path" fill="#E7A59A"></path>
                <path d="M125.748191,62.1842733 C125.266259,61.8341291 124.777498,61.4934816 124.282191,61.1625279 L99,99 L125.748191,62.1842733 Z" id="Path" fill="#E7A59A"></path>
                <path d="M121.276354,62.6482945 C120.800496,62.3566883 120.318958,62.074454 119.832018,61.8017548 L99,99 L121.276354,62.6482945 Z" id="Path" fill="#E7A59A"></path>
                <path d="M117.628496,62.4395171 C117.149906,62.1956628 116.666572,61.9612294 116.178777,61.7363526 L99,99 L117.628496,62.4395171 Z" id="Path" fill="#E7A59A"></path>
                <path d="M115.029552,60.3012382 C114.52297,60.0914051 114.012317,59.8915393 113.497888,59.7017563 L99,99 L115.029552,60.3012382 Z" id="Path" fill="#E7A59A"></path>
                <path d="M113.062356,55.7205176 C112.495811,55.5364359 111.925706,55.3634964 111.35237,55.201799 L99,99 L113.062356,55.7205176 Z" id="Path" fill="#E7A59A"></path>
                <path d="M110.939388,49.268871 C110.288388,49.1125798 109.634382,48.9690864 108.977748,48.8384738 L99,99 L110.939388,49.268871 Z" id="Path" fill="#E7A59A"></path>
                <path d="M107.951133,42.4847714 C107.211326,42.3675976 106.469291,42.2649616 105.725454,42.1769228 L99,99 L107.951133,42.4847714 Z" id="Path" fill="#E7A59A"></path>
                <path d="M103.854062,37.3232909 C103.04669,37.2597493 102.238148,37.2120671 101.428904,37.1802718 L99,99 L103.854062,37.3232909 Z" id="Path" fill="#E7A59A"></path>
                <path d="M99,49.8737564 C98.3569183,49.8737564 97.7138986,49.8863837 97.0713127,49.9116309 L99,99 L99,49.8737564 Z" id="Path" fill="#FFBC95"></path>
                <path d="M95.1733976,50.3784062 C94.536922,50.4284979 93.9014913,50.4910823 93.2674729,50.5661233 L99,99 L95.1733976,50.3784062 Z" id="Path" fill="#FFBC95"></path>
                <path d="M91.5312372,51.8440878 C90.913948,51.9418568 90.2986379,52.0517373 89.685663,52.1736656 L99,99 L91.5312372,51.8440878 Z" id="Path" fill="#FFBC95"></path>
                <path d="M88.228313,54.1326945 C87.6409824,54.2737 87.0564773,54.4262246 86.4751354,54.59018 L99,99 L88.228313,54.1326945 Z" id="Path" fill="#FFBC95"></path>
                <path d="M85.3648681,57.035379 C84.8155348,57.2138682 84.2697593,57.4031267 83.727857,57.603045 L99,99 L85.3648681,57.035379 Z" id="Path" fill="#FFBC95"></path>
                <path d="M82.970448,60.3012382 C82.4638661,60.5110713 81.9614533,60.7308312 81.4635,60.9603908 L99,99 L82.970448,60.3012382 Z" id="Path" fill="#FFBC95"></path>
                <path d="M80.9991577,63.6713577 C80.536692,63.9069958 80.0788977,64.1516919 79.6260397,64.4053046 L99,99 L80.9991577,63.6713577 Z" id="Path" fill="#FFBC95"></path>
                <path d="M79.3371996,66.9132261 C78.9171713,67.1706198 78.5022374,67.4362362 78.0926381,67.7099217 L99,99 L79.3371996,66.9132261 Z" id="Path" fill="#FFBC95"></path>
                <path d="M77.821651,69.8505034 C77.4400728,70.1277362 77.0639749,70.4124349 76.6935749,70.7044347 L99,99 L77.821651,69.8505034 Z" id="Path" fill="#FFBC95"></path>
                <path d="M76.2676723,72.383864 C75.9192567,72.681439 75.5767178,72.9858267 75.2402535,73.2968511 L99,99 L76.2676723,72.383864 Z" id="Path" fill="#FFBC95"></path>
                <path d="M74.5,74.5 C74.1792854,74.8207146 73.8648992,75.1476956 73.5570231,75.4807541 L99,99 L74.5,74.5 Z" id="Path" fill="#FFBC95"></path>
                <path d="M72.383864,76.2676723 C72.086289,76.6160879 71.795584,76.970313 71.5119171,77.3301427 L99,99 L72.383864,76.2676723 Z" id="Path" fill="#FFBC95"></path>
                <path d="M69.8505034,77.821651 C69.5732705,78.2032293 69.3035569,78.5902144 69.0415185,78.9823826 L99,99 L69.8505034,77.821651 Z" id="Path" fill="#FFBC95"></path>
                <path d="M66.9132261,79.3371996 C66.6558323,79.757228 66.4067109,80.18227 66.1660059,80.6120798 L99,99 L66.9132261,79.3371996 Z" id="Path" fill="#FFBC95"></path>
                <path d="M63.6713577,80.9991577 C63.4357197,81.4616234 63.2091851,81.9286714 62.9918851,82.4000316 L99,99 L63.6713577,80.9991577 Z" id="Path" fill="#FFBC95"></path>
                <path d="M60.3012382,82.970448 C60.0914051,83.4770299 59.8915393,83.9876831 59.7017563,84.5021125 L99,99 L60.3012382,82.970448 Z" id="Path" fill="#FFBC95"></path>
                <path d="M57.035379,85.3648681 C56.8568898,85.9142013 56.6892043,86.4669864 56.5324194,87.0229036 L99,99 L57.035379,85.3648681 Z" id="Path" fill="#FFBC95"></path>
                <path d="M54.1326945,88.228313 C53.9916889,88.8156435 53.8622295,89.4056861 53.7443911,89.9980997 L99,99 L54.1326945,88.228313 Z" id="Path" fill="#FFBC95"></path>
                <path d="M51.8440878,91.5312372 C51.7463188,92.1485265 51.66068,92.767676 51.5872211,93.3883278 L99,99 L51.8440878,91.5312372 Z" id="Path" fill="#FFBC95"></path>
                <path d="M50.3784062,95.1733976 C50.3283144,95.8098732 50.2907251,96.447271 50.2656599,97.0852226 L99,99 L50.3784062,95.1733976 Z" id="Path" fill="#FFBC95"></path>
                <path d="M49.8737564,99 C49.8737564,99.6430817 49.8863837,100.286101 49.9116309,100.928687 L99,99 L49.8737564,99 Z" id="Path" fill="#FFBC95"></path>
                <path d="M50.3784062,102.826602 C50.4284979,103.463078 50.4910823,104.098509 50.5661233,104.732527 L99,99 L50.3784062,102.826602 Z" id="Path" fill="#FFBC95"></path>
                <path d="M51.8440878,106.468763 C51.9418568,107.086052 52.0517373,107.701362 52.1736656,108.314337 L99,99 L51.8440878,106.468763 Z" id="Path" fill="#FFBC95"></path>
                <path d="M54.1326945,109.771687 C54.2737,110.359018 54.4262246,110.943523 54.59018,111.524865 L99,99 L54.1326945,109.771687 Z" id="Path" fill="#FFBC95"></path>
                <path d="M57.035379,112.635132 C57.2138682,113.184465 57.4031267,113.730241 57.603045,114.272143 L99,99 L57.035379,112.635132 Z" id="Path" fill="#FFBC95"></path>
                <path d="M60.3012382,115.029552 C60.5110713,115.536134 60.7308312,116.038547 60.9603908,116.5365 L99,99 L60.3012382,115.029552 Z" id="Path" fill="#FFBC95"></path>
                <path d="M63.6713577,117.000842 C63.9069958,117.463308 64.1516919,117.921102 64.4053046,118.37396 L99,99 L63.6713577,117.000842 Z" id="Path" fill="#FFBC95"></path>
                <path d="M66.9132261,118.6628 C67.1706198,119.082829 67.4362362,119.497763 67.7099217,119.907362 L99,99 L66.9132261,118.6628 Z" id="Path" fill="#FFBC95"></path>
                <path d="M69.8505034,120.178349 C70.1277362,120.559927 70.4124349,120.936025 70.7044347,121.306425 L99,99 L69.8505034,120.178349 Z" id="Path" fill="#FFBC95"></path>
                <path d="M72.383864,121.732328 C72.681439,122.080743 72.9858267,122.423282 73.2968511,122.759746 L99,99 L72.383864,121.732328 Z" id="Path" fill="#FFBC95"></path>
                <path d="M74.5,123.5 C74.8207146,123.820715 75.1476956,124.135101 75.4807541,124.442977 L99,99 L74.5,123.5 Z" id="Path" fill="#FFBC95"></path>
                <path d="M76.2676723,125.616136 C76.6160879,125.913711 76.970313,126.204416 77.3301427,126.488083 L99,99 L76.2676723,125.616136 Z" id="Path" fill="#FFBC95"></path>
                <path d="M77.821651,128.149497 C78.2032293,128.426729 78.5902144,128.696443 78.9823826,128.958481 L99,99 L77.821651,128.149497 Z" id="Path" fill="#FFBC95"></path>
                <path d="M79.3371996,131.086774 C79.757228,131.344168 80.18227,131.593289 80.6120798,131.833994 L99,99 L79.3371996,131.086774 Z" id="Path" fill="#FFBC95"></path>
                <path d="M80.9991577,134.328642 C81.4616234,134.56428 81.9286714,134.790815 82.4000316,135.008115 L99,99 L80.9991577,134.328642 Z" id="Path" fill="#FFBC95"></path>
                <path d="M82.970448,137.698762 C83.4770299,137.908595 83.9876831,138.108461 84.5021125,138.298244 L99,99 L82.970448,137.698762 Z" id="Path" fill="#FFBC95"></path>
                <path d="M85.3648681,140.964621 C85.9142013,141.14311 86.4669864,141.310796 87.0229036,141.467581 L99,99 L85.3648681,140.964621 Z" id="Path" fill="#FFBC95"></path>
                <path d="M88.228313,143.867306 C88.8156435,144.008311 89.4056861,144.137771 89.9980997,144.255609 L99,99 L88.228313,143.867306 Z" id="Path" fill="#FFBC95"></path>
                <path d="M91.5312372,146.155912 C92.1485265,146.253681 92.767676,146.33932 93.3883278,146.412779 L99,99 L91.5312372,146.155912 Z" id="Path" fill="#FFBC95"></path>
                <path d="M95.1733976,147.621594 C95.8098732,147.671686 96.447271,147.709275 97.0852226,147.73434 L99,99 L95.1733976,147.621594 Z" id="Path" fill="#FFBC95"></path>
                <path d="M99,148.126244 C99.6430817,148.126244 100.286101,148.113616 100.928687,148.088369 L99,99 L99,148.126244 Z" id="Path" fill="#FFBC95"></path>
                <path d="M102.826602,147.621594 C103.463078,147.571502 104.098509,147.508918 104.732527,147.433877 L99,99 L102.826602,147.621594 Z" id="Path" fill="#FFBC95"></path>
                <path d="M106.468763,146.155912 C107.086052,146.058143 107.701362,145.948263 108.314337,145.826334 L99,99 L106.468763,146.155912 Z" id="Path" fill="#FFBC95"></path>
                <path d="M109.771687,143.867306 C110.359018,143.7263 110.943523,143.573775 111.524865,143.40982 L99,99 L109.771687,143.867306 Z" id="Path" fill="#FFBC95"></path>
                <path d="M112.635132,140.964621 C113.184465,140.786132 113.730241,140.596873 114.272143,140.396955 L99,99 L112.635132,140.964621 Z" id="Path" fill="#FFBC95"></path>
                <path d="M115.029552,137.698762 C115.536134,137.488929 116.038547,137.269169 116.5365,137.039609 L99,99 L115.029552,137.698762 Z" id="Path" fill="#FFBC95"></path>
                <path d="M117.000842,134.328642 C117.463308,134.093004 117.921102,133.848308 118.37396,133.594695 L99,99 L117.000842,134.328642 Z" id="Path" fill="#FFBC95"></path>
                <path d="M118.6628,131.086774 C119.082829,130.82938 119.497763,130.563764 119.907362,130.290078 L99,99 L118.6628,131.086774 Z" id="Path" fill="#FFBC95"></path>
                <path d="M120.178349,128.149497 C120.559927,127.872264 120.936025,127.587565 121.306425,127.295565 L99,99 L120.178349,128.149497 Z" id="Path" fill="#FFBC95"></path>
                <path d="M121.732328,125.616136 C122.080743,125.318561 122.423282,125.014173 122.759746,124.703149 L99,99 L121.732328,125.616136 Z" id="Path" fill="#FFBC95"></path>
                <path d="M123.5,123.5 C123.820715,123.179285 124.135101,122.852304 124.442977,122.519246 L99,99 L123.5,123.5 Z" id="Path" fill="#FFBC95"></path>
                <path d="M125.616136,121.732328 C125.913711,121.383912 126.204416,121.029687 126.488083,120.669857 L99,99 L125.616136,121.732328 Z" id="Path" fill="#FFBC95"></path>
                <path d="M128.149497,120.178349 C128.426729,119.796771 128.696443,119.409786 128.958481,119.017617 L99,99 L128.149497,120.178349 Z" id="Path" fill="#FFBC95"></path>
                <path d="M131.086774,118.6628 C131.344168,118.242772 131.593289,117.81773 131.833994,117.38792 L99,99 L131.086774,118.6628 Z" id="Path" fill="#FFBC95"></path>
                <path d="M134.328642,117.000842 C134.56428,116.538377 134.790815,116.071329 135.008115,115.599968 L99,99 L134.328642,117.000842 Z" id="Path" fill="#FFBC95"></path>
                <path d="M137.698762,115.029552 C137.908595,114.52297 138.108461,114.012317 138.298244,113.497888 L99,99 L137.698762,115.029552 Z" id="Path" fill="#FFBC95"></path>
                <path d="M140.964621,112.635132 C141.14311,112.085799 141.310796,111.533014 141.467581,110.977096 L99,99 L140.964621,112.635132 Z" id="Path" fill="#FFBC95"></path>
                <path d="M143.867306,109.771687 C144.008311,109.184357 144.137771,108.594314 144.255609,108.0019 L99,99 L143.867306,109.771687 Z" id="Path" fill="#FFBC95"></path>
                <path d="M146.155912,106.468763 C146.253681,105.851473 146.33932,105.232324 146.412779,104.611672 L99,99 L146.155912,106.468763 Z" id="Path" fill="#FFBC95"></path>
                <path d="M147.621594,102.826602 C147.671686,102.190127 147.709275,101.552729 147.73434,100.914777 L99,99 L147.621594,102.826602 Z" id="Path" fill="#FFBC95"></path>
                <path d="M148.126244,99 C148.126244,98.3569183 148.113616,97.7138986 148.088369,97.0713127 L99,99 L148.126244,99 Z" id="Path" fill="#FFBC95"></path>
                <path d="M147.621594,95.1733976 C147.571502,94.536922 147.508918,93.9014913 147.433877,93.2674729 L99,99 L147.621594,95.1733976 Z" id="Path" fill="#FFBC95"></path>
                <path d="M146.155912,91.5312372 C146.058143,90.913948 145.948263,90.2986379 145.826334,89.685663 L99,99 L146.155912,91.5312372 Z" id="Path" fill="#FFBC95"></path>
                <path d="M143.867306,88.228313 C143.7263,87.6409824 143.573775,87.0564773 143.40982,86.4751354 L99,99 L143.867306,88.228313 Z" id="Path" fill="#FFBC95"></path>
                <path d="M140.964621,85.3648681 C140.786132,84.8155348 140.596873,84.2697593 140.396955,83.727857 L99,99 L140.964621,85.3648681 Z" id="Path" fill="#FFBC95"></path>
                <path d="M137.698762,82.970448 C137.488929,82.4638661 137.269169,81.9614533 137.039609,81.4635 L99,99 L137.698762,82.970448 Z" id="Path" fill="#FFBC95"></path>
                <path d="M134.328642,80.9991577 C134.093004,80.536692 133.848308,80.0788977 133.594695,79.6260397 L99,99 L134.328642,80.9991577 Z" id="Path" fill="#FFBC95"></path>
                <path d="M131.086774,79.3371996 C130.82938,78.9171713 130.563764,78.5022374 130.290078,78.0926381 L99,99 L131.086774,79.3371996 Z" id="Path" fill="#FFBC95"></path>
                <path d="M128.149497,77.821651 C127.872264,77.4400728 127.587565,77.0639749 127.295565,76.6935749 L99,99 L128.149497,77.821651 Z" id="Path" fill="#FFBC95"></path>
                <path d="M125.616136,76.2676723 C125.318561,75.9192567 125.014173,75.5767178 124.703149,75.2402535 L99,99 L125.616136,76.2676723 Z" id="Path" fill="#FFBC95"></path>
                <path d="M123.5,74.5 C123.179285,74.1792854 122.852304,73.8648992 122.519246,73.5570231 L99,99 L123.5,74.5 Z" id="Path" fill="#FFBC95"></path>
                <path d="M121.732328,72.383864 C121.383912,72.086289 121.029687,71.795584 120.669857,71.5119171 L99,99 L121.732328,72.383864 Z" id="Path" fill="#FFBC95"></path>
                <path d="M120.178349,69.8505034 C119.796771,69.5732705 119.409786,69.3035569 119.017617,69.0415185 L99,99 L120.178349,69.8505034 Z" id="Path" fill="#FFBC95"></path>
                <path d="M118.6628,66.9132261 C118.242772,66.6558323 117.81773,66.4067109 117.38792,66.1660059 L99,99 L118.6628,66.9132261 Z" id="Path" fill="#FFBC95"></path>
                <path d="M117.000842,63.6713577 C116.538377,63.4357197 116.071329,63.2091851 115.599968,62.9918851 L99,99 L117.000842,63.6713577 Z" id="Path" fill="#FFBC95"></path>
                <path d="M115.029552,60.3012382 C114.52297,60.0914051 114.012317,59.8915393 113.497888,59.7017563 L99,99 L115.029552,60.3012382 Z" id="Path" fill="#FFBC95"></path>
                <path d="M112.635132,57.035379 C112.085799,56.8568898 111.533014,56.6892043 110.977096,56.5324194 L99,99 L112.635132,57.035379 Z" id="Path" fill="#FFBC95"></path>
                <path d="M109.771687,54.1326945 C109.184357,53.9916889 108.594314,53.8622295 108.0019,53.7443911 L99,99 L109.771687,54.1326945 Z" id="Path" fill="#FFBC95"></path>
                <path d="M106.468763,51.8440878 C105.851473,51.7463188 105.232324,51.66068 104.611672,51.5872211 L99,99 L106.468763,51.8440878 Z" id="Path" fill="#FFBC95"></path>
                <path d="M102.826602,50.3784062 C102.190127,50.3283144 101.552729,50.2907251 100.914777,50.2656599 L99,99 L102.826602,50.3784062 Z" id="Path" fill="#FFBC95"></path>
                <circle id="Oval" fill="#111C27" cx="99" cy="99" r="34.6482323"></circle>
            </g>
        </g>
    </g>
</svg>