<?xml version="1.0" encoding="UTF-8"?>
<svg width="198px" height="198px" viewBox="0 0 198 198" version="1.1" xmlns="http://www.w3.org/2000/svg" xmlns:xlink="http://www.w3.org/1999/xlink">
    <!-- Generator: Sketch 55.1 (78136) - https://sketchapp.com -->
    <title>decentralized</title>
    <desc>Created with Sketch.</desc>
    <g id="Drip" stroke="none" stroke-width="1" fill="none" fill-rule="evenodd">
        <g id="decentralized" fill-rule="nonzero">
            <circle id="Oval" fill="#282D48" cx="99" cy="99" r="98.9949494"></circle>
            <path d="M99,15.3492678 C96.8097475,15.3492678 94.6203399,15.4352898 92.4368392,15.6071351 L99,99 L99,15.3492678 Z" id="Path" fill="#87738C"></path>
            <path d="M92.5766462,17.3835511 C90.4396579,17.5517358 88.3100995,17.8037856 86.1928945,18.1391179 L99,99 L92.5766462,17.3835511 Z" id="Path" fill="#87738C"></path>
            <path d="M86.4716464,19.8990888 C84.4005233,20.2271225 82.3430826,20.6363729 80.3040812,21.1258938 L99,99 L86.4716464,19.8990888 Z" id="Path" fill="#87738C"></path>
            <path d="M80.7200596,22.8585686 C78.7264254,23.3371978 76.7523584,23.8939423 74.8024227,24.5275148 L99,99 L80.7200596,22.8585686 Z" id="Path" fill="#87738C"></path>
            <path d="M75.3530629,26.222211 C73.4475,26.841366 71.5669894,27.5351229 69.715879,28.301878 L99,99 L75.3530629,26.222211 Z" id="Path" fill="#87738C"></path>
            <path d="M70.3977861,29.9481473 C68.5897805,30.6970478 66.8118854,31.5166686 65.0682113,32.405115 L99,99 L70.3977861,29.9481473 Z" id="Path" fill="#87738C"></path>
            <path d="M65.8771811,33.9928076 C64.175078,34.8600724 62.5076934,35.7938527 60.8788821,36.7919895 L99,99 L65.8771811,33.9928076 Z" id="Path" fill="#87738C"></path>
            <path d="M61.8099271,38.3113167 C60.2208968,39.2850757 58.670724,40.3208681 57.1629924,41.4162992 L99,99 L61.8099271,38.3113167 Z" id="Path" fill="#87738C"></path>
            <path d="M58.2103723,42.8578939 C56.7403865,43.9259011 55.3129137,45.0512299 53.9312543,46.2312786 L99,99 L58.2103723,42.8578939 Z" id="Path" fill="#87738C"></path>
            <path d="M55.0885116,47.5862529 C53.7423299,48.7360007 52.4418237,49.9381763 51.19,51.19 L99,99 L55.0885116,47.5862529 Z" id="Path" fill="#87738C"></path>
            <path d="M52.45,52.45 C51.2311672,53.6688328 50.0606742,54.935065 48.9412272,56.245769 L99,99 L52.45,52.45 Z" id="Path" fill="#87738C"></path>
            <path d="M50.2962015,57.4030264 C49.2070553,58.6782527 48.1684137,59.9957633 47.1826781,61.352512 L99,99 L50.2962015,57.4030264 Z" id="Path" fill="#87738C"></path>
            <path d="M48.6242729,62.3998919 C47.6659611,63.7188948 46.7598228,65.0750266 45.907953,66.4651518 L99,99 L48.6242729,62.3998919 Z" id="Path" fill="#87738C"></path>
            <path d="M47.4272803,67.3961967 C46.5997883,68.7465409 45.8256503,70.1288639 45.1066559,71.5399696 L99,99 L47.4272803,67.3961967 Z" id="Path" fill="#87738C"></path>
            <path d="M46.6943486,72.3489394 C45.9965358,73.7184742 45.3527806,75.1148872 44.7645713,76.5349499 L99,99 L46.6943486,72.3489394 Z" id="Path" fill="#87738C"></path>
            <path d="M46.4108407,77.216857 C45.840486,78.5938149 45.3244313,79.9926423 44.8638698,81.410105 L99,99 L46.4108407,77.216857 Z" id="Path" fill="#87738C"></path>
            <path d="M46.558566,81.9607452 C46.1124221,83.3338352 45.7203782,84.7239178 45.383341,86.127779 L99,99 L46.558566,81.9607452 Z" id="Path" fill="#87738C"></path>
            <path d="M47.1160158,86.5437574 C46.7898702,87.9022516 46.5172052,89.273031 46.2986512,90.6529264 L99,99 L47.1160158,86.5437574 Z" id="Path" fill="#87738C"></path>
            <path d="M48.0586221,90.9316784 C47.8473667,92.2654919 47.6885784,93.607088 47.5826241,94.9533648 L99,99 L48.0586221,90.9316784 Z" id="Path" fill="#87738C"></path>
            <path d="M49.3590402,95.0931717 C49.2567465,96.3929361 49.2055405,97.6962165 49.2055405,99 L99,99 L49.3590402,95.0931717 Z" id="Path" fill="#87738C"></path>
            <path d="M15.3492678,99 C15.3492678,101.190253 15.4352898,103.37966 15.6071351,105.563161 L99,99 L15.3492678,99 Z" id="Path" fill="#87738C"></path>
            <path d="M17.3835511,105.423354 C17.5517358,107.560342 17.8037856,109.689901 18.1391179,111.807106 L99,99 L17.3835511,105.423354 Z" id="Path" fill="#87738C"></path>
            <path d="M19.8990888,111.528354 C20.2271225,113.599477 20.6363729,115.656917 21.1258938,117.695919 L99,99 L19.8990888,111.528354 Z" id="Path" fill="#87738C"></path>
            <path d="M22.8585686,117.27994 C23.3371978,119.273575 23.8939423,121.247642 24.5275148,123.197577 L99,99 L22.8585686,117.27994 Z" id="Path" fill="#87738C"></path>
            <path d="M26.222211,122.646937 C26.841366,124.5525 27.5351229,126.433011 28.301878,128.284121 L99,99 L26.222211,122.646937 Z" id="Path" fill="#87738C"></path>
            <path d="M29.9481473,127.602214 C30.6970478,129.41022 31.5166686,131.188115 32.405115,132.931789 L99,99 L29.9481473,127.602214 Z" id="Path" fill="#87738C"></path>
            <path d="M33.9928076,132.122819 C34.8600724,133.824922 35.7938527,135.492307 36.7919895,137.121118 L99,99 L33.9928076,132.122819 Z" id="Path" fill="#87738C"></path>
            <path d="M38.3113167,136.190073 C39.2850757,137.779103 40.3208681,139.329276 41.4162992,140.837008 L99,99 L38.3113167,136.190073 Z" id="Path" fill="#87738C"></path>
            <path d="M42.8578939,139.789628 C43.9259011,141.259613 45.0512299,142.687086 46.2312786,144.068746 L99,99 L42.8578939,139.789628 Z" id="Path" fill="#87738C"></path>
            <path d="M47.5862529,142.911488 C48.7360007,144.25767 49.9381763,145.558176 51.19,146.81 L99,99 L47.5862529,142.911488 Z" id="Path" fill="#87738C"></path>
            <path d="M52.45,145.55 C53.6688328,146.768833 54.935065,147.939326 56.245769,149.058773 L99,99 L52.45,145.55 Z" id="Path" fill="#87738C"></path>
            <path d="M57.4030264,147.703798 C58.6782527,148.792945 59.9957633,149.831586 61.352512,150.817322 L99,99 L57.4030264,147.703798 Z" id="Path" fill="#87738C"></path>
            <path d="M62.3998919,149.375727 C63.7188948,150.334039 65.0750266,151.240177 66.4651518,152.092047 L99,99 L62.3998919,149.375727 Z" id="Path" fill="#87738C"></path>
            <path d="M67.3961967,150.57272 C68.7465409,151.400212 70.1288639,152.17435 71.5399696,152.893344 L99,99 L67.3961967,150.57272 Z" id="Path" fill="#87738C"></path>
            <path d="M72.3489394,151.305651 C73.7184742,152.003464 75.1148872,152.647219 76.5349499,153.235429 L99,99 L72.3489394,151.305651 Z" id="Path" fill="#87738C"></path>
            <path d="M77.216857,151.589159 C78.5938149,152.159514 79.9926423,152.675569 81.410105,153.13613 L99,99 L77.216857,151.589159 Z" id="Path" fill="#87738C"></path>
            <path d="M81.9607452,151.441434 C83.3338352,151.887578 84.7239178,152.279622 86.127779,152.616659 L99,99 L81.9607452,151.441434 Z" id="Path" fill="#87738C"></path>
            <path d="M86.5437574,150.883984 C87.9022516,151.21013 89.273031,151.482795 90.6529264,151.701349 L99,99 L86.5437574,150.883984 Z" id="Path" fill="#87738C"></path>
            <path d="M90.9316784,149.941378 C92.2654919,150.152633 93.607088,150.311422 94.9533648,150.417376 L99,99 L90.9316784,149.941378 Z" id="Path" fill="#87738C"></path>
            <path d="M95.0931717,148.64096 C96.3929361,148.743254 97.6962165,148.79446 99,148.79446 L99,99 L95.0931717,148.64096 Z" id="Path" fill="#87738C"></path>
            <path d="M99,182.650732 C101.190253,182.650732 103.37966,182.56471 105.563161,182.392865 L99,99 L99,182.650732 Z" id="Path" fill="#87738C"></path>
            <path d="M105.423354,180.616449 C107.560342,180.448264 109.689901,180.196214 111.807106,179.860882 L99,99 L105.423354,180.616449 Z" id="Path" fill="#87738C"></path>
            <path d="M111.528354,178.100911 C113.599477,177.772878 115.656917,177.363627 117.695919,176.874106 L99,99 L111.528354,178.100911 Z" id="Path" fill="#87738C"></path>
            <path d="M117.27994,175.141431 C119.273575,174.662802 121.247642,174.106058 123.197577,173.472485 L99,99 L117.27994,175.141431 Z" id="Path" fill="#87738C"></path>
            <path d="M122.646937,171.777789 C124.5525,171.158634 126.433011,170.464877 128.284121,169.698122 L99,99 L122.646937,171.777789 Z" id="Path" fill="#87738C"></path>
            <path d="M127.602214,168.051853 C129.41022,167.302952 131.188115,166.483331 132.931789,165.594885 L99,99 L127.602214,168.051853 Z" id="Path" fill="#87738C"></path>
            <path d="M132.122819,164.007192 C133.824922,163.139928 135.492307,162.206147 137.121118,161.208011 L99,99 L132.122819,164.007192 Z" id="Path" fill="#87738C"></path>
            <path d="M136.190073,159.688683 C137.779103,158.714924 139.329276,157.679132 140.837008,156.583701 L99,99 L136.190073,159.688683 Z" id="Path" fill="#87738C"></path>
            <path d="M139.789628,155.142106 C141.259613,154.074099 142.687086,152.94877 144.068746,151.768721 L99,99 L139.789628,155.142106 Z" id="Path" fill="#87738C"></path>
            <path d="M142.911488,150.413747 C144.25767,149.263999 145.558176,148.061824 146.81,146.81 L99,99 L142.911488,150.413747 Z" id="Path" fill="#87738C"></path>
            <path d="M145.55,145.55 C146.768833,144.331167 147.939326,143.064935 149.058773,141.754231 L99,99 L145.55,145.55 Z" id="Path" fill="#87738C"></path>
            <path d="M147.703798,140.596974 C148.792945,139.321747 149.831586,138.004237 150.817322,136.647488 L99,99 L147.703798,140.596974 Z" id="Path" fill="#87738C"></path>
            <path d="M149.375727,135.600108 C150.334039,134.281105 151.240177,132.924973 152.092047,131.534848 L99,99 L149.375727,135.600108 Z" id="Path" fill="#87738C"></path>
            <path d="M150.57272,130.603803 C151.400212,129.253459 152.17435,127.871136 152.893344,126.46003 L99,99 L150.57272,130.603803 Z" id="Path" fill="#87738C"></path>
            <path d="M151.305651,125.651061 C152.003464,124.281526 152.647219,122.885113 153.235429,121.46505 L99,99 L151.305651,125.651061 Z" id="Path" fill="#87738C"></path>
            <path d="M151.589159,120.783143 C152.159514,119.406185 152.675569,118.007358 153.13613,116.589895 L99,99 L151.589159,120.783143 Z" id="Path" fill="#87738C"></path>
            <path d="M151.441434,116.039255 C151.887578,114.666165 152.279622,113.276082 152.616659,111.872221 L99,99 L151.441434,116.039255 Z" id="Path" fill="#87738C"></path>
            <path d="M150.883984,111.456243 C151.21013,110.097748 151.482795,108.726969 151.701349,107.347074 L99,99 L150.883984,111.456243 Z" id="Path" fill="#87738C"></path>
            <path d="M149.941378,107.068322 C150.152633,105.734508 150.311422,104.392912 150.417376,103.046635 L99,99 L149.941378,107.068322 Z" id="Path" fill="#87738C"></path>
            <path d="M148.64096,102.906828 C148.743254,101.607064 148.79446,100.303783 148.79446,99 L99,99 L148.64096,102.906828 Z" id="Path" fill="#87738C"></path>
            <path d="M182.650732,99 C182.650732,96.8097475 182.56471,94.6203399 182.392865,92.4368392 L99,99 L182.650732,99 Z" id="Path" fill="#87738C"></path>
            <path d="M180.616449,92.5766462 C180.448264,90.4396579 180.196214,88.3100995 179.860882,86.1928945 L99,99 L180.616449,92.5766462 Z" id="Path" fill="#87738C"></path>
            <path d="M178.100911,86.4716464 C177.772878,84.4005233 177.363627,82.3430826 176.874106,80.3040812 L99,99 L178.100911,86.4716464 Z" id="Path" fill="#87738C"></path>
            <path d="M175.141431,80.7200596 C174.662802,78.7264254 174.106058,76.7523584 173.472485,74.8024227 L99,99 L175.141431,80.7200596 Z" id="Path" fill="#87738C"></path>
            <path d="M171.777789,75.3530629 C171.158634,73.4475 170.464877,71.5669894 169.698122,69.715879 L99,99 L171.777789,75.3530629 Z" id="Path" fill="#87738C"></path>
            <path d="M168.051853,70.3977861 C167.302952,68.5897805 166.483331,66.8118854 165.594885,65.0682113 L99,99 L168.051853,70.3977861 Z" id="Path" fill="#87738C"></path>
            <path d="M164.007192,65.8771811 C163.139928,64.175078 162.206147,62.5076934 161.208011,60.8788821 L99,99 L164.007192,65.8771811 Z" id="Path" fill="#87738C"></path>
            <path d="M159.688683,61.8099271 C158.714924,60.2208968 157.679132,58.670724 156.583701,57.1629924 L99,99 L159.688683,61.8099271 Z" id="Path" fill="#87738C"></path>
            <path d="M155.142106,58.2103723 C154.074099,56.7403865 152.94877,55.3129137 151.768721,53.9312543 L99,99 L155.142106,58.2103723 Z" id="Path" fill="#87738C"></path>
            <path d="M150.413747,55.0885116 C149.263999,53.7423299 148.061824,52.4418237 146.81,51.19 L99,99 L150.413747,55.0885116 Z" id="Path" fill="#87738C"></path>
            <path d="M145.55,52.45 C144.331167,51.2311672 143.064935,50.0606742 141.754231,48.9412272 L99,99 L145.55,52.45 Z" id="Path" fill="#87738C"></path>
            <path d="M140.596974,50.2962015 C139.321747,49.2070553 138.004237,48.1684137 136.647488,47.1826781 L99,99 L140.596974,50.2962015 Z" id="Path" fill="#87738C"></path>
            <path d="M135.600108,48.6242729 C134.281105,47.6659611 132.924973,46.7598228 131.534848,45.907953 L99,99 L135.600108,48.6242729 Z" id="Path" fill="#87738C"></path>
            <path d="M130.603803,47.4272803 C129.253459,46.5997883 127.871136,45.8256503 126.46003,45.1066559 L99,99 L130.603803,47.4272803 Z" id="Path" fill="#87738C"></path>
            <path d="M125.651061,46.6943486 C124.281526,45.9965358 122.885113,45.3527806 121.46505,44.7645713 L99,99 L125.651061,46.6943486 Z" id="Path" fill="#87738C"></path>
            <path d="M120.783143,46.4108407 C119.406185,45.840486 118.007358,45.3244313 116.589895,44.8638698 L99,99 L120.783143,46.4108407 Z" id="Path" fill="#87738C"></path>
            <path d="M116.039255,46.558566 C114.666165,46.1124221 113.276082,45.7203782 111.872221,45.383341 L99,99 L116.039255,46.558566 Z" id="Path" fill="#87738C"></path>
            <path d="M111.456243,47.1160158 C110.097748,46.7898702 108.726969,46.5172052 107.347074,46.2986512 L99,99 L111.456243,47.1160158 Z" id="Path" fill="#87738C"></path>
            <path d="M107.068322,48.0586221 C105.734508,47.8473667 104.392912,47.6885784 103.046635,47.5826241 L99,99 L107.068322,48.0586221 Z" id="Path" fill="#87738C"></path>
            <path d="M102.906828,49.3590402 C101.607064,49.2567465 100.303783,49.2055405 99,49.2055405 L99,99 L102.906828,49.3590402 Z" id="Path" fill="#87738C"></path>
            <path d="M99,50.9874496 C97.7428728,50.9874496 96.4862306,51.0368232 95.2329787,51.1354562 L99,99 L99,50.9874496 Z" id="Path" fill="#E7A59A"></path>
            <path d="M95.2329787,51.1354562 C93.9797268,51.2340893 92.7308322,51.3819057 91.4891824,51.5785637 L99,99 L95.2329787,51.1354562 Z" id="Path" fill="#E7A59A"></path>
            <path d="M91.4891824,51.5785637 C90.2475325,51.7752217 89.0140854,52.0205696 87.7916927,52.3140401 L99,99 L91.4891824,51.5785637 Z" id="Path" fill="#E7A59A"></path>
            <path d="M87.7916927,52.3140401 C86.5693,52.6075107 85.358905,52.9488774 84.163306,53.337351 L99,99 L87.7916927,52.3140401 Z" id="Path" fill="#E7A59A"></path>
            <path d="M84.163306,53.337351 C82.967707,53.7258247 81.7878265,54.1611056 80.6263924,54.6421873 L99,99 L84.163306,53.337351 Z" id="Path" fill="#E7A59A"></path>
            <path d="M80.6263924,54.6421873 C79.4649583,55.1232691 78.3228668,55.6497805 77.2027582,56.2205043 L99,99 L80.6263924,54.6421873 Z" id="Path" fill="#E7A59A"></path>
            <path d="M77.2027582,56.2205043 C76.0826497,56.7912281 74.9853884,57.4057239 73.9135113,58.0625711 L99,99 L77.2027582,56.2205043 Z" id="Path" fill="#E7A59A"></path>
            <path d="M73.9135113,58.0625711 C72.8416342,58.7194183 71.7959682,59.4181099 70.7789309,60.1570307 L99,99 L73.9135113,58.0625711 Z" id="Path" fill="#E7A59A"></path>
            <path d="M70.7789309,60.1570307 C69.7618937,60.8959516 68.7742698,61.6745314 67.8183428,62.4909702 L99,99 L70.7789309,60.1570307 Z" id="Path" fill="#E7A59A"></path>
            <path d="M67.8183428,62.4909702 C66.8624158,63.307409 65.9389232,64.1610768 65.05,65.05 L99,99 L67.8183428,62.4909702 Z" id="Path" fill="#E7A59A"></path>
            <path d="M65.05,65.05 C64.1610768,65.9389232 63.307409,66.8624158 62.4909702,67.8183428 L99,99 L65.05,65.05 Z" id="Path" fill="#E7A59A"></path>
            <path d="M62.4909702,67.8183428 C61.6745314,68.7742698 60.8959516,69.7618937 60.1570307,70.7789309 L99,99 L62.4909702,67.8183428 Z" id="Path" fill="#E7A59A"></path>
            <path d="M60.1570307,70.7789309 C59.4181099,71.7959682 58.7194183,72.8416342 58.0625711,73.9135113 L99,99 L60.1570307,70.7789309 Z" id="Path" fill="#E7A59A"></path>
            <path d="M58.0625711,73.9135113 C57.4057239,74.9853884 56.7912281,76.0826497 56.2205043,77.2027582 L99,99 L58.0625711,73.9135113 Z" id="Path" fill="#E7A59A"></path>
            <path d="M56.2205043,77.2027582 C55.6497805,78.3228668 55.1232691,79.4649583 54.6421873,80.6263924 L99,99 L56.2205043,77.2027582 Z" id="Path" fill="#E7A59A"></path>
            <path d="M54.6421873,80.6263924 C54.1611056,81.7878265 53.7258247,82.967707 53.337351,84.163306 L99,99 L54.6421873,80.6263924 Z" id="Path" fill="#E7A59A"></path>
            <path d="M53.337351,84.163306 C52.9488774,85.358905 52.6075107,86.5693 52.3140401,87.7916927 L99,99 L53.337351,84.163306 Z" id="Path" fill="#E7A59A"></path>
            <path d="M52.3140401,87.7916927 C52.0205696,89.0140854 51.7752217,90.2475325 51.5785637,91.4891824 L99,99 L52.3140401,87.7916927 Z" id="Path" fill="#E7A59A"></path>
            <path d="M51.5785637,91.4891824 C51.3819057,92.7308322 51.2340893,93.9797268 51.1354562,95.2329787 L99,99 L51.5785637,91.4891824 Z" id="Path" fill="#E7A59A"></path>
            <path d="M51.1354562,95.2329787 C51.0368232,96.4862306 50.9874496,97.7428728 50.9874496,99 L99,99 L51.1354562,95.2329787 Z" id="Path" fill="#E7A59A"></path>
            <path d="M50.9874496,99 C50.9874496,100.257127 51.0368232,101.513769 51.1354562,102.767021 L99,99 L50.9874496,99 Z" id="Path" fill="#E7A59A"></path>
            <path d="M51.1354562,102.767021 C51.2340893,104.020273 51.3819057,105.269168 51.5785637,106.510818 L99,99 L51.1354562,102.767021 Z" id="Path" fill="#E7A59A"></path>
            <path d="M51.5785637,106.510818 C51.7752217,107.752468 52.0205696,108.985915 52.3140401,110.208307 L99,99 L51.5785637,106.510818 Z" id="Path" fill="#E7A59A"></path>
            <path d="M52.3140401,110.208307 C52.6075107,111.4307 52.9488774,112.641095 53.337351,113.836694 L99,99 L52.3140401,110.208307 Z" id="Path" fill="#E7A59A"></path>
            <path d="M53.337351,113.836694 C53.7258247,115.032293 54.1611056,116.212174 54.6421873,117.373608 L99,99 L53.337351,113.836694 Z" id="Path" fill="#E7A59A"></path>
            <path d="M54.6421873,117.373608 C55.1232691,118.535042 55.6497805,119.677133 56.2205043,120.797242 L99,99 L54.6421873,117.373608 Z" id="Path" fill="#E7A59A"></path>
            <path d="M56.2205043,120.797242 C56.7912281,121.91735 57.4057239,123.014612 58.0625711,124.086489 L99,99 L56.2205043,120.797242 Z" id="Path" fill="#E7A59A"></path>
            <path d="M58.0625711,124.086489 C58.7194183,125.158366 59.4181099,126.204032 60.1570307,127.221069 L99,99 L58.0625711,124.086489 Z" id="Path" fill="#E7A59A"></path>
            <path d="M60.1570307,127.221069 C60.8959516,128.238106 61.6745314,129.22573 62.4909702,130.181657 L99,99 L60.1570307,127.221069 Z" id="Path" fill="#E7A59A"></path>
            <path d="M62.4909702,130.181657 C63.307409,131.137584 64.1610768,132.061077 65.05,132.95 L99,99 L62.4909702,130.181657 Z" id="Path" fill="#E7A59A"></path>
            <path d="M65.05,132.95 C65.9389232,133.838923 66.8624158,134.692591 67.8183428,135.50903 L99,99 L65.05,132.95 Z" id="Path" fill="#E7A59A"></path>
            <path d="M67.8183428,135.50903 C68.7742698,136.325469 69.7618937,137.104048 70.7789309,137.842969 L99,99 L67.8183428,135.50903 Z" id="Path" fill="#E7A59A"></path>
            <path d="M70.7789309,137.842969 C71.7959682,138.58189 72.8416342,139.280582 73.9135113,139.937429 L99,99 L70.7789309,137.842969 Z" id="Path" fill="#E7A59A"></path>
            <path d="M73.9135113,139.937429 C74.9853884,140.594276 76.0826497,141.208772 77.2027582,141.779496 L99,99 L73.9135113,139.937429 Z" id="Path" fill="#E7A59A"></path>
            <path d="M77.2027582,141.779496 C78.3228668,142.350219 79.4649583,142.876731 80.6263924,143.357813 L99,99 L77.2027582,141.779496 Z" id="Path" fill="#E7A59A"></path>
            <path d="M80.6263924,143.357813 C81.7878265,143.838894 82.967707,144.274175 84.163306,144.662649 L99,99 L80.6263924,143.357813 Z" id="Path" fill="#E7A59A"></path>
            <path d="M84.163306,144.662649 C85.358905,145.051123 86.5693,145.392489 87.7916927,145.68596 L99,99 L84.163306,144.662649 Z" id="Path" fill="#E7A59A"></path>
            <path d="M87.7916927,145.68596 C89.0140854,145.97943 90.2475325,146.224778 91.4891824,146.421436 L99,99 L87.7916927,145.68596 Z" id="Path" fill="#E7A59A"></path>
            <path d="M91.4891824,146.421436 C92.7308322,146.618094 93.9797268,146.765911 95.2329787,146.864544 L99,99 L91.4891824,146.421436 Z" id="Path" fill="#E7A59A"></path>
            <path d="M95.2329787,146.864544 C96.4862306,146.963177 97.7428728,147.01255 99,147.01255 L99,99 L95.2329787,146.864544 Z" id="Path" fill="#E7A59A"></path>
            <path d="M99,147.01255 C100.257127,147.01255 101.513769,146.963177 102.767021,146.864544 L99,99 L99,147.01255 Z" id="Path" fill="#E7A59A"></path>
            <path d="M102.767021,146.864544 C104.020273,146.765911 105.269168,146.618094 106.510818,146.421436 L99,99 L102.767021,146.864544 Z" id="Path" fill="#E7A59A"></path>
            <path d="M106.510818,146.421436 C107.752468,146.224778 108.985915,145.97943 110.208307,145.68596 L99,99 L106.510818,146.421436 Z" id="Path" fill="#E7A59A"></path>
            <path d="M110.208307,145.68596 C111.4307,145.392489 112.641095,145.051123 113.836694,144.662649 L99,99 L110.208307,145.68596 Z" id="Path" fill="#E7A59A"></path>
            <path d="M113.836694,144.662649 C115.032293,144.274175 116.212174,143.838894 117.373608,143.357813 L99,99 L113.836694,144.662649 Z" id="Path" fill="#E7A59A"></path>
            <path d="M117.373608,143.357813 C118.535042,142.876731 119.677133,142.350219 120.797242,141.779496 L99,99 L117.373608,143.357813 Z" id="Path" fill="#E7A59A"></path>
            <path d="M120.797242,141.779496 C121.91735,141.208772 123.014612,140.594276 124.086489,139.937429 L99,99 L120.797242,141.779496 Z" id="Path" fill="#E7A59A"></path>
            <path d="M124.086489,139.937429 C125.158366,139.280582 126.204032,138.58189 127.221069,137.842969 L99,99 L124.086489,139.937429 Z" id="Path" fill="#E7A59A"></path>
            <path d="M127.221069,137.842969 C128.238106,137.104048 129.22573,136.325469 130.181657,135.50903 L99,99 L127.221069,137.842969 Z" id="Path" fill="#E7A59A"></path>
            <path d="M130.181657,135.50903 C131.137584,134.692591 132.061077,133.838923 132.95,132.95 L99,99 L130.181657,135.50903 Z" id="Path" fill="#E7A59A"></path>
            <path d="M132.95,132.95 C133.838923,132.061077 134.692591,131.137584 135.50903,130.181657 L99,99 L132.95,132.95 Z" id="Path" fill="#E7A59A"></path>
            <path d="M135.50903,130.181657 C136.325469,129.22573 137.104048,128.238106 137.842969,127.221069 L99,99 L135.50903,130.181657 Z" id="Path" fill="#E7A59A"></path>
            <path d="M137.842969,127.221069 C138.58189,126.204032 139.280582,125.158366 139.937429,124.086489 L99,99 L137.842969,127.221069 Z" id="Path" fill="#E7A59A"></path>
            <path d="M139.937429,124.086489 C140.594276,123.014612 141.208772,121.91735 141.779496,120.797242 L99,99 L139.937429,124.086489 Z" id="Path" fill="#E7A59A"></path>
            <path d="M141.779496,120.797242 C142.350219,119.677133 142.876731,118.535042 143.357813,117.373608 L99,99 L141.779496,120.797242 Z" id="Path" fill="#E7A59A"></path>
            <path d="M143.357813,117.373608 C143.838894,116.212174 144.274175,115.032293 144.662649,113.836694 L99,99 L143.357813,117.373608 Z" id="Path" fill="#E7A59A"></path>
            <path d="M144.662649,113.836694 C145.051123,112.641095 145.392489,111.4307 145.68596,110.208307 L99,99 L144.662649,113.836694 Z" id="Path" fill="#E7A59A"></path>
            <path d="M145.68596,110.208307 C145.97943,108.985915 146.224778,107.752468 146.421436,106.510818 L99,99 L145.68596,110.208307 Z" id="Path" fill="#E7A59A"></path>
            <path d="M146.421436,106.510818 C146.618094,105.269168 146.765911,104.020273 146.864544,102.767021 L99,99 L146.421436,106.510818 Z" id="Path" fill="#E7A59A"></path>
            <path d="M146.864544,102.767021 C146.963177,101.513769 147.01255,100.257127 147.01255,99 L99,99 L146.864544,102.767021 Z" id="Path" fill="#E7A59A"></path>
            <path d="M147.01255,99 C147.01255,97.7428728 146.963177,96.4862306 146.864544,95.2329787 L99,99 L147.01255,99 Z" id="Path" fill="#E7A59A"></path>
            <path d="M146.864544,95.2329787 C146.765911,93.9797268 146.618094,92.7308322 146.421436,91.4891824 L99,99 L146.864544,95.2329787 Z" id="Path" fill="#E7A59A"></path>
            <path d="M146.421436,91.4891824 C146.224778,90.2475325 145.97943,89.0140854 145.68596,87.7916927 L99,99 L146.421436,91.4891824 Z" id="Path" fill="#E7A59A"></path>
            <path d="M145.68596,87.7916927 C145.392489,86.5693 145.051123,85.358905 144.662649,84.163306 L99,99 L145.68596,87.7916927 Z" id="Path" fill="#E7A59A"></path>
            <path d="M144.662649,84.163306 C144.274175,82.967707 143.838894,81.7878265 143.357813,80.6263924 L99,99 L144.662649,84.163306 Z" id="Path" fill="#E7A59A"></path>
            <path d="M143.357813,80.6263924 C142.876731,79.4649583 142.350219,78.3228668 141.779496,77.2027582 L99,99 L143.357813,80.6263924 Z" id="Path" fill="#E7A59A"></path>
            <path d="M141.779496,77.2027582 C141.208772,76.0826497 140.594276,74.9853884 139.937429,73.9135113 L99,99 L141.779496,77.2027582 Z" id="Path" fill="#E7A59A"></path>
            <path d="M139.937429,73.9135113 C139.280582,72.8416342 138.58189,71.7959682 137.842969,70.7789309 L99,99 L139.937429,73.9135113 Z" id="Path" fill="#E7A59A"></path>
            <path d="M137.842969,70.7789309 C137.104048,69.7618937 136.325469,68.7742698 135.50903,67.8183428 L99,99 L137.842969,70.7789309 Z" id="Path" fill="#E7A59A"></path>
            <path d="M135.50903,67.8183428 C134.692591,66.8624158 133.838923,65.9389232 132.95,65.05 L99,99 L135.50903,67.8183428 Z" id="Path" fill="#E7A59A"></path>
            <path d="M132.95,65.05 C132.061077,64.1610768 131.137584,63.307409 130.181657,62.4909702 L99,99 L132.95,65.05 Z" id="Path" fill="#E7A59A"></path>
            <path d="M130.181657,62.4909702 C129.22573,61.6745314 128.238106,60.8959516 127.221069,60.1570307 L99,99 L130.181657,62.4909702 Z" id="Path" fill="#E7A59A"></path>
            <path d="M127.221069,60.1570307 C126.204032,59.4181099 125.158366,58.7194183 124.086489,58.0625711 L99,99 L127.221069,60.1570307 Z" id="Path" fill="#E7A59A"></path>
            <path d="M124.086489,58.0625711 C123.014612,57.4057239 121.91735,56.7912281 120.797242,56.2205043 L99,99 L124.086489,58.0625711 Z" id="Path" fill="#E7A59A"></path>
            <path d="M120.797242,56.2205043 C119.677133,55.6497805 118.535042,55.1232691 117.373608,54.6421873 L99,99 L120.797242,56.2205043 Z" id="Path" fill="#E7A59A"></path>
            <path d="M117.373608,54.6421873 C116.212174,54.1611056 115.032293,53.7258247 113.836694,53.337351 L99,99 L117.373608,54.6421873 Z" id="Path" fill="#E7A59A"></path>
            <path d="M113.836694,53.337351 C112.641095,52.9488774 111.4307,52.6075107 110.208307,52.3140401 L99,99 L113.836694,53.337351 Z" id="Path" fill="#E7A59A"></path>
            <path d="M110.208307,52.3140401 C108.985915,52.0205696 107.752468,51.7752217 106.510818,51.5785637 L99,99 L110.208307,52.3140401 Z" id="Path" fill="#E7A59A"></path>
            <path d="M106.510818,51.5785637 C105.269168,51.3819057 104.020273,51.2340893 102.767021,51.1354562 L99,99 L106.510818,51.5785637 Z" id="Path" fill="#E7A59A"></path>
            <path d="M102.767021,51.1354562 C101.513769,51.0368232 100.257127,50.9874496 99,50.9874496 L99,99 L102.767021,51.1354562 Z" id="Path" fill="#E7A59A"></path>
            <path d="M99,55.4422223 C97.8595135,55.4422223 96.7194669,55.4870148 95.5824961,55.5764964 L99,99 L99,55.4422223 Z" id="Path" fill="#FFBC95"></path>
            <path d="M95.5550733,55.2280564 C94.4089792,55.3182559 93.2668699,55.4534335 92.1313858,55.6332765 L99,99 L95.5550733,55.2280564 Z" id="Path" fill="#FFBC95"></path>
            <path d="M92.0770463,55.2901906 C90.9325791,55.4714564 89.7956726,55.6976011 88.6689553,55.968102 L99,99 L92.0770463,55.2901906 Z" id="Path" fill="#FFBC95"></path>
            <path d="M88.5888681,55.6345149 C87.4534165,55.9071127 86.3291091,56.2242002 85.2185454,56.5850442 L99,99 L88.5888681,55.6345149 Z" id="Path" fill="#FFBC95"></path>
            <path d="M85.1145135,56.2648668 C83.9955665,56.6284347 82.8913303,57.035809 81.8043579,57.4860477 L99,99 L85.1145135,56.2648668 Z" id="Path" fill="#FFBC95"></path>
            <path d="M81.6787738,57.1828607 C80.5838629,57.6363876 79.5071867,58.1327421 78.4512344,58.6707767 L99,99 L81.6787738,57.1828607 Z" id="Path" fill="#FFBC95"></path>
            <path d="M78.3070212,58.3877425 C77.2436581,58.929553 76.2019849,59.5129181 75.1844098,60.1364889 L99,99 L78.3070212,58.3877425 Z" id="Path" fill="#FFBC95"></path>
            <path d="M75.0249495,59.8762735 C74.0005611,60.5040195 73.0012226,61.1717562 72.0292444,61.8779396 L99,99 L75.0249495,59.8762735 Z" id="Path" fill="#FFBC95"></path>
            <path d="M71.8582945,61.6426473 C70.8801556,62.3533068 69.9303051,63.1021085 69.0109392,63.8873212 L99,99 L71.8582945,61.6426473 Z" id="Path" fill="#FFBC95"></path>
            <path d="M68.8325399,63.6784424 C67.9077048,64.4683262 67.0142492,65.2942281 66.1542386,66.1542386 L99,99 L68.8325399,63.6784424 Z" id="Path" fill="#FFBC95"></path>
            <path d="M65.9726136,65.9726136 C65.1078476,66.8373797 64.2773787,67.7357758 63.4831272,68.6657249 L99,99 L65.9726136,65.9726136 Z" id="Path" fill="#FFBC95"></path>
            <path d="M63.3025796,68.5115227 C62.5042906,69.4461991 61.7430188,70.4118677 61.0205245,71.4062959 L99,99 L63.3025796,68.5115227 Z" id="Path" fill="#FFBC95"></path>
            <path d="M60.845331,71.2790103 C60.1195039,72.2780256 59.4331931,73.3051623 58.7879853,74.3580457 L99,99 L60.845331,71.2790103 Z" id="Path" fill="#FFBC95"></path>
            <path d="M58.6222906,74.2565079 C57.9744243,75.3137297 57.3683302,76.3959886 56.8054096,77.5007824 L99,99 L58.6222906,74.2565079 Z" id="Path" fill="#FFBC95"></path>
            <path d="M56.6531247,77.4231893 C56.0881725,78.5319704 55.5669856,79.6625122 55.0907689,80.812201 L99,99 L56.6531247,77.4231893 Z" id="Path" fill="#FFBC95"></path>
            <path d="M54.9554743,80.7561601 C54.4777903,81.9093913 54.0455837,83.0809386 53.6598537,84.2680934 L99,99 L54.9554743,80.7561601 Z" id="Path" fill="#FFBC95"></path>
            <path d="M53.5447119,84.2306816 C53.1580023,85.4208512 52.8181858,86.6257497 52.526048,87.8425913 L99,99 L53.5447119,84.2306816 Z" id="Path" fill="#FFBC95"></path>
            <path d="M52.433725,87.8204265 C52.1410068,89.0396854 51.8962879,90.2699705 51.7001341,91.5084372 L99,99 L52.433725,87.8204265 Z" id="Path" fill="#FFBC95"></path>
            <path d="M51.6327341,91.4977621 C51.4363008,92.7379936 51.2886532,93.9854616 51.1901328,95.2372818 L99,99 L51.6327341,91.4977621 Z" id="Path" fill="#FFBC95"></path>
            <path d="M51.1491465,95.2340562 C51.0505416,96.4869496 51.0011821,97.7432324 51.0011821,99 L99,99 L51.1491465,95.2340562 Z" id="Path" fill="#FFBC95"></path>
            <path d="M50.9874496,99 C50.9874496,100.257127 51.0368232,101.513769 51.1354562,102.767021 L99,99 L50.9874496,99 Z" id="Path" fill="#FFBC95"></path>
            <path d="M51.1491465,102.765944 C51.2477513,104.018837 51.3955255,105.267375 51.5921272,106.508669 L99,99 L51.1491465,102.765944 Z" id="Path" fill="#FFBC95"></path>
            <path d="M51.6327341,106.502238 C51.8291675,107.742469 52.0742351,108.974508 52.3673704,110.195504 L99,99 L51.6327341,106.502238 Z" id="Path" fill="#FFBC95"></path>
            <path d="M52.433725,110.179574 C52.7264432,111.398832 53.0669347,112.606125 53.4544125,113.798658 L99,99 L52.433725,110.179574 Z" id="Path" fill="#FFBC95"></path>
            <path d="M53.5447119,113.769318 C53.9314214,114.959488 54.3647256,116.13401 54.8436227,117.29017 L99,99 L53.5447119,113.769318 Z" id="Path" fill="#FFBC95"></path>
            <path d="M54.9554743,117.24384 C55.4331583,118.397071 55.9559511,119.531096 56.5226441,120.643294 L99,99 L54.9554743,117.24384 Z" id="Path" fill="#FFBC95"></path>
            <path d="M56.6531247,120.576811 C57.2180768,121.685592 57.8263584,122.771757 58.476563,123.832794 L99,99 L56.6531247,120.576811 Z" id="Path" fill="#FFBC95"></path>
            <path d="M58.6222906,123.743492 C59.270157,124.800714 59.9592958,125.832083 60.6881137,126.835215 L99,99 L58.6222906,123.743492 Z" id="Path" fill="#FFBC95"></path>
            <path d="M60.845331,126.72099 C61.5711581,127.720005 62.3359414,128.690128 63.1379129,129.629116 L99,99 L60.845331,126.72099 Z" id="Path" fill="#FFBC95"></path>
            <path d="M63.3025796,129.488477 C64.1008687,130.423154 64.9355591,131.326117 65.8047212,132.195279 L99,99 L63.3025796,129.488477 Z" id="Path" fill="#FFBC95"></path>
            <path d="M65.9726136,132.027386 C66.8373797,132.892152 67.7357758,133.722621 68.6657249,134.516873 L99,99 L65.9726136,132.027386 Z" id="Path" fill="#FFBC95"></path>
            <path d="M68.8325399,134.321558 C69.757375,135.111441 70.7128759,135.864698 71.6968336,136.579585 L99,99 L68.8325399,134.321558 Z" id="Path" fill="#FFBC95"></path>
            <path d="M71.8582945,136.357353 C72.8364334,137.068012 73.8421061,137.739981 74.8729874,138.371706 L99,99 L71.8582945,136.357353 Z" id="Path" fill="#FFBC95"></path>
            <path d="M75.0249495,138.123727 C76.049338,138.751473 77.0979859,139.338744 78.1684688,139.884182 L99,99 L75.0249495,138.123727 Z" id="Path" fill="#FFBC95"></path>
            <path d="M78.3070212,139.612258 C79.3703843,140.154068 80.4546167,140.653906 81.5572118,141.110616 L99,99 L78.3070212,139.612258 Z" id="Path" fill="#FFBC95"></path>
            <path d="M81.6787738,140.817139 C82.7736846,141.270666 83.8859853,141.681016 85.0131043,142.047239 L99,99 L81.6787738,140.817139 Z" id="Path" fill="#FFBC95"></path>
            <path d="M85.1145135,141.735133 C86.2334605,142.098701 87.3662549,142.418182 88.5102777,142.692838 L99,99 L85.1145135,141.735133 Z" id="Path" fill="#FFBC95"></path>
            <path d="M88.5888681,142.365485 C89.7243198,142.638083 90.8700397,142.865981 92.0233789,143.048652 L99,99 L88.5888681,142.365485 Z" id="Path" fill="#FFBC95"></path>
            <path d="M92.0770463,142.709809 C93.2215135,142.891075 94.3726584,143.027322 95.5278196,143.118235 L99,99 L92.0770463,142.709809 Z" id="Path" fill="#FFBC95"></path>
            <path d="M95.5550733,142.771944 C96.7011674,142.862143 97.850362,142.907295 99,142.907295 L99,99 L95.5550733,142.771944 Z" id="Path" fill="#FFBC95"></path>
            <path d="M99,142.557778 C100.140487,142.557778 101.280533,142.512985 102.417504,142.423504 L99,99 L99,142.557778 Z" id="Path" fill="#FFBC95"></path>
            <path d="M102.390081,142.075064 C103.517929,141.9863 104.641855,141.853275 105.759261,141.676295 L99,99 L102.390081,142.075064 Z" id="Path" fill="#FFBC95"></path>
            <path d="M105.704922,141.333209 C106.813345,141.157652 107.914446,140.938629 109.005678,140.676648 L99,99 L105.704922,141.333209 Z" id="Path" fill="#FFBC95"></path>
            <path d="M108.925591,140.343061 C110.008089,140.083176 111.079962,139.780876 112.138733,139.436861 L99,99 L108.925591,140.343061 Z" id="Path" fill="#FFBC95"></path>
            <path d="M112.034701,139.116683 C113.085088,138.775392 114.121666,138.392978 115.142038,137.970326 L99,99 L112.034701,139.116683 Z" id="Path" fill="#FFBC95"></path>
            <path d="M115.016454,137.667139 C116.028887,137.247776 117.024459,136.78881 118.000869,136.291305 L99,99 L115.016454,137.667139 Z" id="Path" fill="#FFBC95"></path>
            <path d="M117.856656,136.008271 C118.825655,135.514541 119.774888,134.982945 120.702162,134.41471 L99,99 L117.856656,136.008271 Z" id="Path" fill="#FFBC95"></path>
            <path d="M120.542702,134.154495 C121.463163,133.590436 122.361115,132.990443 123.234483,132.355904 L99,99 L120.542702,134.154495 Z" id="Path" fill="#FFBC95"></path>
            <path d="M123.063533,132.120612 C123.93074,131.490549 124.772867,130.82667 125.587967,130.130509 L99,99 L123.063533,132.120612 Z" id="Path" fill="#FFBC95"></path>
            <path d="M125.409567,129.92163 C126.219198,129.230141 127.001358,128.50712 127.754239,127.754239 L99,99 L125.409567,129.92163 Z" id="Path" fill="#FFBC95"></path>
            <path d="M127.572614,127.572614 C128.320739,126.824488 129.039193,126.047269 129.726315,125.242752 L99,99 L127.572614,127.572614 Z" id="Path" fill="#FFBC95"></path>
            <path d="M129.545768,125.08855 C130.228852,124.288761 130.880261,123.462452 131.498489,122.611535 L99,99 L129.545768,125.08855 Z" id="Path" fill="#FFBC95"></path>
            <path d="M131.323296,122.484249 C131.938191,121.637918 132.519609,120.767764 133.066207,119.875798 L99,99 L131.323296,122.484249 Z" id="Path" fill="#FFBC95"></path>
            <path d="M132.900512,119.774261 C133.444451,118.886633 133.953318,117.977985 134.425938,117.050417 L99,99 L132.900512,119.774261 Z" id="Path" fill="#FFBC95"></path>
            <path d="M134.273653,116.972824 C134.744241,116.049243 135.178374,115.107536 135.575048,114.149881 L99,99 L134.273653,116.972824 Z" id="Path" fill="#FFBC95"></path>
            <path d="M135.439753,114.09384 C135.83496,113.139727 136.192541,112.17046 136.51167,111.188281 L99,99 L135.439753,114.09384 Z" id="Path" fill="#FFBC95"></path>
            <path d="M136.396529,111.150869 C136.714678,110.171704 136.994249,109.180422 137.234594,108.179314 L99,99 L136.396529,111.150869 Z" id="Path" fill="#FFBC95"></path>
            <path d="M137.142271,108.157149 C137.382035,107.158458 137.582484,106.150736 137.743152,105.136313 L99,99 L137.142271,108.157149 Z" id="Path" fill="#FFBC95"></path>
            <path d="M137.675753,105.125637 C137.836142,104.112978 137.956697,103.094411 138.03714,102.07229 L99,99 L137.675753,105.125637 Z" id="Path" fill="#FFBC95"></path>
            <path d="M137.996154,102.069064 C138.076512,101.048016 138.116738,100.024205 138.116738,99 L99,99 L137.996154,102.069064 Z" id="Path" fill="#FFBC95"></path>
            <path d="M138.103005,99 C138.103005,97.9761541 138.062794,96.9527033 137.982463,95.9320136 L99,99 L138.103005,99 Z" id="Path" fill="#FFBC95"></path>
            <path d="M137.996154,95.9309361 C137.915795,94.909888 137.795367,93.8923898 137.635146,92.8807941 L99,99 L137.996154,95.9309361 Z" id="Path" fill="#FFBC95"></path>
            <path d="M137.675753,92.8743626 C137.515363,91.8617036 137.315263,90.8557346 137.075916,89.8587813 L99,99 L137.675753,92.8743626 Z" id="Path" fill="#FFBC95"></path>
            <path d="M137.142271,89.842851 C136.902506,88.8441603 136.623611,87.8552717 136.306229,86.8784713 L99,99 L137.142271,89.842851 Z" id="Path" fill="#FFBC95"></path>
            <path d="M136.396529,86.8491313 C136.078379,85.8699666 135.721895,84.903675 135.327901,83.9524906 L99,99 L136.396529,86.8491313 Z" id="Path" fill="#FFBC95"></path>
            <path d="M135.439753,83.9061601 C135.044546,82.952047 134.612019,82.0138237 134.143172,81.0936593 L99,99 L135.439753,83.9061601 Z" id="Path" fill="#FFBC95"></path>
            <path d="M134.273653,81.0271761 C133.803065,80.1035954 133.296385,79.1988532 132.754785,78.3150415 L99,99 L134.273653,81.0271761 Z" id="Path" fill="#FFBC95"></path>
            <path d="M132.900512,78.2257394 C132.356573,77.338112 131.777983,76.4721902 131.166078,75.629976 L99,99 L132.900512,78.2257394 Z" id="Path" fill="#FFBC95"></path>
            <path d="M131.323296,75.5157509 C130.708401,74.6694203 130.060503,73.8475661 129.381101,73.0520885 L99,99 L131.323296,75.5157509 Z" id="Path" fill="#FFBC95"></path>
            <path d="M129.545768,72.9114498 C128.862683,72.1116607 128.148451,71.3390082 127.404721,70.5952788 L99,99 L129.545768,72.9114498 Z" id="Path" fill="#FFBC95"></path>
            <path d="M127.572614,70.4273864 C126.824488,69.6792609 126.047269,68.9608067 125.242752,68.2736848 L99,99 L127.572614,70.4273864 Z" id="Path" fill="#FFBC95"></path>
            <path d="M125.409567,68.0783695 C124.599937,67.3868798 123.763461,66.727455 122.902072,66.1016198 L99,99 L125.409567,68.0783695 Z" id="Path" fill="#FFBC95"></path>
            <path d="M123.063533,65.8793879 C122.196326,65.2493251 121.304708,64.6535649 120.39074,64.0934846 L99,99 L123.063533,65.8793879 Z" id="Path" fill="#FFBC95"></path>
            <path d="M120.542702,63.845505 C119.622241,63.2814459 118.679982,62.7537554 117.718103,62.2636537 L99,99 L120.542702,63.845505 Z" id="Path" fill="#FFBC95"></path>
            <path d="M117.856656,61.9917293 C116.887657,61.4979997 115.899641,61.0425181 114.894892,60.6263373 L99,99 L117.856656,61.9917293 Z" id="Path" fill="#FFBC95"></path>
            <path d="M115.016454,60.3328607 C114.00402,59.913497 112.975507,59.5340584 111.933291,59.1954221 L99,99 L115.016454,60.3328607 Z" id="Path" fill="#FFBC95"></path>
            <path d="M112.034701,58.8833165 C110.984313,58.542025 109.920927,58.242119 108.847,57.984292 L99,99 L112.034701,58.8833165 Z" id="Path" fill="#FFBC95"></path>
            <path d="M108.925591,57.6569394 C107.843093,57.3970546 106.750806,57.1797852 105.651254,57.0056334 L99,99 L108.925591,57.6569394 Z" id="Path" fill="#FFBC95"></path>
            <path d="M105.704922,56.666791 C104.596498,56.491234 103.481608,56.359278 102.362827,56.2712281 L99,99 L105.704922,56.666791 Z" id="Path" fill="#FFBC95"></path>
            <path d="M102.390081,55.9249364 C101.262234,55.8361728 100.131335,55.7917397 99,55.7917397 L99,99 L102.390081,55.9249364 Z" id="Path" fill="#FFBC95"></path>
            <circle id="Oval" fill="#111C27" cx="99" cy="99" r="34.6482323"></circle>
        </g>
    </g>
</svg>