<?xml version="1.0" encoding="UTF-8"?>
<svg width="198px" height="198px" viewBox="0 0 198 198" version="1.1" xmlns="http://www.w3.org/2000/svg" xmlns:xlink="http://www.w3.org/1999/xlink">
    <!-- Generator: Sketch 55.1 (78136) - https://sketchapp.com -->
    <title>intersubjective</title>
    <desc>Created with Sketch.</desc>
    <g id="Drip" stroke="none" stroke-width="1" fill="none" fill-rule="evenodd">
        <g id="Artboard-Copy-5" transform="translate(-35.000000, -1630.000000)" fill-rule="nonzero">
            <g id="intersubjective" transform="translate(35.000000, 1630.000000)">
                <circle id="Oval" fill="#282D48" cx="99" cy="99" r="98.9949494"></circle>
                <path d="M99,6.43972234 C97.5459993,6.43972234 96.0922004,6.47398301 94.6398138,6.54247582 L99,99 L99,6.43972234 Z" id="Path" fill="#87738C"></path>
                <path d="M94.2656529,8.66327527 C92.8465813,8.73764566 91.429459,8.84544336 90.0154661,8.98657862 L99,99 L94.2656529,8.66327527 Z" id="Path" fill="#87738C"></path>
                <path d="M89.8908057,12.3318052 C88.5293619,12.4748987 87.1714788,12.6500521 85.818287,12.8571195 L99,99 L89.8908057,12.3318052 Z" id="Path" fill="#87738C"></path>
                <path d="M86.0367238,17.1530953 C84.7510162,17.3567314 83.4702853,17.5906344 82.1955975,17.8546095 L99,99 L86.0367238,17.1530953 Z" id="Path" fill="#87738C"></path>
                <path d="M82.7812996,22.6970136 C81.5826796,22.9517882 80.3902293,23.2347705 79.2049415,23.5457249 L99,99 L82.7812996,22.6970136 Z" id="Path" fill="#87738C"></path>
                <path d="M80.0989972,28.4604971 C78.990914,28.7574071 77.8899807,29.0803856 76.797114,29.4291639 L99,99 L80.0989972,28.4604971 Z" id="Path" fill="#87738C"></path>
                <path d="M77.8617453,33.9431414 C76.8397872,34.2751957 75.8257953,34.6312843 74.8206137,35.0111108 L99,99 L77.8617453,33.9431414 Z" id="Path" fill="#87738C"></path>
                <path d="M75.8611276,38.7211766 C74.9142263,39.084658 73.9760211,39.4704007 73.0472932,39.8780838 L99,99 L75.8611276,38.7211766 Z" id="Path" fill="#87738C"></path>
                <path d="M73.8481392,42.5079958 C72.9607239,42.9030986 72.0827415,43.3190567 71.2149231,43.7555239 L99,99 L73.8481392,42.5079958 Z" id="Path" fill="#87738C"></path>
                <path d="M71.5833339,45.1917631 C70.738077,45.622443 69.9030855,46.0729799 69.0790548,46.5429988 L99,99 L71.5833339,45.1917631 Z" id="Path" fill="#87738C"></path>
                <path d="M68.8880217,46.8445237 C68.0687275,47.3175435 67.2606928,47.8098026 66.4645904,48.3208913 L99,99 L68.8880217,46.8445237 Z" id="Path" fill="#87738C"></path>
                <path d="M65.6867049,47.702024 C64.8808809,48.2253323 64.0874995,48.7675555 63.3072212,49.3282423 L99,99 L65.6867049,47.702024 Z" id="Path" fill="#87738C"></path>
                <path d="M62.0322698,48.1182845 C61.2329847,48.6989991 60.4474939,49.2984666 59.6764515,49.9161881 L99,99 L62.0322698,48.1182845 Z" id="Path" fill="#87738C"></path>
                <path d="M58.1083782,48.5030525 C57.3151373,49.1454063 56.5371423,49.8063621 55.775041,50.4853696 L99,99 L58.1083782,48.5030525 Z" id="Path" fill="#87738C"></path>
                <path d="M54.2075112,49.2529013 C53.4260494,49.9565326 52.6612758,50.6784799 51.9138272,51.418142 L99,99 L54.2075112,49.2529013 Z" id="Path" fill="#87738C"></path>
                <path d="M50.6875141,50.6875141 C49.9285883,51.44644 49.1876504,52.2231431 48.4653173,53.0169768 L99,99 L50.6875141,50.6875141 Z" id="Path" fill="#87738C"></path>
                <path d="M47.9134892,53.0014991 C47.190913,53.8040012 46.4873465,54.6234181 45.8033755,55.4590674 L99,99 L47.9134892,53.0014991 Z" id="Path" fill="#87738C"></path>
                <path d="M46.1947517,56.2391531 C45.5230348,57.0686543 44.8709567,57.9138682 44.2390604,58.7740908 L99,99 L46.1947517,56.2391531 Z" id="Path" fill="#87738C"></path>
                <path d="M45.7277853,60.2954705 C45.1197878,61.1323072 44.5315932,61.983354 43.9636911,62.8479023 L99,99 L45.7277853,60.2954705 Z" id="Path" fill="#87738C"></path>
                <path d="M46.55544,64.9421045 C46.0204351,65.7659399 45.5049165,66.6022672 45.0093135,67.4503901 L99,99 L46.55544,64.9421045 Z" id="Path" fill="#87738C"></path>
                <path d="M23.4734568,55.39473 C22.7884751,56.581153 22.1315443,57.7835516 21.5032112,59.0009246 L99,99 L23.4734568,55.39473 Z" id="Path" fill="#87738C"></path>
                <path d="M25.6246826,61.6134084 C25.0373883,62.7660386 24.4773349,63.9323471 23.9449888,65.111363 L99,99 L25.6246826,61.6134084 Z" id="Path" fill="#87738C"></path>
                <path d="M28.3178272,67.5302691 C27.823479,68.6405935 27.355362,69.762412 26.9138659,70.8947908 L99,99 L28.3178272,67.5302691 Z" id="Path" fill="#87738C"></path>
                <path d="M31.083674,72.929365 C30.6741384,73.9962416 30.2897986,75.0726199 29.9309745,76.1576038 L99,99 L31.083674,72.929365 Z" id="Path" fill="#87738C"></path>
                <path d="M33.4619695,77.705403 C33.1274593,78.7349196 32.817254,79.7721754 32.531612,80.8163067 L99,99 L33.4619695,77.705403 Z" id="Path" fill="#87738C"></path>
                <path d="M35.0734827,81.8709413 C34.8044077,82.8751432 34.559032,83.8855458 34.33756,84.9013081 L99,99 L35.0734827,81.8709413 Z" id="Path" fill="#87738C"></path>
                <path d="M35.6807893,85.5410863 C35.4693674,86.5357481 35.2814121,87.5352537 35.1170799,88.5387706 L99,99 L35.6807893,85.5410863 Z" id="Path" fill="#87738C"></path>
                <path d="M35.2275714,88.8994396 C35.0689048,89.9012209 34.9338653,90.9066018 34.8225652,91.9147452 L99,99 L35.2275714,88.8994396 Z" id="Path" fill="#87738C"></path>
                <path d="M33.8496394,92.1524212 C33.742073,93.175848 33.6586364,94.2016673 33.5993994,95.2290251 L99,99 L33.8496394,92.1524212 Z" id="Path" fill="#87738C"></path>
                <path d="M31.8554829,95.481105 C31.8002056,96.5358574 31.7697893,97.5917659 31.764259,98.6479513 L99,99 L31.8554829,95.481105 Z" id="Path" fill="#87738C"></path>
                <path d="M29.6791663,99 C29.6791663,100.088939 29.7048251,101.177728 29.7561211,102.265458 L99,99 L29.6791663,99 Z" id="Path" fill="#87738C"></path>
                <path d="M27.8129656,102.730754 C27.8715709,103.849009 27.9565175,104.965728 28.0677348,106.079981 L99,99 L27.8129656,102.730754 Z" id="Path" fill="#87738C"></path>
                <path d="M26.7305044,106.59583 C26.849825,107.731089 26.9958791,108.863379 27.1685452,109.991757 L99,99 L26.7305044,106.59583 Z" id="Path" fill="#87738C"></path>
                <path d="M26.8127389,110.433339 C26.9923417,111.567306 27.1986393,112.696884 27.4314598,113.821132 L99,99 L26.8127389,110.433339 Z" id="Path" fill="#87738C"></path>
                <path d="M28.2886714,114.030157 C28.5247754,115.140939 28.7870201,116.246004 29.0751871,117.344431 L99,99 L28.2886714,114.030157 Z" id="Path" fill="#87738C"></path>
                <path d="M31.2002347,117.166892 C31.4856127,118.231938 31.7960469,119.290111 32.1312787,120.340531 L99,99 L31.2002347,117.166892 Z" id="Path" fill="#87738C"></path>
                <path d="M35.396791,119.665935 C35.7214258,120.665058 36.0695579,121.656393 36.4408974,122.639115 L99,99 L35.396791,119.665935 Z" id="Path" fill="#87738C"></path>
                <path d="M40.5598064,121.433089 C40.9122008,122.351107 41.2861777,123.260695 41.6814255,124.161095 L99,99 L40.5598064,121.433089 Z" id="Path" fill="#87738C"></path>
                <path d="M46.2533245,122.484333 C46.6222326,123.312914 47.0106134,124.132688 47.4181435,124.942971 L99,99 L46.2533245,122.484333 Z" id="Path" fill="#87738C"></path>
                <path d="M51.9916975,122.951926 C52.3679509,123.690365 52.7615519,124.419836 53.1721728,125.139731 L99,99 L51.9916975,122.951926 Z" id="Path" fill="#87738C"></path>
                <path d="M32.2366848,137.545818 C32.8421891,138.594582 33.4723214,139.628933 34.1265571,140.64801 L99,99 L32.2366848,137.545818 Z" id="Path" fill="#87738C"></path>
                <path d="M37.5638864,138.897079 C38.1906172,139.86216 38.8400013,140.812339 39.5114979,141.746825 L99,99 L37.5638864,138.897079 Z" id="Path" fill="#87738C"></path>
                <path d="M41.9440732,140.453557 C42.5952543,141.349831 43.2674639,142.230637 43.9601424,143.095241 L99,99 L41.9440732,140.453557 Z" id="Path" fill="#87738C"></path>
                <path d="M45.3169307,142.471692 C45.9998141,143.314983 46.7024731,144.142066 47.4243228,144.952252 L99,99 L45.3169307,142.471692 Z" id="Path" fill="#87738C"></path>
                <path d="M47.7893228,145.110301 C48.5136552,145.914754 49.2568424,146.702027 50.0182657,147.471466 L99,99 L47.7893228,145.110301 Z" id="Path" fill="#87738C"></path>
                <path d="M49.6067314,148.393269 C50.3826349,149.169172 51.1767134,149.926685 51.9883057,150.665177 L99,99 L49.6067314,148.393269 Z" id="Path" fill="#87738C"></path>
                <path d="M51.103587,152.194356 C51.9392007,152.946746 52.7924269,153.679341 53.6625553,154.391533 L99,99 L51.103587,152.194356 Z" id="Path" fill="#87738C"></path>
                <path d="M52.6415935,156.247864 C53.5408825,156.976094 54.4572059,157.683033 55.3898009,158.368092 L99,99 L52.6415935,156.247864 Z" id="Path" fill="#87738C"></path>
                <path d="M54.5468999,160.184443 C55.5080274,160.882743 56.4854755,161.558299 57.4784304,162.210549 L99,99 L54.5468999,160.184443 Z" id="Path" fill="#87738C"></path>
                <path d="M57.0568144,163.586842 C58.0713891,164.245714 59.101348,164.880589 60.1458335,165.490937 L99,99 L57.0568144,163.586842 Z" id="Path" fill="#87738C"></path>
                <path d="M60.2847561,166.056769 C61.3381301,166.664935 62.4056881,167.248196 63.4865413,167.806066 L99,99 L60.2847561,166.056769 Z" id="Path" fill="#87738C"></path>
                <path d="M64.2086809,167.281808 C65.2812986,167.828334 66.3666453,168.349511 67.4638172,168.844903 L99,99 L64.2086809,167.281808 Z" id="Path" fill="#87738C"></path>
                <path d="M68.6839309,167.091006 C69.7535514,167.567232 70.8342447,168.018188 71.9251111,168.443499 L99,99 L68.6839309,167.091006 Z" id="Path" fill="#87738C"></path>
                <path d="M73.4771153,165.489388 C74.5215764,165.890319 75.5753398,166.266584 76.6375279,166.617869 L99,99 L73.4771153,165.489388 Z" id="Path" fill="#87738C"></path>
                <path d="M78.3139932,162.664983 C79.3140867,162.989933 80.3216981,163.291272 81.3359886,163.568751 L99,99 L78.3139932,162.664983 Z" id="Path" fill="#87738C"></path>
                <path d="M82.9320406,158.966441 C83.8740348,159.218848 84.8218457,159.449023 85.7746842,159.656775 L99,99 L82.9320406,158.966441 Z" id="Path" fill="#87738C"></path>
                <path d="M87.1278153,154.854238 C88.0052122,155.040734 88.8868817,155.206531 89.7720898,155.351489 L99,99 L87.1278153,154.854238 Z" id="Path" fill="#87738C"></path>
                <path d="M90.7904731,150.832913 C91.6047003,150.961874 92.4218531,151.071631 93.2412513,151.162094 L99,99 L90.7904731,150.832913 Z" id="Path" fill="#87738C"></path>
                <path d="M93.9155738,147.375084 C94.675483,147.454954 95.4371687,147.516906 96.1999967,147.560891 L99,99 L93.9155738,147.375084 Z" id="Path" fill="#87738C"></path>
                <path d="M96.5971314,144.849463 C97.3173664,144.887209 98.0383909,144.907979 98.7596044,144.911755 L99,99 L96.5971314,144.849463 Z" id="Path" fill="#87738C"></path>
                <path d="M99,172.420606 C100.153342,172.420606 101.306523,172.39343 102.458584,172.3391 L99,99 L99,172.420606 Z" id="Path" fill="#87738C"></path>
                <path d="M102.833827,172.153774 C103.982977,172.09355 105.130548,172.006257 106.275586,171.891967 L99,99 L102.833827,172.153774 Z" id="Path" fill="#87738C"></path>
                <path d="M106.755597,172.78958 C107.914735,172.66775 109.070841,172.518624 110.222953,172.342326 L99,99 L106.755597,172.78958 Z" id="Path" fill="#87738C"></path>
                <path d="M110.877047,173.988726 C112.055022,173.802153 113.228437,173.587849 114.396315,173.345993 L99,99 L110.877047,173.988726 Z" id="Path" fill="#87738C"></path>
                <path d="M115.2187,175.302986 C116.41732,175.048212 117.609771,174.76523 118.795059,174.454275 L99,99 L115.2187,175.302986 Z" id="Path" fill="#87738C"></path>
                <path d="M119.698156,176.24657 C120.911599,175.92143 122.117211,175.567741 123.31399,175.1858 L99,99 L119.698156,176.24657 Z" id="Path" fill="#87738C"></path>
                <path d="M124.139887,176.372616 C125.355309,175.977701 126.561258,175.554202 127.756728,175.102472 L99,99 L124.139887,176.372616 Z" id="Path" fill="#87738C"></path>
                <path d="M128.305142,175.342504 C129.504382,174.882159 130.69261,174.39362 131.868834,173.877293 L99,99 L128.305142,175.342504 Z" id="Path" fill="#87738C"></path>
                <path d="M131.936666,172.976964 C133.098748,172.459572 134.248476,171.91487 135.384895,171.343311 L99,99 L131.936666,172.976964 Z" id="Path" fill="#87738C"></path>
                <path d="M134.809994,169.28107 C135.914017,168.718542 137.004633,168.130078 138.080932,167.516168 L99,99 L134.809994,169.28107 Z" id="Path" fill="#87738C"></path>
                <path d="M136.781589,164.439632 C137.80956,163.846133 138.823404,163.228494 139.822276,162.587229 L99,99 L136.781589,164.439632 Z" id="Path" fill="#87738C"></path>
                <path d="M137.824445,158.784403 C138.76358,158.174522 139.688214,157.542596 140.597576,156.889153 L99,99 L137.824445,158.784403 Z" id="Path" fill="#87738C"></path>
                <path d="M138.043771,152.739141 C138.887943,152.125815 139.717545,151.492682 140.531888,150.84027 L99,99 L138.043771,152.739141 Z" id="Path" fill="#87738C"></path>
                <path d="M137.66888,146.75209 C138.419002,146.144652 139.154708,145.519624 139.875384,144.877525 L99,99 L137.66888,146.75209 Z" id="Path" fill="#87738C"></path>
                <path d="M137.02162,141.227288 C137.684956,140.630018 138.334126,140.017201 138.968589,139.389346 L99,99 L137.02162,141.227288 Z" id="Path" fill="#87738C"></path>
                <path d="M136.466018,136.466018 C137.05456,135.877476 137.629153,135.275148 138.189317,134.659535 L99,99 L136.466018,136.466018 Z" id="Path" fill="#87738C"></path>
                <path d="M136.347329,132.627686 C136.875576,132.041008 137.389925,131.441965 137.88995,130.831055 L99,99 L136.347329,132.627686 Z" id="Path" fill="#87738C"></path>
                <path d="M136.93093,129.715861 C137.413436,129.120016 137.881835,128.512884 138.335737,127.894972 L99,99 L136.93093,129.715861 Z" id="Path" fill="#87738C"></path>
                <path d="M138.351839,127.590784 C138.800962,126.972618 139.235458,126.343956 139.654963,125.705319 L99,99 L138.351839,127.590784 Z" id="Path" fill="#87738C"></path>
                <path d="M140.58415,126.005063 C141.008365,125.35183 141.417128,124.688693 141.810099,124.016202 L99,99 L140.58415,126.005063 Z" id="Path" fill="#87738C"></path>
                <path d="M168.513151,139.133436 C169.143595,138.041476 169.748221,136.934812 170.326526,135.814365 L99,99 L168.513151,139.133436 Z" id="Path" fill="#87738C"></path>
                <path d="M172.375317,136.386592 C172.962612,135.233961 173.522665,134.067653 174.055011,132.888637 L99,99 L172.375317,136.386592 Z" id="Path" fill="#87738C"></path>
                <path d="M176.025528,133.293975 C176.564242,132.084005 177.07437,130.861509 177.555488,129.627505 L99,99 L176.025528,133.293975 Z" id="Path" fill="#87738C"></path>
                <path d="M179.005776,129.71134 C179.488211,128.454554 179.940965,127.186575 180.363662,125.908458 L99,99 L179.005776,129.71134 Z" id="Path" fill="#87738C"></path>
                <path d="M180.902414,125.611708 C181.320449,124.325128 181.708111,123.028877 182.065075,121.724033 L99,99 L180.902414,125.611708 Z" id="Path" fill="#87738C"></path>
                <path d="M181.41402,121.08277 C181.760912,119.788154 182.07725,118.485543 182.362771,117.176024 L99,99 L181.41402,121.08277 Z" id="Path" fill="#87738C"></path>
                <path d="M180.403099,116.302763 C180.674902,115.024027 180.916537,113.739064 181.127803,112.448943 L99,99 L180.403099,116.302763 Z" id="Path" fill="#87738C"></path>
                <path d="M177.922799,111.500143 C178.11916,110.26037 178.286281,109.016141 178.424022,107.768494 L99,99 L177.922799,111.500143 Z" id="Path" fill="#87738C"></path>
                <path d="M174.213832,106.905292 C174.338014,105.723782 174.434339,104.539509 174.502726,103.35346 L99,99 L174.213832,106.905292 Z" id="Path" fill="#87738C"></path>
                <path d="M169.671649,102.703744 C169.72983,101.593585 169.761844,100.482209 169.767665,99.370542 L99,99 L169.671649,102.703744 Z" id="Path" fill="#87738C"></path>
                <path d="M164.788861,99 C164.788861,97.9665432 164.76451,96.9332298 164.715828,95.9009202 L99,99 L164.788861,99 Z" id="Path" fill="#87738C"></path>
                <path d="M160.081998,95.7988281 C160.031712,94.83931 159.958823,93.8811099 159.863393,92.9250257 L99,99 L160.081998,95.7988281 Z" id="Path" fill="#87738C"></path>
                <path d="M156.014304,93.0075552 C155.92017,92.1119352 155.804946,91.2186576 155.668728,90.3284661 L99,99 L156.014304,93.0075552 Z" id="Path" fill="#87738C"></path>
                <path d="M152.926985,90.4588047 C152.792814,89.6116824 152.638701,88.7678392 152.464774,87.9279776 L99,99 L152.926985,90.4588047 Z" id="Path" fill="#87738C"></path>
                <path d="M150.989905,87.9492045 C150.816311,87.1325112 150.623498,86.3200217 150.411626,85.5124124 L99,99 L150.989905,87.9492045 Z" id="Path" fill="#87738C"></path>
                <path d="M150.179532,85.2864856 C149.964111,84.4825222 149.729776,83.6837464 149.476722,82.8908232 L99,99 L150.179532,85.2864856 Z" id="Path" fill="#87738C"></path>
                <path d="M150.287452,82.3356968 C150.025677,81.5300381 149.744955,80.7306595 149.44552,79.9382265 L99,99 L150.287452,82.3356968 Z" id="Path" fill="#87738C"></path>
                <path d="M150.957722,79.0552993 C150.644417,78.2391115 150.311923,77.4304195 149.960518,76.6298965 L99,99 L150.957722,79.0552993 Z" id="Path" fill="#87738C"></path>
                <path d="M151.746676,75.515667 C151.377767,74.6870858 150.989387,73.8673123 150.581857,73.0570289 L99,99 L151.746676,75.515667 Z" id="Path" fill="#87738C"></path>
                <path d="M152.195155,71.8957146 C151.769382,71.0600884 151.323979,70.2346107 150.859315,69.4199688 L99,99 L152.195155,71.8957146 Z" id="Path" fill="#87738C"></path>
                <path d="M176.977958,53.9794051 C176.270743,52.7544736 175.534764,51.5463762 174.770632,50.3561188 L99,99 L176.977958,53.9794051 Z" id="Path" fill="#87738C"></path>
                <path d="M174.866725,49.7315728 C174.092782,48.5398059 173.290866,47.3664409 172.461643,46.2124547 L99,99 L174.866725,49.7315728 Z" id="Path" fill="#87738C"></path>
                <path d="M171.540246,46.2964262 C170.712342,45.1569139 169.857703,44.0370678 168.977039,42.9378202 L99,99 L171.540246,46.2964262 Z" id="Path" fill="#87738C"></path>
                <path d="M167.05086,43.8934997 C166.18521,42.8245099 165.29449,41.7760657 164.379444,40.7490403 L99,99 L167.05086,43.8934997 Z" id="Path" fill="#87738C"></path>
                <path d="M161.609941,42.6257563 C160.724375,41.6422362 159.815758,40.6797192 158.884845,39.7390067 L99,99 L161.609941,42.6257563 Z" id="Path" fill="#87738C"></path>
                <path d="M155.548414,42.4515857 C154.660113,41.5632842 153.751003,40.6960371 152.821843,39.8505664 L99,99 L155.548414,42.4515857 Z" id="Path" fill="#87738C"></path>
                <path d="M149.259764,43.1808775 C148.382918,42.3913624 147.487591,41.6226181 146.574528,40.8752846 L99,99 L149.259764,43.1808775 Z" id="Path" fill="#87738C"></path>
                <path d="M143.135664,44.4969936 C142.279494,43.8036801 141.407105,43.1306369 140.519225,42.4784242 L99,99 L143.135664,44.4969936 Z" id="Path" fill="#87738C"></path>
                <path d="M137.505357,46.0019221 C136.672827,45.3970534 135.82616,44.8118856 134.96606,44.2469059 L99,99 L137.505357,46.0019221 Z" id="Path" fill="#87738C"></path>
                <path d="M132.588847,47.277712 C131.776357,46.7500752 130.951548,46.2416564 130.115105,45.7528788 L99,99 L132.588847,47.277712 Z" id="Path" fill="#87738C"></path>
                <path d="M128.471297,47.9542154 C127.669435,47.4912599 126.856775,47.047263 126.033995,46.6225944 L99,99 L128.471297,47.9542154 Z" id="Path" fill="#87738C"></path>
                <path d="M125.10209,47.7717636 C124.297362,47.361734 123.483083,46.9707231 122.659933,46.5990565 L99,99 L125.10209,47.7717636 Z" id="Path" fill="#87738C"></path>
                <path d="M122.317542,46.6279424 C121.494846,46.2616543 120.663633,45.9148024 119.824595,45.5876752 L99,99 L122.317542,46.6279424 Z" id="Path" fill="#87738C"></path>
                <path d="M119.88218,44.600062 C119.027628,44.2720303 118.165465,43.96418 117.29641,43.6767673 L99,99 L119.88218,44.600062 Z" id="Path" fill="#87738C"></path>
                <path d="M117.540296,41.9388374 C116.64394,41.6475936 115.740845,41.3775112 114.831765,41.1288149 L99,99 L117.540296,41.9388374 Z" id="Path" fill="#87738C"></path>
                <path d="M115.067959,39.033559 C114.125965,38.7811524 113.178154,38.5509771 112.225316,38.3432247 L99,99 L115.067959,39.033559 Z" id="Path" fill="#87738C"></path>
                <path d="M112.315854,36.3538308 C111.331765,36.1446561 110.342884,35.9586987 109.350033,35.7961132 L99,99 L112.315854,36.3538308 Z" id="Path" fill="#87738C"></path>
                <path d="M109.235283,34.3769638 C108.22014,34.2161809 107.201349,34.0793402 106.179759,33.9665556 L99,99 L109.235283,34.3769638 Z" id="Path" fill="#87738C"></path>
                <path d="M105.882998,33.512644 C104.854278,33.4045211 103.823152,33.320653 102.790481,33.2611095 L99,99 L105.882998,33.512644 Z" id="Path" fill="#87738C"></path>
                <path d="M102.404562,34.0370955 C101.384079,33.9836143 100.362479,33.9541862 99.3406102,33.9488356 L99,99 L102.404562,34.0370955 Z" id="Path" fill="#87738C"></path>
                <path d="M99,35.395745 C98.0008605,35.395745 97.0018597,35.4192878 96.0038293,35.4663537 L99,99 L99,35.395745 Z" id="Path" fill="#E7A59A"></path>
                <path d="M95.7053219,36.1337978 C94.7177763,36.1855528 93.7315872,36.2605703 92.7475758,36.3587877 L99,99 L95.7053219,36.1337978 Z" id="Path" fill="#E7A59A"></path>
                <path d="M92.6148614,38.2494639 C91.66055,38.349766 90.7087346,38.4725407 89.7602075,38.6176858 L99,99 L92.6148614,38.2494639 Z" id="Path" fill="#E7A59A"></path>
                <path d="M89.8869857,41.4626924 C88.98315,41.6058459 88.0828129,41.7702767 87.186724,41.9558478 L99,99 L89.8869857,41.4626924 Z" id="Path" fill="#E7A59A"></path>
                <path d="M87.5975361,45.3556249 C86.7548532,45.5347427 85.9165079,45.7336918 85.0831981,45.9523065 L99,99 L87.5975361,45.3556249 Z" id="Path" fill="#E7A59A"></path>
                <path d="M85.7197748,49.4375247 C84.9412132,49.6461396 84.1676753,49.8730709 83.3998052,50.1181295 L99,99 L85.7197748,49.4375247 Z" id="Path" fill="#E7A59A"></path>
                <path d="M84.1252774,53.2203113 C83.4061385,53.4539737 82.6926052,53.7045487 81.9852716,53.9718278 L99,99 L84.1252774,53.2203113 Z" id="Path" fill="#E7A59A"></path>
                <path d="M82.6061194,56.292481 C81.9352402,56.5500074 81.2705223,56.823306 80.612519,57.1121492 L99,99 L82.6061194,56.292481 Z" id="Path" fill="#E7A59A"></path>
                <path d="M80.9146245,58.3795816 C80.276531,58.6636792 79.6452202,58.9627727 79.0212178,59.2766132 L99,99 L80.9146245,58.3795816 Z" id="Path" fill="#E7A59A"></path>
                <path d="M78.8135015,59.3817659 C78.1911509,59.6988694 77.5763587,60.0305932 76.9696366,60.3766614 L99,99 L78.8135015,59.3817659 Z" id="Path" fill="#E7A59A"></path>
                <path d="M76.1270274,59.3828494 C75.5046939,59.7421538 74.890913,60.1160724 74.2861959,60.5042939 L99,99 L76.1270274,59.3828494 Z" id="Path" fill="#E7A59A"></path>
                <path d="M72.783466,58.6300778 C72.1493074,59.0419052 71.5249408,59.4686182 70.9108859,59.9098614 L99,99 L72.783466,58.6300778 Z" id="Path" fill="#E7A59A"></path>
                <path d="M68.840239,57.4886502 C68.1881501,57.9624206 67.5473151,58.4514903 66.9182678,58.9554523 L99,99 L68.840239,57.4886502 Z" id="Path" fill="#E7A59A"></path>
                <path d="M64.4862936,56.3791221 C63.8167755,56.9212872 63.1601253,57.479153 62.5168899,58.0522548 L99,99 L64.4862936,56.3791221 Z" id="Path" fill="#E7A59A"></path>
                <path d="M60.0201195,55.7084568 C59.340066,56.3207797 58.6745352,56.9490417 58.0240811,57.5927197 L99,99 L60.0201195,55.7084568 Z" id="Path" fill="#E7A59A"></path>
                <path d="M55.8062641,55.8062641 C55.1277471,56.4847811 54.4653122,57.1791919 53.819511,57.8889182 L99,99 L55.8062641,55.8062641 Z" id="Path" fill="#E7A59A"></path>
                <path d="M52.2171929,56.8765713 C51.555489,57.6114679 50.9111934,58.3618542 50.2848424,59.1271056 L99,99 L52.2171929,56.8765713 Z" id="Path" fill="#E7A59A"></path>
                <path d="M49.5702101,58.9725454 C48.9414312,59.7490226 48.3310358,60.540208 47.7395321,61.3454428 L99,99 L49.5702101,58.9725454 Z" id="Path" fill="#E7A59A"></path>
                <path d="M48.0703767,61.9974628 C47.4891154,62.7975004 46.926786,63.6111233 46.3838568,64.437654 L99,99 L48.0703767,61.9974628 Z" id="Path" fill="#E7A59A"></path>
                <path d="M47.7696682,65.7306336 C47.2470501,66.535395 46.7434671,67.3523591 46.2593385,68.1808458 L99,99 L47.7696682,65.7306336 Z" id="Path" fill="#E7A59A"></path>
                <path d="M48.5501081,69.8727413 C48.092557,70.665243 47.6537432,71.468416 47.234032,72.2815916 L99,99 L48.5501081,69.8727413 Z" id="Path" fill="#E7A59A"></path>
                <path d="M50.1346875,74.1018797 C49.7435707,74.8694897 49.3705953,75.6462091 49.016072,76.4313912 L99,99 L50.1346875,74.1018797 Z" id="Path" fill="#E7A59A"></path>
                <path d="M52.1252059,78.1299971 C51.7973655,78.8663387 51.4869211,79.610303 51.194131,80.3612705 L99,99 L52.1252059,78.1299971 Z" id="Path" fill="#E7A59A"></path>
                <path d="M54.0615336,81.7497389 C53.7905546,82.4556634 53.5362469,83.1678749 53.2988223,83.8857805 L99,99 L54.0615336,81.7497389 Z" id="Path" fill="#E7A59A"></path>
                <path d="M55.4930207,84.8637255 C55.2709584,85.5471632 55.0650307,86.2357384 54.8754092,86.9288779 L99,99 L55.4930207,84.8637255 Z" id="Path" fill="#E7A59A"></path>
                <path d="M56.0505103,87.4917189 C55.8697303,88.1663991 55.7048729,88.8452454 55.5560754,89.5276926 L99,99 L56.0505103,87.4917189 Z" id="Path" fill="#E7A59A"></path>
                <path d="M55.5070742,89.7552932 C55.361852,90.4385101 55.2327486,91.125054 55.1198715,91.8143534 L99,99 L55.5070742,89.7552932 Z" id="Path" fill="#E7A59A"></path>
                <path d="M53.8172633,91.8437575 C53.7048481,92.5535191 53.6091727,93.2658311 53.5303166,93.9801002 L99,99 L53.8172633,91.8437575 Z" id="Path" fill="#E7A59A"></path>
                <path d="M51.1280786,93.9684583 C51.0490397,94.7204635 50.9877312,95.4742267 50.9442043,96.2291203 L99,99 L51.1280786,93.9684583 Z" id="Path" fill="#E7A59A"></path>
                <path d="M47.7594696,96.3145976 C47.7172854,97.1195192 47.6940735,97.9253231 47.6898532,98.7313382 L99,99 L47.7594696,96.3145976 Z" id="Path" fill="#E7A59A"></path>
                <path d="M44.1571777,99 C44.1571777,99.8615089 44.1774775,100.722898 44.2180601,101.583451 L99,99 L44.1571777,99 Z" id="Path" fill="#E7A59A"></path>
                <path d="M40.8253184,102.048806 C40.8732112,102.962654 40.9426303,103.875247 41.033518,104.785824 L99,99 L40.8253184,102.048806 Z" id="Path" fill="#E7A59A"></path>
                <path d="M38.2494639,105.385139 C38.349766,106.33945 38.4725407,107.291265 38.6176858,108.239792 L99,99 L38.2494639,105.385139 Z" id="Path" fill="#E7A59A"></path>
                <path d="M36.822573,108.847937 C36.9772712,109.824663 37.1549626,110.797608 37.3554991,111.765962 L99,99 L36.822573,108.847937 Z" id="Path" fill="#E7A59A"></path>
                <path d="M36.7856506,112.224068 C36.9933834,113.201374 37.2241156,114.17365 37.4776552,115.140085 L99,99 L36.7856506,112.224068 Z" id="Path" fill="#E7A59A"></path>
                <path d="M38.1925772,115.2933 C38.4485236,116.248505 38.726942,117.197546 39.0276006,118.139634 L99,99 L38.1925772,115.2933 Z" id="Path" fill="#E7A59A"></path>
                <path d="M40.9045538,117.876355 C41.2010766,118.788958 41.519062,119.694448 41.8582451,120.59207 L99,99 L40.9045538,117.876355 Z" id="Path" fill="#E7A59A"></path>
                <path d="M44.6147228,119.876552 C44.9426661,120.730873 45.2906943,121.577349 45.6585175,122.415274 L99,99 L44.6147228,119.876552 Z" id="Path" fill="#E7A59A"></path>
                <path d="M48.8985888,121.306585 C49.248996,122.093613 49.6178994,122.872275 50.0049917,123.641922 L99,99 L48.8985888,121.306585 Z" id="Path" fill="#E7A59A"></path>
                <path d="M53.2816978,122.294639 C53.647626,123.012813 54.0304258,123.722266 54.4297785,124.422405 L99,99 L53.2816978,122.294639 Z" id="Path" fill="#E7A59A"></path>
                <path d="M57.313336,123.067807 C57.6914097,123.72265 58.0848611,124.368493 58.4933624,125.004799 L99,99 L57.313336,123.067807 Z" id="Path" fill="#E7A59A"></path>
                <path d="M60.6342222,123.915027 C61.0256046,124.517704 61.4311336,125.111074 61.8504715,125.694644 L99,99 L60.6342222,123.915027 Z" id="Path" fill="#E7A59A"></path>
                <path d="M63.0273962,125.135626 C63.4379527,125.700709 63.8617672,126.256039 64.2984869,126.801154 L99,99 L63.0273962,125.135626 Z" id="Path" fill="#E7A59A"></path>
                <path d="M64.4445284,126.982469 C64.8840964,127.52529 65.3363938,128.057679 65.8010441,128.579191 L99,99 L64.4445284,126.982469 Z" id="Path" fill="#E7A59A"></path>
                <path d="M65.0041376,129.610012 C65.4849807,130.144043 65.9783406,130.666669 66.4838062,131.177456 L99,99 L65.0041376,129.610012 Z" id="Path" fill="#E7A59A"></path>
                <path d="M64.9629814,133.037019 C65.4976584,133.571696 66.0448597,134.0937 66.6041299,134.602596 L99,99 L64.9629814,133.037019 Z" id="Path" fill="#E7A59A"></path>
                <path d="M64.6663397,137.131393 C65.265334,137.67073 65.8769534,138.195877 66.500689,138.706399 L99,99 L64.6663397,137.131393 Z" id="Path" fill="#E7A59A"></path>
                <path d="M64.4862936,141.620878 C65.1558118,142.163043 65.838012,142.689357 66.5323264,143.199382 L99,99 L64.4862936,141.620878 Z" id="Path" fill="#E7A59A"></path>
                <path d="M64.7588538,146.128895 C65.499187,146.666778 66.2520916,147.187142 67.0169407,147.689554 L99,99 L64.7588538,146.128895 Z" id="Path" fill="#E7A59A"></path>
                <path d="M65.7306336,150.230332 C66.535395,150.75295 67.3523591,151.256533 68.1808458,151.740661 L99,99 L65.7306336,150.230332 Z" id="Path" fill="#E7A59A"></path>
                <path d="M67.5237618,153.518444 C68.3801751,154.012894 69.2481203,154.487096 70.1268747,154.940655 L99,99 L67.5237618,153.518444 Z" id="Path" fill="#E7A59A"></path>
                <path d="M70.1242725,155.671806 C71.0145123,156.125406 71.9153168,156.557966 72.8259358,156.969126 L99,99 L70.1242725,155.671806 Z" id="Path" fill="#E7A59A"></path>
                <path d="M73.3949211,156.509949 C74.298327,156.912171 75.2110852,157.293051 76.1324355,157.65227 L99,99 L73.3949211,156.509949 Z" id="Path" fill="#E7A59A"></path>
                <path d="M77.1090339,156.027916 C78.0048678,156.371795 78.9086801,156.694517 79.8197184,156.995814 L99,99 L77.1090339,156.027916 Z" id="Path" fill="#E7A59A"></path>
                <path d="M80.9983641,154.403338 C81.868678,154.68612 82.7455343,154.948356 83.6282028,155.189827 L99,99 L80.9983641,154.403338 Z" id="Path" fill="#E7A59A"></path>
                <path d="M84.8056331,151.974098 C85.6377868,152.197073 86.4750789,152.400409 87.3168124,152.583937 L99,99 L84.8056331,151.974098 Z" id="Path" fill="#E7A59A"></path>
                <path d="M88.3318744,149.189585 C89.120287,149.357167 89.9125389,149.506149 90.7079706,149.636406 L99,99 L88.3318744,149.189585 Z" id="Path" fill="#E7A59A"></path>
                <path d="M91.4699311,146.542984 C92.2167691,146.661272 92.9662906,146.761945 93.7178716,146.84492 L99,99 L91.4699311,146.542984 Z" id="Path" fill="#E7A59A"></path>
                <path d="M94.2182466,144.495344 C94.9329189,144.570459 95.6492619,144.628724 96.3666792,144.67009 L99,99 L94.2182466,144.495344 Z" id="Path" fill="#E7A59A"></path>
                <path d="M96.6729035,143.403646 C97.3704266,143.440202 98.0687143,143.460317 98.767185,143.463974 L99,99 L96.6729035,143.403646 Z" id="Path" fill="#E7A59A"></path>
                <path d="M99,143.464584 C99.6984804,143.464584 100.396864,143.448125 101.094569,143.415222 L99,99 L99,143.464584 Z" id="Path" fill="#E7A59A"></path>
                <path d="M101.394158,144.683252 C102.111782,144.645643 102.82842,144.59113 103.543476,144.519758 L99,99 L101.394158,144.683252 Z" id="Path" fill="#E7A59A"></path>
                <path d="M104.031542,146.871921 C104.783547,146.792882 105.533585,146.696135 106.281032,146.58176 L99,99 L104.031542,146.871921 Z" id="Path" fill="#E7A59A"></path>
                <path d="M107.026785,149.679128 C107.822888,149.553038 108.615909,149.408207 109.405189,149.244755 L99,99 L107.026785,149.679128 Z" id="Path" fill="#E7A59A"></path>
                <path d="M110.402464,152.644375 C111.245147,152.465257 112.083492,152.266308 112.916802,152.047693 L99,99 L110.402464,152.644375 Z" id="Path" fill="#E7A59A"></path>
                <path d="M114.077379,155.269543 C114.961299,155.032697 115.839517,154.775056 116.711299,154.496835 L99,99 L114.077379,155.269543 Z" id="Path" fill="#E7A59A"></path>
                <path d="M117.876355,157.095446 C118.788958,156.798923 119.694448,156.480938 120.59207,156.141755 L99,99 L117.876355,157.095446 Z" id="Path" fill="#E7A59A"></path>
                <path d="M121.56015,157.7712 C122.483368,157.416809 123.398108,157.040714 124.303608,156.643228 L99,99 L121.56015,157.7712 Z" id="Path" fill="#E7A59A"></path>
                <path d="M124.870181,157.105378 C125.782941,156.698992 126.685997,156.271154 127.5786,155.822222 L99,99 L124.870181,157.105378 Z" id="Path" fill="#E7A59A"></path>
                <path d="M127.579826,155.091067 C128.460943,154.642116 129.33136,154.172464 130.19035,153.682505 L99,99 L127.579826,155.091067 Z" id="Path" fill="#E7A59A"></path>
                <path d="M129.542584,151.901306 C130.373594,151.421522 131.193183,150.922224 132.00067,150.403827 L99,99 L129.542584,151.901306 Z" id="Path" fill="#E7A59A"></path>
                <path d="M130.727684,147.856349 C131.495153,147.357949 132.250772,146.841534 132.993912,146.307534 L99,99 L130.727684,147.856349 Z" id="Path" fill="#E7A59A"></path>
                <path d="M131.235802,143.368775 C131.932777,142.862393 132.617724,142.339658 133.290072,141.801006 L99,99 L131.235802,143.368775 Z" id="Path" fill="#E7A59A"></path>
                <path d="M131.290964,138.87602 C131.917364,138.368771 132.531725,137.846833 133.133535,137.31064 L99,99 L131.290964,138.87602 Z" id="Path" fill="#E7A59A"></path>
                <path d="M131.209012,134.771732 C131.770939,134.265771 132.320866,133.746639 132.858335,133.214769 L99,99 L131.209012,134.771732 Z" id="Path" fill="#E7A59A"></path>
                <path d="M131.347268,131.347268 C131.855401,130.839135 132.351491,130.319099 132.835124,129.787594 L99,99 L131.347268,131.347268 Z" id="Path" fill="#E7A59A"></path>
                <path d="M132.043625,128.752614 C132.511,128.233542 132.966079,127.703529 133.408483,127.163017 L99,99 L132.043625,128.752614 Z" id="Path" fill="#E7A59A"></path>
                <path d="M133.555472,126.982469 C133.99504,126.439648 134.421756,125.886545 134.835265,125.323619 L99,99 L133.555472,126.982469 Z" id="Path" fill="#E7A59A"></path>
                <path d="M136.009247,125.888792 C136.431635,125.307425 136.840265,124.716186 137.234798,124.115568 L99,99 L136.009247,125.888792 Z" id="Path" fill="#E7A59A"></path>
                <path d="M139.369922,125.216534 C139.78175,124.582375 140.178577,123.938601 140.560074,123.285747 L99,99 L139.369922,125.216534 Z" id="Path" fill="#E7A59A"></path>
                <path d="M143.4365,124.655425 C143.839513,123.957386 144.226022,123.249947 144.595706,122.533699 L99,99 L143.4365,124.655425 Z" id="Path" fill="#E7A59A"></path>
                <path d="M147.865312,123.89812 C148.256429,123.13051 148.629405,122.353791 148.983928,121.568609 L99,99 L147.865312,123.89812 Z" id="Path" fill="#E7A59A"></path>
                <path d="M152.21815,122.694247 C152.590355,121.858259 152.942811,121.013618 153.275223,120.161025 L99,99 L152.21815,122.694247 Z" id="Path" fill="#E7A59A"></path>
                <path d="M156.027916,120.890966 C156.371795,119.995132 156.694517,119.09132 156.995814,118.180282 L99,99 L156.027916,120.890966 Z" id="Path" fill="#E7A59A"></path>
                <path d="M158.871363,118.453385 C159.17695,117.512884 159.460334,116.565314 159.721278,115.611462 L99,99 L158.871363,118.453385 Z" id="Path" fill="#E7A59A"></path>
                <path d="M160.436993,115.461993 C160.695589,114.496898 160.931409,113.525844 161.144256,112.549639 L99,99 L160.436993,115.461993 Z" id="Path" fill="#E7A59A"></path>
                <path d="M160.576814,112.088556 C160.782418,111.121265 160.965201,110.149263 161.125011,109.173361 L99,99 L160.576814,112.088556 Z" id="Path" fill="#E7A59A"></path>
                <path d="M159.333107,108.555825 C159.483217,107.608071 159.610973,106.656912 159.716271,105.703139 L99,99 L159.333107,108.555825 Z" id="Path" fill="#E7A59A"></path>
                <path d="M156.935393,105.089255 C157.031047,104.179166 157.105244,103.266949 157.157921,102.353365 L99,99 L156.935393,105.089255 Z" id="Path" fill="#E7A59A"></path>
                <path d="M153.767662,101.870252 C153.81275,101.009923 153.83756,100.148652 153.842071,99.287155 L99,99 L153.767662,101.870252 Z" id="Path" fill="#E7A59A"></path>
                <path d="M150.31085,99 C150.31085,98.1939738 150.291858,97.3880594 150.253889,96.582928 L99,99 L150.31085,99 Z" id="Path" fill="#E7A59A"></path>
                <path d="M147.069645,96.4807766 C147.030071,95.7256655 146.972711,94.9715916 146.89761,94.2191829 L99,99 L147.069645,96.4807766 Z" id="Path" fill="#E7A59A"></path>
                <path d="M144.495344,94.2182466 C144.420229,93.5035744 144.328285,92.7907713 144.219587,92.0804308 L99,99 L144.495344,94.2182466 Z" id="Path" fill="#E7A59A"></path>
                <path d="M142.917151,92.0442066 C142.807884,91.3543257 142.682377,90.6671153 142.540735,89.9831474 L99,99 L142.917151,92.0442066 Z" id="Path" fill="#E7A59A"></path>
                <path d="M142.492926,89.7552932 C142.347704,89.0720764 142.186403,88.3923762 142.009158,87.7167587 L99,99 L142.492926,89.7552932 Z" id="Path" fill="#E7A59A"></path>
                <path d="M143.18719,87.1600782 C143.0012,86.4659553 142.798881,85.7763113 142.5804,85.0917203 L99,99 L143.18719,87.1600782 Z" id="Path" fill="#E7A59A"></path>
                <path d="M144.779689,84.1252774 C144.546026,83.4061385 144.295451,82.6926052 144.028172,81.9852716 L99,99 L144.779689,84.1252774 Z" id="Path" fill="#E7A59A"></path>
                <path d="M146.902805,80.6118358 C146.613951,79.8593455 146.307407,79.1137659 145.983426,78.3757179 L99,99 L146.902805,80.6118358 Z" id="Path" fill="#E7A59A"></path>
                <path d="M149.101411,76.6934146 C148.751004,75.906387 148.382101,75.1277254 147.995008,74.358078 L99,99 L149.101411,76.6934146 Z" id="Path" fill="#E7A59A"></path>
                <path d="M150.905155,72.5530025 C150.489707,71.7376405 150.055105,70.932181 149.60171,70.1372944 L99,99 L150.905155,72.5530025 Z" id="Path" fill="#E7A59A"></path>
                <path d="M151.901306,68.4574165 C151.421522,67.6264062 150.922224,66.8068165 150.403827,65.9993298 L99,99 L151.901306,68.4574165 Z" id="Path" fill="#E7A59A"></path>
                <path d="M151.796389,64.713624 C151.257795,63.8842619 150.699734,63.0677058 150.122669,62.2646357 L99,99 L151.796389,64.713624 Z" id="Path" fill="#E7A59A"></path>
                <path d="M150.456923,61.6143569 C149.869644,60.8060361 149.263399,60.0116655 148.638695,59.2319067 L99,99 L150.456923,61.6143569 Z" id="Path" fill="#E7A59A"></path>
                <path d="M147.923263,59.3827229 C147.300927,58.6142026 146.660569,57.860453 146.002723,57.1221018 L99,99 L147.923263,59.3827229 Z" id="Path" fill="#E7A59A"></path>
                <path d="M144.395126,58.1260451 C143.75305,57.4129472 143.09426,56.7150775 142.419305,56.0330171 L99,99 L144.395126,58.1260451 Z" id="Path" fill="#E7A59A"></path>
                <path d="M140.192164,57.8078357 C139.545089,57.1607608 138.882857,56.5290227 138.206019,55.9131475 L99,99 L140.192164,57.8078357 Z" id="Path" fill="#E7A59A"></path>
                <path d="M135.697011,58.2438404 C135.056785,57.6673784 134.403065,57.1060821 133.736395,56.5604189 L99,99 L135.697011,58.2438404 Z" id="Path" fill="#E7A59A"></path>
                <path d="M131.290964,59.12398 C130.664564,58.6167313 130.026299,58.1243128 129.3767,57.6471347 L99,99 L131.290964,59.12398 Z" id="Path" fill="#E7A59A"></path>
                <path d="M127.293404,60.0574708 C126.681668,59.6130185 126.059544,59.1830422 125.42755,58.7679 L99,99 L127.293404,60.0574708 Z" id="Path" fill="#E7A59A"></path>
                <path d="M123.915027,60.6342222 C123.312351,60.2428397 122.700537,59.8657125 122.080093,59.5031545 L99,99 L123.915027,60.6342222 Z" id="Path" fill="#E7A59A"></path>
                <path d="M121.232292,60.492541 C120.62739,60.1433008 120.014343,59.8083625 119.393661,59.4880048 L99,99 L121.232292,60.492541 Z" id="Path" fill="#E7A59A"></path>
                <path d="M119.186499,59.3817659 C118.564148,59.0646625 117.934412,58.7622675 117.297815,58.4748328 L99,99 L119.186499,59.3817659 Z" id="Path" fill="#E7A59A"></path>
                <path d="M117.606552,57.2089996 C116.95007,56.916715 116.286792,56.6399397 115.617271,56.3789042 L99,99 L117.606552,57.2089996 Z" id="Path" fill="#E7A59A"></path>
                <path d="M116.250261,54.0615336 C115.544337,53.7905546 114.832125,53.5362469 114.114219,53.2988223 L99,99 L116.250261,54.0615336 Z" id="Path" fill="#E7A59A"></path>
                <path d="M114.855925,50.2004816 C114.089348,49.9514058 113.317009,49.7204274 112.539551,49.5077388 L99,99 L114.855925,50.2004816 Z" id="Path" fill="#E7A59A"></path>
                <path d="M113.194367,46.0259015 C112.362213,45.8029266 111.524921,45.5995907 110.683188,45.4160632 L99,99 L113.194367,46.0259015 Z" id="Path" fill="#E7A59A"></path>
                <path d="M111.111795,42.0184836 C110.21669,41.8282232 109.317226,41.6590805 108.414153,41.5111965 L99,99 L111.111795,42.0184836 Z" id="Path" fill="#E7A59A"></path>
                <path d="M108.555825,38.6668927 C107.608071,38.5167832 106.656912,38.3890265 105.703139,38.283729 L99,99 L108.555825,38.6668927 Z" id="Path" fill="#E7A59A"></path>
                <path d="M105.580326,36.3923838 C104.596842,36.2890155 103.611059,36.2088355 102.623798,36.1519103 L99,99 L105.580326,36.3923838 Z" id="Path" fill="#E7A59A"></path>
                <path d="M102.32879,35.4829125 C101.331019,35.4306215 100.332155,35.4018484 99.3330296,35.3966169 L99,99 L102.32879,35.4829125 Z" id="Path" fill="#E7A59A"></path>
                <path d="M99,54.6997602 C98.3041013,54.6997602 97.6082991,54.7161576 96.9131729,54.748939 L99,99 L99,54.6997602 Z" id="Path" fill="#FFBC95"></path>
                <path d="M96.6815046,54.7604721 C95.9865596,54.7968926 95.2925692,54.8496831 94.6001113,54.9187996 L99,99 L96.6815046,54.7604721 Z" id="Path" fill="#FFBC95"></path>
                <path d="M94.369364,54.9424415 C93.6772775,55.0151827 92.987001,55.1042215 92.2991094,55.2094837 L99,99 L94.369364,54.9424415 Z" id="Path" fill="#FFBC95"></path>
                <path d="M92.0699157,55.2451696 C91.3825846,55.3540322 90.6979141,55.4790752 90.0164742,55.6201946 L99,99 L92.0699157,55.2451696 Z" id="Path" fill="#FFBC95"></path>
                <path d="M89.7894622,55.6678267 C89.1087706,55.8125122 88.4315826,55.9732167 87.7584622,56.1498066 L99,99 L89.7894622,55.6678267 Z" id="Path" fill="#FFBC95"></path>
                <path d="M87.5342542,56.2092542 C86.8620677,56.3893661 86.1942184,56.5852917 85.5312625,56.7968679 L99,99 L87.5342542,56.2092542 Z" id="Path" fill="#FFBC95"></path>
                <path d="M85.310473,56.8679682 C84.648634,57.0830128 83.991954,57.3136224 83.3409796,57.5596051 L99,99 L85.310473,56.8679682 Z" id="Path" fill="#FFBC95"></path>
                <path d="M83.1242139,57.6421632 C82.4745364,57.891551 81.8308255,58.1562126 81.1936171,58.4359275 L99,99 L83.1242139,57.6421632 Z" id="Path" fill="#FFBC95"></path>
                <path d="M80.9814692,58.5297171 C80.345734,58.8127646 79.7167566,59.1107527 79.0950606,59.4234332 L99,99 L80.9814692,58.5297171 Z" id="Path" fill="#FFBC95"></path>
                <path d="M78.888112,59.5281973 C78.2680617,59.8441287 77.6555417,60.1746265 77.0510622,60.5194156 L99,99 L78.888112,59.5281973 Z" id="Path" fill="#FFBC95"></path>
                <path d="M76.8498801,60.6348669 C76.2472141,60.9828163 75.6528305,61.344918 75.0672242,61.7208705 L99,99 L76.8498801,60.6348669 Z" id="Path" fill="#FFBC95"></path>
                <path d="M74.8723601,61.8466927 C74.2887303,62.2257063 73.7141123,62.6184194 73.1489844,63.024505 L99,99 L74.8723601,61.8466927 Z" id="Path" fill="#FFBC95"></path>
                <path d="M72.9609723,63.1603531 C72.3979784,63.5693921 71.8447009,63.9916402 71.3016004,64.4267458 L99,99 L72.9609723,63.1603531 Z" id="Path" fill="#FFBC95"></path>
                <path d="M71.1209557,64.5722475 C70.5801408,65.0101908 70.0497203,65.4608165 69.5301357,65.9237495 L99,99 L71.1209557,64.5722475 Z" id="Path" fill="#FFBC95"></path>
                <path d="M69.3573537,66.078506 C68.8402001,66.5441531 68.3340904,67.0219213 67.839446,67.5114128 L99,99 L69.3573537,66.078506 Z" id="Path" fill="#FFBC95"></path>
                <path d="M67.675,67.675 C67.1829253,68.1670747 66.7025137,68.6706759 66.2341651,69.1853842 L99,99 L67.675,67.675 Z" id="Path" fill="#FFBC95"></path>
                <path d="M66.078506,69.3573537 C65.6128589,69.8745072 65.1594621,70.402561 64.7186931,70.9410754 L99,99 L66.078506,69.3573537 Z" id="Path" fill="#FFBC95"></path>
                <path d="M64.5722475,71.1209557 C64.1343043,71.6617706 63.709165,72.2128297 63.2971838,72.7736742 L99,99 L64.5722475,71.1209557 Z" id="Path" fill="#FFBC95"></path>
                <path d="M63.1603531,72.9609723 C62.7513141,73.5239663 62.3555977,74.0965202 61.9735334,74.6781575 L99,99 L63.1603531,72.9609723 Z" id="Path" fill="#FFBC95"></path>
                <path d="M61.8466927,74.8723601 C61.4676791,75.4559899 61.1024702,76.0484694 60.75137,76.6493053 L99,99 L61.8466927,74.8723601 Z" id="Path" fill="#FFBC95"></path>
                <path d="M60.6348669,76.8498801 C60.2869175,77.4525461 59.9532171,78.0633271 59.6340435,78.6817147 L99,99 L60.6348669,76.8498801 Z" id="Path" fill="#FFBC95"></path>
                <path d="M59.5281973,78.888112 C59.2122659,79.5081623 58.9109886,80.1355708 58.6246163,80.7698152 L99,99 L59.5281973,78.888112 Z" id="Path" fill="#FFBC95"></path>
                <path d="M58.5297171,80.9814692 C58.2466696,81.6172043 57.9786412,82.2595206 57.7258552,82.9078834 L99,99 L58.5297171,80.9814692 Z" id="Path" fill="#FFBC95"></path>
                <path d="M57.6421632,83.1242139 C57.3927754,83.7738913 57.1587306,84.4293549 56.9402236,85.0900589 L99,99 L57.6421632,83.1242139 Z" id="Path" fill="#FFBC95"></path>
                <path d="M56.8679682,85.310473 C56.6529237,85.9723121 56.4535039,86.6391263 56.269875,87.3103606 L99,99 L56.8679682,85.310473 Z" id="Path" fill="#FFBC95"></path>
                <path d="M56.2092542,87.5342542 C56.0291424,88.2064408 55.8648943,88.882778 55.7166467,89.5627028 L99,99 L56.2092542,87.5342542 Z" id="Path" fill="#FFBC95"></path>
                <path d="M55.6678267,89.7894622 C55.5231412,90.4701539 55.394515,91.1541603 55.2820551,91.840912 L99,99 L55.6678267,89.7894622 Z" id="Path" fill="#FFBC95"></path>
                <path d="M55.2451696,92.0699157 C55.1363071,92.7572467 55.0436552,93.4470475 54.9672913,94.1387437 L99,99 L55.2451696,92.0699157 Z" id="Path" fill="#FFBC95"></path>
                <path d="M54.9424415,94.369364 C54.8697003,95.0614505 54.8132768,95.755155 54.7732181,96.4498998 L99,99 L54.9424415,94.369364 Z" id="Path" fill="#FFBC95"></path>
                <path d="M54.7604721,96.6815046 C54.7240516,97.3764496 54.7040111,98.0721564 54.7003674,98.7680455 L99,99 L54.7604721,96.6815046 Z" id="Path" fill="#FFBC95"></path>
                <path d="M54.6997602,99 C54.6997602,99.6958987 54.7161576,100.391701 54.748939,101.086827 L99,99 L54.6997602,99 Z" id="Path" fill="#FFBC95"></path>
                <path d="M54.7604721,101.318495 C54.7968926,102.01344 54.8496831,102.707431 54.9187996,103.399889 L99,99 L54.7604721,101.318495 Z" id="Path" fill="#FFBC95"></path>
                <path d="M54.9424415,103.630636 C55.0151827,104.322723 55.1042215,105.012999 55.2094837,105.700891 L99,99 L54.9424415,103.630636 Z" id="Path" fill="#FFBC95"></path>
                <path d="M55.2451696,105.930084 C55.3540322,106.617415 55.4790752,107.302086 55.6201946,107.983526 L99,99 L55.2451696,105.930084 Z" id="Path" fill="#FFBC95"></path>
                <path d="M55.6678267,108.210538 C55.8125122,108.891229 55.9732167,109.568417 56.1498066,110.241538 L99,99 L55.6678267,108.210538 Z" id="Path" fill="#FFBC95"></path>
                <path d="M56.2092542,110.465746 C56.3893661,111.137932 56.5852917,111.805782 56.7968679,112.468738 L99,99 L56.2092542,110.465746 Z" id="Path" fill="#FFBC95"></path>
                <path d="M56.8679682,112.689527 C57.0830128,113.351366 57.3136224,114.008046 57.5596051,114.65902 L99,99 L56.8679682,112.689527 Z" id="Path" fill="#FFBC95"></path>
                <path d="M57.6421632,114.875786 C57.891551,115.525464 58.1562126,116.169174 58.4359275,116.806383 L99,99 L57.6421632,114.875786 Z" id="Path" fill="#FFBC95"></path>
                <path d="M58.5297171,117.018531 C58.8127646,117.654266 59.1107527,118.283243 59.4234332,118.904939 L99,99 L58.5297171,117.018531 Z" id="Path" fill="#FFBC95"></path>
                <path d="M59.5281973,119.111888 C59.8441287,119.731938 60.1746265,120.344458 60.5194156,120.948938 L99,99 L59.5281973,119.111888 Z" id="Path" fill="#FFBC95"></path>
                <path d="M60.6348669,121.15012 C60.9828163,121.752786 61.344918,122.347169 61.7208705,122.932776 L99,99 L60.6348669,121.15012 Z" id="Path" fill="#FFBC95"></path>
                <path d="M61.8466927,123.12764 C62.2257063,123.71127 62.6184194,124.285888 63.024505,124.851016 L99,99 L61.8466927,123.12764 Z" id="Path" fill="#FFBC95"></path>
                <path d="M63.1603531,125.039028 C63.5693921,125.602022 63.9916402,126.155299 64.4267458,126.6984 L99,99 L63.1603531,125.039028 Z" id="Path" fill="#FFBC95"></path>
                <path d="M64.5722475,126.879044 C65.0101908,127.419859 65.4608165,127.95028 65.9237495,128.469864 L99,99 L64.5722475,126.879044 Z" id="Path" fill="#FFBC95"></path>
                <path d="M66.078506,128.642646 C66.5441531,129.1598 67.0219213,129.66591 67.5114128,130.160554 L99,99 L66.078506,128.642646 Z" id="Path" fill="#FFBC95"></path>
                <path d="M67.675,130.325 C68.1670747,130.817075 68.6706759,131.297486 69.1853842,131.765835 L99,99 L67.675,130.325 Z" id="Path" fill="#FFBC95"></path>
                <path d="M69.3573537,131.921494 C69.8745072,132.387141 70.402561,132.840538 70.9410754,133.281307 L99,99 L69.3573537,131.921494 Z" id="Path" fill="#FFBC95"></path>
                <path d="M71.1209557,133.427752 C71.6617706,133.865696 72.2128297,134.290835 72.7736742,134.702816 L99,99 L71.1209557,133.427752 Z" id="Path" fill="#FFBC95"></path>
                <path d="M72.9609723,134.839647 C73.5239663,135.248686 74.0965202,135.644402 74.6781575,136.026467 L99,99 L72.9609723,134.839647 Z" id="Path" fill="#FFBC95"></path>
                <path d="M74.8723601,136.153307 C75.4559899,136.532321 76.0484694,136.89753 76.6493053,137.24863 L99,99 L74.8723601,136.153307 Z" id="Path" fill="#FFBC95"></path>
                <path d="M76.8498801,137.365133 C77.4525461,137.713082 78.0633271,138.046783 78.6817147,138.365957 L99,99 L76.8498801,137.365133 Z" id="Path" fill="#FFBC95"></path>
                <path d="M78.888112,138.471803 C79.5081623,138.787734 80.1355708,139.089011 80.7698152,139.375384 L99,99 L78.888112,138.471803 Z" id="Path" fill="#FFBC95"></path>
                <path d="M80.9814692,139.470283 C81.6172043,139.75333 82.2595206,140.021359 82.9078834,140.274145 L99,99 L80.9814692,139.470283 Z" id="Path" fill="#FFBC95"></path>
                <path d="M83.1242139,140.357837 C83.7738913,140.607225 84.4293549,140.841269 85.0900589,141.059776 L99,99 L83.1242139,140.357837 Z" id="Path" fill="#FFBC95"></path>
                <path d="M85.310473,141.132032 C85.9723121,141.347076 86.6391263,141.546496 87.3103606,141.730125 L99,99 L85.310473,141.132032 Z" id="Path" fill="#FFBC95"></path>
                <path d="M87.5342542,141.790746 C88.2064408,141.970858 88.882778,142.135106 89.5627028,142.283353 L99,99 L87.5342542,141.790746 Z" id="Path" fill="#FFBC95"></path>
                <path d="M89.7894622,142.332173 C90.4701539,142.476859 91.1541603,142.605485 91.840912,142.717945 L99,99 L89.7894622,142.332173 Z" id="Path" fill="#FFBC95"></path>
                <path d="M92.0699157,142.75483 C92.7572467,142.863693 93.4470475,142.956345 94.1387437,143.032709 L99,99 L92.0699157,142.75483 Z" id="Path" fill="#FFBC95"></path>
                <path d="M94.369364,143.057558 C95.0614505,143.1303 95.755155,143.186723 96.4498998,143.226782 L99,99 L94.369364,143.057558 Z" id="Path" fill="#FFBC95"></path>
                <path d="M96.6815046,143.239528 C97.3764496,143.275948 98.0721564,143.295989 98.7680455,143.299633 L99,99 L96.6815046,143.239528 Z" id="Path" fill="#FFBC95"></path>
                <path d="M99,143.30024 C99.6958987,143.30024 100.391701,143.283842 101.086827,143.251061 L99,99 L99,143.30024 Z" id="Path" fill="#FFBC95"></path>
                <path d="M101.318495,143.239528 C102.01344,143.203107 102.707431,143.150317 103.399889,143.0812 L99,99 L101.318495,143.239528 Z" id="Path" fill="#FFBC95"></path>
                <path d="M103.630636,143.057558 C104.322723,142.984817 105.012999,142.895778 105.700891,142.790516 L99,99 L103.630636,143.057558 Z" id="Path" fill="#FFBC95"></path>
                <path d="M105.930084,142.75483 C106.617415,142.645968 107.302086,142.520925 107.983526,142.379805 L99,99 L105.930084,142.75483 Z" id="Path" fill="#FFBC95"></path>
                <path d="M108.210538,142.332173 C108.891229,142.187488 109.568417,142.026783 110.241538,141.850193 L99,99 L108.210538,142.332173 Z" id="Path" fill="#FFBC95"></path>
                <path d="M110.465746,141.790746 C111.137932,141.610634 111.805782,141.414708 112.468738,141.203132 L99,99 L110.465746,141.790746 Z" id="Path" fill="#FFBC95"></path>
                <path d="M112.689527,141.132032 C113.351366,140.916987 114.008046,140.686378 114.65902,140.440395 L99,99 L112.689527,141.132032 Z" id="Path" fill="#FFBC95"></path>
                <path d="M114.875786,140.357837 C115.525464,140.108449 116.169174,139.843787 116.806383,139.564072 L99,99 L114.875786,140.357837 Z" id="Path" fill="#FFBC95"></path>
                <path d="M117.018531,139.470283 C117.654266,139.187235 118.283243,138.889247 118.904939,138.576567 L99,99 L117.018531,139.470283 Z" id="Path" fill="#FFBC95"></path>
                <path d="M119.111888,138.471803 C119.731938,138.155871 120.344458,137.825373 120.948938,137.480584 L99,99 L119.111888,138.471803 Z" id="Path" fill="#FFBC95"></path>
                <path d="M121.15012,137.365133 C121.752786,137.017184 122.347169,136.655082 122.932776,136.279129 L99,99 L121.15012,137.365133 Z" id="Path" fill="#FFBC95"></path>
                <path d="M123.12764,136.153307 C123.71127,135.774294 124.285888,135.381581 124.851016,134.975495 L99,99 L123.12764,136.153307 Z" id="Path" fill="#FFBC95"></path>
                <path d="M125.039028,134.839647 C125.602022,134.430608 126.155299,134.00836 126.6984,133.573254 L99,99 L125.039028,134.839647 Z" id="Path" fill="#FFBC95"></path>
                <path d="M126.879044,133.427752 C127.419859,132.989809 127.95028,132.539184 128.469864,132.076251 L99,99 L126.879044,133.427752 Z" id="Path" fill="#FFBC95"></path>
                <path d="M128.642646,131.921494 C129.1598,131.455847 129.66591,130.978079 130.160554,130.488587 L99,99 L128.642646,131.921494 Z" id="Path" fill="#FFBC95"></path>
                <path d="M130.325,130.325 C130.817075,129.832925 131.297486,129.329324 131.765835,128.814616 L99,99 L130.325,130.325 Z" id="Path" fill="#FFBC95"></path>
                <path d="M131.921494,128.642646 C132.387141,128.125493 132.840538,127.597439 133.281307,127.058925 L99,99 L131.921494,128.642646 Z" id="Path" fill="#FFBC95"></path>
                <path d="M133.427752,126.879044 C133.865696,126.338229 134.290835,125.78717 134.702816,125.226326 L99,99 L133.427752,126.879044 Z" id="Path" fill="#FFBC95"></path>
                <path d="M134.839647,125.039028 C135.248686,124.476034 135.644402,123.90348 136.026467,123.321843 L99,99 L134.839647,125.039028 Z" id="Path" fill="#FFBC95"></path>
                <path d="M136.153307,123.12764 C136.532321,122.54401 136.89753,121.951531 137.24863,121.350695 L99,99 L136.153307,123.12764 Z" id="Path" fill="#FFBC95"></path>
                <path d="M137.365133,121.15012 C137.713082,120.547454 138.046783,119.936673 138.365957,119.318285 L99,99 L137.365133,121.15012 Z" id="Path" fill="#FFBC95"></path>
                <path d="M138.471803,119.111888 C138.787734,118.491838 139.089011,117.864429 139.375384,117.230185 L99,99 L138.471803,119.111888 Z" id="Path" fill="#FFBC95"></path>
                <path d="M139.470283,117.018531 C139.75333,116.382796 140.021359,115.740479 140.274145,115.092117 L99,99 L139.470283,117.018531 Z" id="Path" fill="#FFBC95"></path>
                <path d="M140.357837,114.875786 C140.607225,114.226109 140.841269,113.570645 141.059776,112.909941 L99,99 L140.357837,114.875786 Z" id="Path" fill="#FFBC95"></path>
                <path d="M141.132032,112.689527 C141.347076,112.027688 141.546496,111.360874 141.730125,110.689639 L99,99 L141.132032,112.689527 Z" id="Path" fill="#FFBC95"></path>
                <path d="M141.790746,110.465746 C141.970858,109.793559 142.135106,109.117222 142.283353,108.437297 L99,99 L141.790746,110.465746 Z" id="Path" fill="#FFBC95"></path>
                <path d="M142.332173,108.210538 C142.476859,107.529846 142.605485,106.84584 142.717945,106.159088 L99,99 L142.332173,108.210538 Z" id="Path" fill="#FFBC95"></path>
                <path d="M142.75483,105.930084 C142.863693,105.242753 142.956345,104.552952 143.032709,103.861256 L99,99 L142.75483,105.930084 Z" id="Path" fill="#FFBC95"></path>
                <path d="M143.057558,103.630636 C143.1303,102.938549 143.186723,102.244845 143.226782,101.5501 L99,99 L143.057558,103.630636 Z" id="Path" fill="#FFBC95"></path>
                <path d="M143.239528,101.318495 C143.275948,100.62355 143.295989,99.9278436 143.299633,99.2319545 L99,99 L143.239528,101.318495 Z" id="Path" fill="#FFBC95"></path>
                <path d="M143.30024,99 C143.30024,98.3041013 143.283842,97.6082991 143.251061,96.9131729 L99,99 L143.30024,99 Z" id="Path" fill="#FFBC95"></path>
                <path d="M143.239528,96.6815046 C143.203107,95.9865596 143.150317,95.2925692 143.0812,94.6001113 L99,99 L143.239528,96.6815046 Z" id="Path" fill="#FFBC95"></path>
                <path d="M143.057558,94.369364 C142.984817,93.6772775 142.895778,92.987001 142.790516,92.2991094 L99,99 L143.057558,94.369364 Z" id="Path" fill="#FFBC95"></path>
                <path d="M142.75483,92.0699157 C142.645968,91.3825846 142.520925,90.6979141 142.379805,90.0164742 L99,99 L142.75483,92.0699157 Z" id="Path" fill="#FFBC95"></path>
                <path d="M142.332173,89.7894622 C142.187488,89.1087706 142.026783,88.4315826 141.850193,87.7584622 L99,99 L142.332173,89.7894622 Z" id="Path" fill="#FFBC95"></path>
                <path d="M141.790746,87.5342542 C141.610634,86.8620677 141.414708,86.1942184 141.203132,85.5312625 L99,99 L141.790746,87.5342542 Z" id="Path" fill="#FFBC95"></path>
                <path d="M141.132032,85.310473 C140.916987,84.648634 140.686378,83.991954 140.440395,83.3409796 L99,99 L141.132032,85.310473 Z" id="Path" fill="#FFBC95"></path>
                <path d="M140.357837,83.1242139 C140.108449,82.4745364 139.843787,81.8308255 139.564072,81.1936171 L99,99 L140.357837,83.1242139 Z" id="Path" fill="#FFBC95"></path>
                <path d="M139.470283,80.9814692 C139.187235,80.345734 138.889247,79.7167566 138.576567,79.0950606 L99,99 L139.470283,80.9814692 Z" id="Path" fill="#FFBC95"></path>
                <path d="M138.471803,78.888112 C138.155871,78.2680617 137.825373,77.6555417 137.480584,77.0510622 L99,99 L138.471803,78.888112 Z" id="Path" fill="#FFBC95"></path>
                <path d="M137.365133,76.8498801 C137.017184,76.2472141 136.655082,75.6528305 136.279129,75.0672242 L99,99 L137.365133,76.8498801 Z" id="Path" fill="#FFBC95"></path>
                <path d="M136.153307,74.8723601 C135.774294,74.2887303 135.381581,73.7141123 134.975495,73.1489844 L99,99 L136.153307,74.8723601 Z" id="Path" fill="#FFBC95"></path>
                <path d="M134.839647,72.9609723 C134.430608,72.3979784 134.00836,71.8447009 133.573254,71.3016004 L99,99 L134.839647,72.9609723 Z" id="Path" fill="#FFBC95"></path>
                <path d="M133.427752,71.1209557 C132.989809,70.5801408 132.539184,70.0497203 132.076251,69.5301357 L99,99 L133.427752,71.1209557 Z" id="Path" fill="#FFBC95"></path>
                <path d="M131.921494,69.3573537 C131.455847,68.8402001 130.978079,68.3340904 130.488587,67.839446 L99,99 L131.921494,69.3573537 Z" id="Path" fill="#FFBC95"></path>
                <path d="M130.325,67.675 C129.832925,67.1829253 129.329324,66.7025137 128.814616,66.2341651 L99,99 L130.325,67.675 Z" id="Path" fill="#FFBC95"></path>
                <path d="M128.642646,66.078506 C128.125493,65.6128589 127.597439,65.1594621 127.058925,64.7186931 L99,99 L128.642646,66.078506 Z" id="Path" fill="#FFBC95"></path>
                <path d="M126.879044,64.5722475 C126.338229,64.1343043 125.78717,63.709165 125.226326,63.2971838 L99,99 L126.879044,64.5722475 Z" id="Path" fill="#FFBC95"></path>
                <path d="M125.039028,63.1603531 C124.476034,62.7513141 123.90348,62.3555977 123.321843,61.9735334 L99,99 L125.039028,63.1603531 Z" id="Path" fill="#FFBC95"></path>
                <path d="M123.12764,61.8466927 C122.54401,61.4676791 121.951531,61.1024702 121.350695,60.75137 L99,99 L123.12764,61.8466927 Z" id="Path" fill="#FFBC95"></path>
                <path d="M121.15012,60.6348669 C120.547454,60.2869175 119.936673,59.9532171 119.318285,59.6340435 L99,99 L121.15012,60.6348669 Z" id="Path" fill="#FFBC95"></path>
                <path d="M119.111888,59.5281973 C118.491838,59.2122659 117.864429,58.9109886 117.230185,58.6246163 L99,99 L119.111888,59.5281973 Z" id="Path" fill="#FFBC95"></path>
                <path d="M117.018531,58.5297171 C116.382796,58.2466696 115.740479,57.9786412 115.092117,57.7258552 L99,99 L117.018531,58.5297171 Z" id="Path" fill="#FFBC95"></path>
                <path d="M114.875786,57.6421632 C114.226109,57.3927754 113.570645,57.1587306 112.909941,56.9402236 L99,99 L114.875786,57.6421632 Z" id="Path" fill="#FFBC95"></path>
                <path d="M112.689527,56.8679682 C112.027688,56.6529237 111.360874,56.4535039 110.689639,56.269875 L99,99 L112.689527,56.8679682 Z" id="Path" fill="#FFBC95"></path>
                <path d="M110.465746,56.2092542 C109.793559,56.0291424 109.117222,55.8648943 108.437297,55.7166467 L99,99 L110.465746,56.2092542 Z" id="Path" fill="#FFBC95"></path>
                <path d="M108.210538,55.6678267 C107.529846,55.5231412 106.84584,55.394515 106.159088,55.2820551 L99,99 L108.210538,55.6678267 Z" id="Path" fill="#FFBC95"></path>
                <path d="M105.930084,55.2451696 C105.242753,55.1363071 104.552952,55.0436552 103.861256,54.9672913 L99,99 L105.930084,55.2451696 Z" id="Path" fill="#FFBC95"></path>
                <path d="M103.630636,54.9424415 C102.938549,54.8697003 102.244845,54.8132768 101.5501,54.7732181 L99,99 L103.630636,54.9424415 Z" id="Path" fill="#FFBC95"></path>
                <path d="M101.318495,54.7604721 C100.62355,54.7240516 99.9278436,54.7040111 99.2319545,54.7003674 L99,99 L101.318495,54.7604721 Z" id="Path" fill="#FFBC95"></path>
                <circle id="Oval" fill="#111C27" cx="99" cy="99" r="34.6482323"></circle>
            </g>
        </g>
    </g>
</svg>